<svg id="Layer_1" data-name="Layer 1" xmlns="http://www.w3.org/2000/svg" width="100mm" height="100mm" viewBox="0 0 283.465 283.465">
  <g>
    <g>
      <path d="M178.424,33.526s-5.17,1.96-9.98-.53l-3.38-6.06s-.72-3.39,4.27-8.2C169.334,18.736,171.654,28.9,178.424,33.526Z" fill="#f2e9e4"/>
      <path d="M165.064,26.936l3.38,6.06-12.53,8.56a23.2,23.2,0,0,0-3.58-6.19Z" fill="#f2e9e4"/>
      <path d="M207.474,156.976a12.122,12.122,0,0,0-.47-3.33h12.35v5.7h-12.12A11.547,11.547,0,0,0,207.474,156.976Z" fill="#f2e9e4"/>
      <path d="M220.3,234.436l1.43,14.26-13.55,3.27c.12-3.66-.8-8.69-5.05-14Z" fill="#f2e9e4"/>
      <polygon points="122.644 235.266 122.644 235.386 94.844 235.386 94.844 227.076 122.644 227.076 122.644 235.266" fill="#f2e9e4"/>
      <path d="M94.844,235.386h105.98a29.814,29.814,0,0,1,2.31,2.58c4.25,5.31,5.17,10.34,5.05,14a15.715,15.715,0,0,1-1.18,5.76H75.834c0-17.58,17.11-22.34,17.11-22.34Z" fill="#ee8697"/>
      <circle cx="195.594" cy="156.976" r="5.59" fill="#f2e9e4"/>
      <path d="M179.434,187.866a7.605,7.605,0,1,1-7.6,7.6A7.605,7.605,0,0,1,179.434,187.866Z" fill="#f2e9e4"/>
      <circle cx="170.044" cy="169.806" r="5.59" fill="#ee8697"/>
      <path d="M207.234,159.346a11.879,11.879,0,0,1-23.52-2.37c0-.32.01-.64.04-.95a11.88,11.88,0,0,1,8.52-10.46h4.75s.01-.13.01-.38a11.894,11.894,0,0,1,9.97,8.46,12.122,12.122,0,0,1,.47,3.33A11.547,11.547,0,0,1,207.234,159.346Zm-6.05-2.37a5.59,5.59,0,1,0-5.59,5.59A5.587,5.587,0,0,0,201.184,156.976Z" fill="#ee8697"/>
      <path d="M179.434,179.306a16.16,16.16,0,1,1-16.16,16.16A16.16,16.16,0,0,1,179.434,179.306Zm7.61,16.16a7.605,7.605,0,1,0-7.61,7.61A7.605,7.605,0,0,0,187.044,195.466Z" fill="#ee8697"/>
      <polygon points="128.584 185.966 80.104 185.966 80.104 176.106 140.104 176.106 140.294 176.126 139.514 185.966 128.584 185.966" fill="#ee8697"/>
      <polygon points="140.944 167.906 140.294 176.126 140.104 176.106 80.104 176.106 80.104 167.906 120.704 167.906 140.944 167.906" fill="#ee8697"/>
      <path d="M138.274,73.686v.01l-.05,3.31c-3.46-.06-7.68-.11-10.38-.15l.71-8.5Z" fill="#f2e9e4"/>
      <polygon points="117.744 62.416 111.104 67.616 102.694 59.206 106.434 56.206 117.744 62.416" fill="#f2e9e4"/>
      <polygon points="127.844 67.966 123.324 75.696 113.584 69.556 118.154 62.646 127.844 67.966" fill="#f2e9e4"/>
      <path d="M138.224,77.006l-.1,6.11-10.76-.59.48-5.67C130.544,76.9,134.764,76.946,138.224,77.006Z" fill="#ee8697"/>
      <polygon points="123.324 75.696 120.634 80.296 110.354 74.446 113.584 69.556 123.324 75.696" fill="#ee8697"/>
      <polygon points="111.104 67.616 106.154 71.486 97.524 63.356 102.694 59.206 111.104 67.616" fill="#ee8697"/>
      <path d="M138.124,83.116l-.15,9.76c-7.49,4.28-11.41-.71-11.41-.71l.8-9.64Z" fill="#f2e9e4"/>
      <path d="M120.634,80.3l-5.48,9.37c-10.33,1.96-10.15-7.13-10.15-7.13l5.35-8.09Z" fill="#f2e9e4"/>
      <path d="M106.154,71.486l-12.74,9.98c-8.91-1.24-7.13-9.09-7.13-9.09l11.24-9.02Z" fill="#f2e9e4"/>
      <path d="M57.774,145.566h134.5a11.88,11.88,0,0,0-8.52,10.46H57.774Z" fill="#f2e9e4"/>
      <path d="M145.214,62.876c71.29,21.38,65.59,90.77,65.59,90.77H207a11.894,11.894,0,0,0-9.97-8.46c.02-2.75-.52-20.24-16.65-43.34-17.58-25.19-38.02-31.37-38.02-31.37V68.5l1.31-3.6-1.31-.74v-.33l.9-1.88Z" fill="#f2e9e4"/>
      <path d="M141.414,235.386h-12.83v-49.42h10.93l.78-9.84.65-8.22H120.7l-6.08-11.88h69.13c-.03.31-.04.63-.04.95a11.879,11.879,0,0,0,23.52,2.37h12.12v-5.7H210.8s5.7-69.39-65.59-90.77l-1.95-.93,1.97-4.16,1.88-3.94c27.09,0,82.22,41.82,82.22,96s-28.51,85.54-28.51,85.54Zm54.18-39.92a16.16,16.16,0,1,0-16.16,16.16A16.16,16.16,0,0,0,195.594,195.466Zm-19.96-25.66a5.59,5.59,0,1,0-5.59,5.59A5.587,5.587,0,0,0,175.634,169.806Z" fill="#f2e9e4"/>
      <polygon points="143.674 64.896 142.364 68.496 140.104 74.696 138.274 73.696 138.274 73.686 128.554 68.356 127.844 67.966 118.154 62.646 117.744 62.416 106.434 56.206 103.754 54.736 111.594 46.716 116.794 49.656 140.674 63.196 142.364 64.156 143.674 64.896" fill="#ee8697"/>
      <path d="M145.324,45.086l.01.01a6.564,6.564,0,0,1,.12,1.26,6.77,6.77,0,1,1-6.77-6.77,6.671,6.671,0,0,1,3.48.97c.01,0,.01,0,.02.02A14.69,14.69,0,0,1,145.324,45.086Z" fill="#f2e9e4"/>
      <path d="M157.214,46.006l-10.75,7.57a15.078,15.078,0,0,0,.18-2.34,14.919,14.919,0,0,0-1.31-6.14l-.01-.01a6.657,6.657,0,0,0-3.14-4.51c-.01-.02-.01-.02-.02-.02a14.974,14.974,0,0,0-7-3.89l10.83-6.52a18.635,18.635,0,0,1,6.34,5.22,23.2,23.2,0,0,1,3.58,6.19A27.182,27.182,0,0,1,157.214,46.006Z" fill="#ee8697"/>
      <path d="M146.464,53.586a14.738,14.738,0,0,1-1.31,4.16,15.021,15.021,0,0,1-4.48,5.45l-23.88-13.54a14.952,14.952,0,0,1,25.37-9.1,6.671,6.671,0,0,0-3.48-.97,6.775,6.775,0,1,0,6.77,6.77,6.564,6.564,0,0,0-.12-1.26,14.919,14.919,0,0,1,1.31,6.14,15.078,15.078,0,0,1-.18,2.34Z" fill="#f2e9e4"/>
    </g>
    <g>
      <path d="M178.424,33.526s-5.17,1.96-9.98-.53l-3.38-6.06s-.72-3.39,4.27-8.2C169.334,18.736,171.654,28.9,178.424,33.526Z" fill="#f2e9e4"/>
      <path d="M165.064,26.936l3.38,6.06-12.53,8.56a23.2,23.2,0,0,0-3.58-6.19Z" fill="#f2e9e4"/>
      <path d="M207.474,156.976a12.122,12.122,0,0,0-.47-3.33h12.35v5.7h-12.12A11.547,11.547,0,0,0,207.474,156.976Z" fill="#f2e9e4"/>
      <path d="M220.3,234.436l1.43,14.26-13.55,3.27c.12-3.66-.8-8.69-5.05-14Z" fill="#f2e9e4"/>
      <polygon points="122.644 235.266 122.644 235.386 94.844 235.386 94.844 227.076 122.644 227.076 122.644 235.266" fill="#f2e9e4"/>
      <path d="M141.414,235.386H92.944s-17.11,4.76-17.11,22.34h75.853a125.805,125.805,0,0,0,5.848-22.34Z" fill="#ee8697"/>
      <path d="M203.134,237.966a29.814,29.814,0,0,0-2.31-2.58H157.535a125.805,125.805,0,0,1-5.848,22.34H207a15.715,15.715,0,0,0,1.18-5.76C208.3,248.306,207.384,243.276,203.134,237.966Z" fill="#e26e7e"/>
      <circle cx="195.594" cy="156.976" r="5.59" fill="#f2e9e4"/>
      <path d="M179.434,187.866a7.605,7.605,0,1,1-7.6,7.6A7.605,7.605,0,0,1,179.434,187.866Z" fill="#f2e9e4"/>
      <circle cx="170.044" cy="169.806" r="5.59" fill="#ee8697"/>
      <path d="M207.234,159.346a11.879,11.879,0,0,1-23.52-2.37c0-.32.01-.64.04-.95a11.88,11.88,0,0,1,8.52-10.46h4.75s.01-.13.01-.38a11.894,11.894,0,0,1,9.97,8.46,12.122,12.122,0,0,1,.47,3.33A11.547,11.547,0,0,1,207.234,159.346Zm-6.05-2.37a5.59,5.59,0,1,0-5.59,5.59A5.587,5.587,0,0,0,201.184,156.976Z" fill="#ee8697"/>
      <path d="M179.434,179.306a16.16,16.16,0,1,1-16.16,16.16A16.16,16.16,0,0,1,179.434,179.306Zm7.61,16.16a7.605,7.605,0,1,0-7.61,7.61A7.605,7.605,0,0,0,187.044,195.466Z" fill="#ee8697"/>
      <polygon points="128.584 185.966 80.104 185.966 80.104 176.106 140.104 176.106 140.294 176.126 139.514 185.966 128.584 185.966" fill="#ee8697"/>
      <polygon points="140.944 167.906 140.294 176.126 140.104 176.106 80.104 176.106 80.104 167.906 120.704 167.906 140.944 167.906" fill="#ee8697"/>
      <path d="M138.274,73.686v.01l-.05,3.31c-3.46-.06-7.68-.11-10.38-.15l.71-8.5Z" fill="#f2e9e4"/>
      <polygon points="117.744 62.416 111.104 67.616 102.694 59.206 106.434 56.206 117.744 62.416" fill="#f2e9e4"/>
      <polygon points="127.844 67.966 123.324 75.696 113.584 69.556 118.154 62.646 127.844 67.966" fill="#f2e9e4"/>
      <path d="M138.224,77.006l-.1,6.11-10.76-.59.48-5.67C130.544,76.9,134.764,76.946,138.224,77.006Z" fill="#ee8697"/>
      <polygon points="123.324 75.696 120.634 80.296 110.354 74.446 113.584 69.556 123.324 75.696" fill="#ee8697"/>
      <polygon points="111.104 67.616 106.154 71.486 97.524 63.356 102.694 59.206 111.104 67.616" fill="#ee8697"/>
      <path d="M138.124,83.116l-.15,9.76c-7.49,4.28-11.41-.71-11.41-.71l.8-9.64Z" fill="#f2e9e4"/>
      <path d="M120.634,80.3l-5.48,9.37c-10.33,1.96-10.15-7.13-10.15-7.13l5.35-8.09Z" fill="#f2e9e4"/>
      <path d="M106.154,71.486l-12.74,9.98c-8.91-1.24-7.13-9.09-7.13-9.09l11.24-9.02Z" fill="#f2e9e4"/>
      <path d="M57.774,145.566h134.5a11.88,11.88,0,0,0-8.52,10.46H57.774Z" fill="#f2e9e4"/>
      <path d="M145.214,62.876c71.29,21.38,65.59,90.77,65.59,90.77H207a11.894,11.894,0,0,0-9.97-8.46c.02-2.75-.52-20.24-16.65-43.34-17.58-25.19-38.02-31.37-38.02-31.37V68.5l1.31-3.6-1.31-.74v-.33l.9-1.88Z" fill="#f2e9e4"/>
      <path d="M229.334,149.846c0-54.18-55.13-96-82.22-96l-1.88,3.94-1.97,4.16,1.95.93c71.29,21.38,65.59,90.77,65.59,90.77h8.55v5.7H207.877a152.356,152.356,0,0,1-4.283,23.41c-5.148,20.593-17.662,37.5-32.481,52.63h29.711S229.334,204.026,229.334,149.846Z" fill="#cdbeb9"/>
      <path d="M207.877,159.346h-.643a11.879,11.879,0,0,1-23.52-2.37c0-.32.01-.64.04-.95h-69.13l6.08,11.88h20.24l-.65,8.22-.78,9.84h-10.93v49.42h42.529c14.819-15.126,27.333-32.037,32.481-52.63A152.356,152.356,0,0,0,207.877,159.346Zm-37.833,4.87a5.59,5.59,0,1,1-5.59,5.59A5.587,5.587,0,0,1,170.044,164.216Zm9.39,47.41a16.16,16.16,0,1,1,16.16-16.16A16.16,16.16,0,0,1,179.434,211.626Z" fill="#f2e9e4"/>
      <path d="M130.753,57.571l-13.959-7.915-5.2-2.94-7.84,8.02,2.68,1.47,11.31,6.21.41.23,5.077,2.787A29.935,29.935,0,0,0,130.753,57.571Z" fill="#ee8697"/>
      <path d="M142.364,64.156l-1.69-.96-9.921-5.625a29.935,29.935,0,0,1-7.522,7.862l4.613,2.533.71.39,9.72,5.33v.01l1.83,1,2.26-6.2,1.31-3.6Z" fill="#e26e7e"/>
      <path d="M145.324,45.086l.01.01a6.564,6.564,0,0,1,.12,1.26,6.77,6.77,0,1,1-6.77-6.77,6.671,6.671,0,0,1,3.48.97c.01,0,.01,0,.02.02A14.69,14.69,0,0,1,145.324,45.086Z" fill="#f2e9e4"/>
      <path d="M157.214,46.006l-10.75,7.57a15.078,15.078,0,0,0,.18-2.34,14.919,14.919,0,0,0-1.31-6.14l-.01-.01a6.657,6.657,0,0,0-3.14-4.51c-.01-.02-.01-.02-.02-.02a14.974,14.974,0,0,0-7-3.89l10.83-6.52a18.635,18.635,0,0,1,6.34,5.22,23.2,23.2,0,0,1,3.58,6.19A27.182,27.182,0,0,1,157.214,46.006Z" fill="#ee8697"/>
      <path d="M146.464,53.586a14.738,14.738,0,0,1-1.31,4.16,15.021,15.021,0,0,1-4.48,5.45l-23.88-13.54a14.952,14.952,0,0,1,25.37-9.1,6.671,6.671,0,0,0-3.48-.97,6.775,6.775,0,1,0,6.77,6.77,6.564,6.564,0,0,0-.12-1.26,14.919,14.919,0,0,1,1.31,6.14,15.078,15.078,0,0,1-.18,2.34Z" fill="#f2e9e4"/>
    </g>
    <g>
      <path d="M94.844,235.386h-1.9s-17.11,4.76-17.11,22.34H207a15.715,15.715,0,0,0,1.18-5.76c.12-3.66-.8-8.69-5.05-14a29.814,29.814,0,0,0-2.31-2.58H94.844Z" fill="none" stroke="#010101" stroke-linecap="round" stroke-linejoin="round" stroke-width="2"/>
      <path d="M183.754,156.026H57.774v-10.46h139.25s.01-.13.01-.38c.02-2.75-.52-20.24-16.65-43.34-17.58-25.19-38.02-31.37-38.02-31.37V68.5" fill="none" stroke="#010101" stroke-linecap="round" stroke-linejoin="round" stroke-width="2"/>
      <path d="M142.364,64.156v-.33l.9-1.88,1.97-4.16,1.88-3.94c27.09,0,82.22,41.82,82.22,96s-28.51,85.54-28.51,85.54" fill="none" stroke="#010101" stroke-linecap="round" stroke-linejoin="round" stroke-width="2"/>
      <line x1="120.704" y1="167.906" x2="114.624" y2="156.026" fill="none" stroke="#010101" stroke-linecap="round" stroke-linejoin="round" stroke-width="2"/>
      <polygon points="140.294 176.126 140.944 167.906 120.704 167.906 80.104 167.906 80.104 176.106 80.104 185.966 128.584 185.966 139.514 185.966 140.294 176.126" fill="none" stroke="#010101" stroke-linecap="round" stroke-linejoin="round" stroke-width="2"/>
      <polyline points="128.584 235.386 128.584 185.966 128.584 185.016" fill="none" stroke="#010101" stroke-linecap="round" stroke-linejoin="round" stroke-width="2"/>
      <line x1="141.414" y1="235.386" x2="141.414" y2="197.366" fill="none" stroke="#010101" stroke-linecap="round" stroke-linejoin="round" stroke-width="2"/>
      <polyline points="203.134 237.966 220.304 234.436 221.734 248.696 208.184 251.966" fill="none" stroke="#010101" stroke-linecap="round" stroke-linejoin="round" stroke-width="2"/>
      <circle cx="179.434" cy="195.466" r="16.16" fill="none" stroke="#010101" stroke-linecap="round" stroke-linejoin="round" stroke-width="2"/>
      <path d="M187.044,195.466a7.605,7.605,0,1,1-7.61-7.6A7.614,7.614,0,0,1,187.044,195.466Z" fill="none" stroke="#010101" stroke-linecap="round" stroke-linejoin="round" stroke-width="2"/>
      <path d="M207,153.646a12.122,12.122,0,0,1,.47,3.33,11.547,11.547,0,0,1-.24,2.37,11.879,11.879,0,0,1-23.52-2.37c0-.32.01-.64.04-.95a11.88,11.88,0,0,1,8.52-10.46,11.735,11.735,0,0,1,3.32-.47,11.362,11.362,0,0,1,1.44.09A11.894,11.894,0,0,1,207,153.646Z" fill="none" stroke="#010101" stroke-linecap="round" stroke-linejoin="round" stroke-width="2"/>
      <circle cx="195.594" cy="156.976" r="5.59" fill="none" stroke="#010101" stroke-linecap="round" stroke-linejoin="round" stroke-width="2"/>
      <circle cx="170.044" cy="169.806" r="5.59" fill="none" stroke="#010101" stroke-linecap="round" stroke-linejoin="round" stroke-width="2"/>
      <path d="M210.8,153.646s5.7-69.39-65.59-90.77" fill="none" stroke="#010101" stroke-linecap="round" stroke-linejoin="round" stroke-width="2"/>
      <polyline points="207.004 159.346 207.234 159.346 219.354 159.346 219.354 153.646 210.804 153.646 207.004 153.646" fill="none" stroke="#010101" stroke-linecap="round" stroke-linejoin="round" stroke-width="2"/>
      <path d="M142.164,40.556a14.957,14.957,0,0,0-25.37,9.1" fill="none" stroke="#010101" stroke-linecap="round" stroke-linejoin="round" stroke-width="2"/>
      <path d="M145.324,45.086a14.69,14.69,0,0,0-3.14-4.51" fill="none" stroke="#010101" stroke-linecap="round" stroke-linejoin="round" stroke-width="2"/>
      <path d="M146.464,53.576a15.078,15.078,0,0,0,.18-2.34,14.919,14.919,0,0,0-1.31-6.14" fill="none" stroke="#010101" stroke-linecap="round" stroke-linejoin="round" stroke-width="2"/>
      <path d="M140.674,63.2a15.021,15.021,0,0,0,4.48-5.45,14.738,14.738,0,0,0,1.31-4.16" fill="none" stroke="#010101" stroke-linecap="round" stroke-linejoin="round" stroke-width="2"/>
      <polyline points="138.274 73.686 128.554 68.356 127.844 67.966 118.154 62.646 117.744 62.416 106.434 56.206 103.754 54.736 111.594 46.716 116.794 49.656 140.674 63.196 142.364 64.156 143.674 64.896 142.364 68.496 140.104 74.696 138.274 73.696" fill="none" stroke="#010101" stroke-linecap="round" stroke-linejoin="round" stroke-width="2"/>
      <path d="M117.744,62.416l-6.64,5.2-4.95,3.87-12.74,9.98c-8.91-1.24-7.13-9.09-7.13-9.09l11.24-9.02,5.17-4.15,3.74-3" fill="none" stroke="#010101" stroke-linecap="round" stroke-linejoin="round" stroke-width="2"/>
      <path d="M138.274,73.686v.01l-.05,3.31-.1,6.11-.15,9.76c-7.49,4.28-11.41-.71-11.41-.71l.8-9.64.48-5.67.71-8.5" fill="none" stroke="#010101" stroke-linecap="round" stroke-linejoin="round" stroke-width="2"/>
      <path d="M127.844,67.966l-4.52,7.73-2.69,4.6-5.48,9.37c-10.33,1.96-10.15-7.13-10.15-7.13l5.35-8.09,3.23-4.89,4.57-6.91" fill="none" stroke="#010101" stroke-linecap="round" stroke-linejoin="round" stroke-width="2"/>
      <path d="M145.334,45.1a6.564,6.564,0,0,1,.12,1.26,6.77,6.77,0,1,1-6.77-6.77,6.671,6.671,0,0,1,3.48.97c.01,0,.01,0,.02.02a6.657,6.657,0,0,1,3.14,4.51Z" fill="none" stroke="#010101" stroke-linecap="round" stroke-linejoin="round" stroke-width="2"/>
      <path d="M146.344,53.666l.12-.08v-.01l10.75-7.57a27.182,27.182,0,0,0-1.3-4.45,23.2,23.2,0,0,0-3.58-6.19,18.635,18.635,0,0,0-6.34-5.22l-10.83,6.52" fill="none" stroke="#010101" stroke-linecap="round" stroke-linejoin="round" stroke-width="2"/>
      <polyline points="152.334 35.366 165.064 26.936 168.444 32.996 155.914 41.556" fill="none" stroke="#010101" stroke-linecap="round" stroke-linejoin="round" stroke-width="2"/>
      <path d="M165.064,26.936s-.72-3.39,4.27-8.2c0,0,2.32,10.16,9.09,14.79,0,0-5.17,1.96-9.98-.53" fill="none" stroke="#010101" stroke-linecap="round" stroke-linejoin="round" stroke-width="2"/>
      <line x1="138.124" y1="83.116" x2="127.364" y2="82.526" fill="none" stroke="#010101" stroke-linecap="round" stroke-linejoin="round" stroke-width="2"/>
      <line x1="106.154" y1="71.486" x2="97.524" y2="63.356" fill="none" stroke="#010101" stroke-linecap="round" stroke-linejoin="round" stroke-width="2"/>
      <line x1="120.634" y1="80.296" x2="110.354" y2="74.446" fill="none" stroke="#010101" stroke-linecap="round" stroke-linejoin="round" stroke-width="2"/>
      <line x1="123.324" y1="75.696" x2="113.584" y2="69.556" fill="none" stroke="#010101" stroke-linecap="round" stroke-linejoin="round" stroke-width="2"/>
      <line x1="111.104" y1="67.616" x2="102.694" y2="59.206" fill="none" stroke="#010101" stroke-linecap="round" stroke-linejoin="round" stroke-width="2"/>
      <path d="M127.844,76.856c2.7.04,6.92.09,10.38.15" fill="none" stroke="#010101" stroke-linecap="round" stroke-linejoin="round" stroke-width="2"/>
      <polyline points="94.844 235.626 94.844 235.386 94.844 227.076 122.644 227.076 122.644 235.266" fill="none" stroke="#010101" stroke-linecap="round" stroke-linejoin="round" stroke-width="2"/>
      <polyline points="79.874 176.106 80.104 176.106 140.104 176.106" fill="none" stroke="#010101" stroke-linecap="round" stroke-linejoin="round" stroke-width="2"/>
    </g>
  </g>
</svg>
