<?xml version="1.0" standalone="no"?>
<!DOCTYPE svg PUBLIC "-//W3C//DTD SVG 20010904//EN"
 "http://www.w3.org/TR/2001/REC-SVG-20010904/DTD/svg10.dtd">
<svg version="1.0" xmlns="http://www.w3.org/2000/svg"
 width="1280.000000pt" height="1280.000000pt" viewBox="0 0 1280.000000 1280.000000"
 preserveAspectRatio="xMidYMid meet">
<metadata>
Created by potrace 1.15, written by Peter Selinger 2001-2017
</metadata>
<g transform="translate(0.000000,1280.000000) scale(0.100000,-0.100000)"
fill="#000000" stroke="none">
<path d="M5105 12145 c-223 -50 -360 -173 -409 -366 -24 -96 -22 -293 4 -395
22 -86 75 -183 139 -256 l41 -46 0 -1964 0 -1963 -35 -58 c-19 -32 -35 -62
-35 -68 0 -5 -4 -9 -9 -9 -5 0 -11 -8 -15 -17 -7 -22 -40 -80 -160 -283 -50
-86 -102 -177 -116 -203 -13 -26 -28 -47 -32 -47 -5 0 -8 -4 -8 -10 0 -9 -129
-242 -147 -266 -16 -20 -33 -49 -39 -64 -3 -8 -9 -22 -14 -30 -5 -8 -30 -51
-55 -95 -25 -44 -54 -93 -65 -110 -10 -16 -28 -47 -39 -67 -37 -67 -46 -83
-52 -88 -3 -3 -11 -19 -18 -36 -7 -18 -20 -40 -29 -50 -9 -11 -27 -39 -40 -64
-13 -25 -33 -61 -44 -80 -50 -85 -206 -358 -223 -392 -11 -21 -22 -38 -26 -38
-4 0 -9 -8 -13 -17 -3 -10 -10 -25 -15 -33 -6 -8 -36 -60 -67 -115 -31 -55
-60 -104 -64 -110 -7 -10 -31 -51 -93 -165 -17 -30 -41 -72 -54 -92 -13 -21
-23 -41 -23 -45 0 -3 -6 -14 -14 -22 -13 -16 -38 -58 -100 -171 -16 -30 -32
-57 -36 -60 -4 -3 -10 -12 -14 -20 -8 -17 -19 -36 -89 -160 -26 -47 -57 -98
-67 -115 -11 -16 -24 -39 -30 -50 -5 -11 -14 -27 -19 -35 -27 -42 -111 -193
-111 -198 0 -3 -6 -13 -14 -21 -7 -9 -31 -47 -51 -86 -43 -80 -106 -188 -114
-195 -3 -3 -14 -21 -25 -40 -64 -121 -90 -167 -102 -181 -8 -8 -14 -21 -14
-27 0 -7 -4 -12 -10 -12 -5 0 -10 -5 -10 -10 0 -6 -27 -58 -60 -116 -33 -58
-60 -110 -60 -115 0 -5 -4 -9 -9 -9 -5 0 -11 -8 -15 -17 -3 -10 -15 -31 -25
-48 -11 -16 -35 -58 -53 -92 -18 -35 -36 -63 -40 -63 -5 0 -8 -5 -8 -11 0 -6
-20 -43 -43 -82 -24 -40 -63 -108 -86 -152 -24 -44 -47 -81 -52 -83 -5 -2 -9
-8 -9 -12 0 -5 -29 -58 -64 -118 -35 -60 -67 -119 -71 -131 -3 -11 -10 -21
-15 -21 -4 0 -10 -8 -14 -18 -3 -9 -15 -30 -26 -47 -11 -16 -24 -39 -29 -51
-5 -11 -30 -55 -55 -98 -25 -43 -46 -82 -46 -87 0 -5 -4 -9 -9 -9 -5 0 -13
-10 -17 -22 -4 -13 -18 -40 -31 -60 -13 -21 -37 -64 -54 -95 -17 -32 -34 -60
-38 -63 -3 -3 -15 -23 -26 -45 -11 -22 -25 -47 -31 -55 -11 -15 -47 -77 -88
-155 -39 -73 -48 -116 -43 -205 5 -96 14 -139 34 -158 7 -7 13 -19 13 -25 0
-11 22 -41 62 -84 38 -41 57 -53 113 -80 l60 -28 4705 0 4705 0 60 28 c61 28
175 134 175 162 0 8 6 20 13 27 43 43 48 272 7 333 -4 6 -26 46 -50 90 -23 44
-47 87 -54 95 -6 8 -20 33 -31 55 -11 22 -23 42 -26 45 -4 3 -21 31 -38 63
-17 31 -41 74 -54 95 -13 20 -27 47 -31 60 -4 12 -12 22 -17 22 -5 0 -9 4 -9
9 0 5 -21 44 -46 87 -25 43 -50 87 -55 98 -5 12 -18 35 -29 51 -11 17 -23 38
-26 48 -4 9 -10 17 -14 17 -5 0 -12 10 -15 21 -4 12 -36 71 -71 131 -35 60
-64 113 -64 118 0 4 -4 10 -9 12 -5 2 -28 39 -52 83 -23 44 -62 112 -86 152
-23 39 -43 76 -43 82 0 6 -3 11 -8 11 -4 0 -22 28 -40 63 -18 34 -42 76 -53
92 -10 17 -22 38 -25 47 -4 10 -10 18 -15 18 -5 0 -9 4 -9 9 0 5 -27 57 -60
115 -33 58 -60 110 -60 116 0 5 -4 10 -10 10 -5 0 -10 5 -10 12 0 6 -6 19 -14
27 -12 14 -38 60 -102 181 -11 19 -21 37 -24 40 -11 10 -69 107 -110 185 -23
44 -48 87 -56 96 -8 8 -14 18 -14 21 0 5 -84 156 -111 198 -5 8 -14 24 -19 35
-6 11 -19 34 -30 50 -10 17 -41 68 -67 115 -70 124 -81 143 -89 160 -4 8 -10
17 -14 20 -4 3 -20 30 -36 60 -62 113 -87 155 -100 171 -8 8 -14 19 -14 22 0
4 -10 24 -23 45 -13 20 -37 62 -54 92 -62 114 -86 155 -93 165 -4 6 -33 55
-64 110 -31 55 -61 107 -67 115 -5 8 -12 23 -15 33 -4 9 -9 17 -13 17 -4 0
-15 17 -26 38 -17 34 -173 307 -223 392 -11 19 -31 55 -44 80 -13 25 -31 53
-40 64 -9 10 -22 32 -29 50 -7 17 -15 33 -18 36 -6 5 -15 21 -52 88 -11 20
-29 51 -39 67 -18 28 -101 171 -119 205 -4 8 -13 24 -19 35 -7 11 -15 27 -19
35 -4 8 -15 24 -25 34 -10 11 -18 24 -18 29 0 5 -27 56 -60 113 -33 57 -60
108 -60 114 0 5 -3 10 -7 10 -8 0 -26 28 -72 115 -45 82 -83 149 -94 163 -16
20 -147 254 -147 263 0 4 -3 9 -7 11 -5 2 -18 22 -30 44 l-23 42 0 1994 0
1995 25 29 c43 49 92 136 115 204 30 88 39 340 17 447 -41 191 -162 321 -342
368 -52 13 -219 15 -1330 14 -1023 0 -1282 -3 -1330 -14z m2586 -414 c16 -20
19 -40 19 -137 0 -78 -5 -126 -15 -150 -19 -46 -74 -99 -119 -114 l-36 -12 0
-2159 0 -2160 42 -77 c23 -42 44 -79 48 -82 3 -3 17 -26 30 -52 14 -25 51 -90
83 -144 31 -53 57 -100 57 -104 0 -4 7 -13 15 -20 8 -7 15 -21 15 -31 0 -11 3
-19 8 -19 7 0 21 -23 72 -115 15 -27 37 -66 49 -85 11 -19 24 -42 28 -50 4 -8
28 -49 53 -90 25 -41 56 -95 69 -120 34 -63 43 -80 73 -125 14 -23 38 -63 53
-90 14 -28 35 -63 46 -80 10 -16 22 -36 26 -44 3 -8 34 -62 68 -121 34 -59 65
-113 68 -121 4 -8 18 -32 32 -54 14 -22 28 -47 32 -55 4 -8 33 -59 65 -113 32
-54 58 -100 58 -103 0 -2 15 -27 33 -56 19 -29 44 -74 57 -100 13 -27 27 -48
32 -48 4 0 8 -4 8 -9 0 -7 159 -292 177 -317 9 -11 23 -35 61 -103 13 -25 37
-65 52 -90 14 -26 29 -53 33 -61 4 -8 16 -28 27 -45 11 -16 23 -37 27 -45 3
-8 14 -26 23 -40 10 -14 33 -55 53 -92 50 -92 61 -112 68 -118 5 -5 43 -72
102 -180 17 -30 34 -56 39 -58 4 -2 8 -8 8 -12 0 -5 28 -57 63 -117 35 -59 66
-115 70 -123 4 -8 16 -28 27 -45 10 -16 25 -41 33 -55 46 -84 83 -150 104
-182 12 -21 23 -42 23 -47 0 -5 4 -11 8 -13 5 -1 30 -43 57 -93 26 -49 51 -92
54 -95 3 -3 13 -19 22 -35 9 -17 42 -74 73 -127 31 -53 56 -102 56 -107 0 -6
4 -11 9 -11 5 0 12 -11 15 -25 4 -14 11 -25 16 -25 6 0 10 -7 10 -15 0 -8 5
-15 10 -15 6 0 10 -5 10 -11 0 -9 56 -109 145 -260 14 -24 36 -63 75 -134 18
-33 36 -62 39 -65 3 -3 15 -23 26 -45 11 -22 22 -42 26 -45 5 -5 27 -43 102
-180 16 -30 33 -56 38 -58 5 -2 9 -8 9 -13 0 -4 21 -43 46 -86 25 -43 50 -87
55 -98 5 -11 18 -33 29 -50 11 -16 24 -39 30 -50 5 -11 14 -27 20 -35 30 -45
140 -243 140 -251 0 -5 4 -9 9 -9 5 0 14 -14 21 -30 7 -17 28 -55 46 -85 l33
-55 -4579 0 -4579 0 33 55 c18 30 39 68 46 85 7 16 16 30 21 30 5 0 9 4 9 9 0
8 110 206 140 251 6 8 15 24 20 35 6 11 19 34 30 50 11 17 24 39 29 50 5 11
30 55 55 98 25 43 46 82 46 86 0 5 4 11 9 13 5 2 22 28 38 58 75 137 97 175
102 180 4 3 15 23 26 45 11 22 23 42 26 45 3 3 21 32 39 65 39 71 61 110 75
134 89 151 145 251 145 260 0 6 5 11 10 11 6 0 10 7 10 15 0 8 4 15 10 15 5 0
12 11 16 25 3 14 10 25 15 25 5 0 9 5 9 11 0 5 25 54 56 107 31 53 64 110 73
127 9 16 19 32 22 35 3 3 28 46 54 95 27 50 52 92 57 93 4 2 8 8 8 13 0 5 11
26 23 47 21 32 58 98 104 182 8 14 23 39 33 55 11 17 23 37 27 45 4 8 35 64
70 123 35 60 63 112 63 117 0 4 4 10 8 12 5 1 22 28 39 58 59 108 97 175 102
180 7 6 18 26 68 118 20 37 43 78 53 92 9 14 20 32 23 40 4 8 16 29 27 45 11
17 23 37 27 45 4 8 19 35 33 61 15 25 39 65 52 90 38 68 52 92 61 103 18 25
177 310 177 317 0 5 4 9 8 9 5 0 19 21 32 48 13 26 38 71 57 100 18 29 33 54
33 56 0 3 26 49 58 103 32 54 61 105 65 113 4 8 18 33 32 55 14 22 28 46 32
54 3 8 34 62 68 121 34 59 65 113 68 121 4 8 16 28 26 44 11 17 32 52 46 80
15 27 39 67 53 90 30 45 39 62 73 125 13 25 44 79 69 120 25 41 49 82 53 90 4
8 17 31 28 50 12 19 34 58 49 85 51 92 65 115 73 115 4 0 7 8 7 19 0 10 7 24
15 31 8 7 15 16 15 20 0 5 27 53 59 107 33 54 70 118 83 143 13 25 26 47 29
50 3 3 8 12 12 22 3 9 28 53 56 98 l51 82 0 2138 0 2138 -30 7 c-46 10 -125
78 -149 127 -17 36 -21 63 -21 142 0 89 2 99 24 121 13 13 41 27 62 30 22 4
44 8 49 10 6 2 558 3 1228 2 l1219 -2 19 -24z"/>
<path d="M4715 5328 c-40 -74 -65 -118 -86 -153 -11 -16 -22 -37 -26 -45 -9
-20 -100 -181 -113 -200 -6 -8 -15 -24 -20 -35 -6 -11 -19 -33 -30 -50 -11
-16 -24 -39 -29 -50 -5 -11 -26 -49 -46 -85 -21 -36 -44 -76 -52 -90 -8 -14
-27 -47 -43 -75 -16 -27 -41 -73 -56 -102 -15 -29 -35 -61 -45 -72 -11 -11
-19 -24 -19 -28 0 -5 -26 -53 -58 -109 -32 -55 -64 -114 -71 -132 -7 -18 -17
-32 -22 -32 -5 0 -9 -4 -9 -9 0 -4 -29 -59 -65 -120 -36 -62 -65 -116 -65
-121 0 -5 -6 -15 -12 -22 -20 -21 -37 -50 -49 -80 -6 -16 -15 -28 -20 -28 -5
0 -9 -5 -9 -11 0 -6 -19 -45 -42 -86 -24 -41 -48 -84 -54 -95 -7 -11 -17 -25
-23 -31 -6 -6 -11 -19 -11 -29 0 -10 -4 -18 -8 -18 -5 0 -19 -21 -32 -47 -13
-27 -34 -65 -47 -86 -29 -46 -48 -79 -124 -217 -32 -58 -63 -110 -69 -117 -5
-7 -10 -14 -10 -17 0 -3 -21 -40 -46 -83 -25 -43 -57 -100 -71 -128 -14 -27
-28 -52 -32 -55 -8 -7 -30 -42 -37 -60 -3 -8 -9 -22 -14 -30 -27 -45 -108
-189 -130 -229 -13 -25 -30 -52 -37 -59 -7 -7 -13 -17 -13 -21 0 -8 -77 -145
-122 -216 -14 -22 -47 -82 -73 -133 -27 -50 -53 -92 -57 -92 -4 0 -8 -5 -8
-10 0 -6 -27 -57 -60 -114 -33 -57 -60 -108 -60 -113 0 -5 -8 -18 -18 -29 -10
-10 -31 -45 -47 -77 -16 -32 -33 -60 -37 -63 -4 -3 -8 -9 -8 -15 0 -5 1477 -9
3920 -9 2443 0 3920 4 3920 9 0 6 -4 12 -8 15 -4 3 -21 31 -37 63 -16 32 -37
67 -47 77 -10 11 -18 24 -18 28 0 5 -27 56 -60 115 -33 58 -60 109 -60 114 0
5 -4 9 -8 9 -4 0 -30 42 -56 93 -27 50 -63 115 -81 142 -17 28 -53 91 -80 140
-26 50 -51 92 -54 95 -4 3 -18 26 -31 51 -14 26 -47 84 -73 130 -26 46 -53 93
-59 104 -6 11 -15 27 -20 35 -4 8 -11 22 -15 30 -4 8 -10 17 -13 20 -4 3 -19
28 -33 55 -14 28 -46 85 -71 128 -25 43 -46 80 -46 83 0 3 -5 10 -10 17 -6 7
-37 59 -69 117 -83 150 -102 184 -111 195 -4 6 -22 37 -40 70 -52 95 -70 128
-90 160 -41 65 -100 175 -100 185 0 5 -4 10 -9 10 -5 0 -14 12 -20 28 -12 30
-29 59 -48 80 -7 7 -13 17 -13 22 0 5 -29 59 -65 121 -36 61 -65 116 -65 120
0 5 -3 9 -8 9 -4 0 -13 13 -20 30 -8 16 -40 76 -73 132 -32 57 -59 106 -59
111 0 4 -8 17 -19 28 -10 11 -30 43 -45 72 -15 29 -40 75 -56 102 -16 28 -35
61 -43 75 -8 14 -31 54 -52 90 -20 36 -41 74 -46 85 -5 11 -18 34 -29 50 -11
17 -24 39 -30 50 -5 11 -14 27 -20 35 -13 19 -104 180 -113 200 -4 8 -15 29
-26 45 -21 35 -46 79 -86 153 l-28 52 -1025 -2 -1024 -3 -35 -65 c-19 -36 -41
-72 -49 -81 -8 -8 -14 -18 -14 -21 0 -2 -31 -60 -70 -127 -38 -68 -70 -127
-70 -132 0 -5 -4 -9 -9 -9 -5 0 -11 -8 -15 -17 -3 -10 -10 -25 -15 -33 -6 -8
-34 -58 -62 -110 -29 -52 -58 -102 -64 -110 -13 -16 -53 -86 -95 -165 -26 -50
-60 -105 -70 -115 -3 -3 -14 -23 -25 -45 -11 -22 -38 -71 -60 -110 -22 -38
-47 -82 -54 -97 -8 -16 -18 -28 -23 -28 -4 0 -8 -9 -8 -20 0 -11 -4 -20 -9
-20 -5 0 -12 -9 -16 -20 -3 -11 -42 -81 -86 -156 -43 -75 -79 -140 -79 -145 0
-5 -4 -9 -9 -9 -5 0 -13 -10 -17 -22 -4 -13 -22 -47 -40 -76 -19 -29 -34 -55
-34 -58 0 -2 -26 -48 -58 -102 -32 -53 -72 -123 -87 -154 -16 -32 -33 -58 -37
-58 -4 0 -8 -4 -8 -9 0 -6 -29 -59 -64 -119 -35 -60 -67 -119 -71 -131 -3 -11
-10 -21 -15 -21 -4 0 -10 -8 -14 -17 -3 -10 -15 -31 -26 -48 -11 -16 -24 -39
-29 -51 -9 -20 -93 -166 -111 -194 -6 -8 -13 -22 -17 -30 -3 -8 -20 -37 -38
-65 -17 -27 -37 -64 -44 -81 -7 -18 -20 -40 -29 -51 -9 -10 -26 -36 -37 -58
-10 -22 -24 -47 -31 -55 -6 -8 -26 -44 -45 -80 -18 -36 -48 -88 -66 -117 -18
-29 -33 -54 -33 -56 0 -17 -105 -174 -135 -201 -40 -37 -122 -85 -158 -91 -21
-4 -40 -11 -43 -16 -9 -15 -106 -10 -159 9 -96 33 -169 103 -195 187 -7 22
-17 45 -22 52 -16 20 -7 171 14 226 20 52 74 159 109 212 10 17 23 39 29 50 5
11 14 27 19 35 35 54 111 192 111 200 0 6 4 10 9 10 5 0 13 10 17 23 4 12 18
40 32 62 14 22 39 65 55 95 17 30 33 57 37 60 3 3 15 23 26 45 11 22 32 59 47
82 15 24 27 46 27 49 0 4 23 46 52 93 78 130 158 272 158 282 0 5 4 9 9 9 5 0
11 8 15 18 3 9 10 24 15 32 6 8 36 60 67 115 31 55 60 105 64 110 8 11 43 73
98 175 19 36 42 76 51 90 33 51 41 65 48 80 3 8 14 26 23 40 9 14 34 57 55 95
21 39 41 72 44 75 3 3 16 25 28 50 13 25 47 86 77 135 30 50 65 110 78 135 13
25 27 50 31 55 4 6 28 46 53 90 80 139 85 149 120 206 19 31 34 60 34 63 0 4
16 32 35 62 19 30 35 57 35 59 0 3 11 24 25 46 14 22 30 51 35 64 l10 25 -229
0 -228 0 -28 -52z" fill="#22E622"/>
</g>
</svg>
