<?xml version="1.0" encoding="utf-8"?>
<!-- Generator: Adobe Illustrator 16.0.4, SVG Export Plug-In . SVG Version: 6.00 Build 0)  -->
<!DOCTYPE svg PUBLIC "-//W3C//DTD SVG 1.1//EN" "http://www.w3.org/Graphics/SVG/1.1/DTD/svg11.dtd">
<svg version="1.1" id="Layer_1" xmlns="http://www.w3.org/2000/svg" xmlns:xlink="http://www.w3.org/1999/xlink" x="0px" y="0px"
	 width="512px" height="512px" viewBox="0 0 512 512" enable-background="new 0 0 512 512" xml:space="preserve">
<g fill="#295969">
	<path d="M466.946,274.498c1.781-2.596,1.781-6.02,0.001-8.615c-4.052-5.91-8.991-11.079-14.677-15.364
		c-2.718-2.046-6.458-2.045-9.171,0.003c-8.811,6.648-19.312,10.162-30.368,10.162c-11.061,0-21.556-3.513-30.354-10.16
		c-2.713-2.05-6.458-2.052-9.175-0.005c-5.689,4.287-10.627,9.456-14.677,15.364c-1.779,2.596-1.78,6.018-0.001,8.613
		c12.267,17.9,32.531,28.588,54.207,28.588C434.4,303.084,454.668,292.398,466.946,274.498z M412.731,287.85
		c-14.831,0-28.803-6.516-38.34-17.661c1.212-1.42,2.501-2.769,3.861-4.041c10.338,6.41,22.141,9.771,34.479,9.771
		c12.337,0,24.143-3.36,34.488-9.771c1.359,1.273,2.647,2.621,3.86,4.041C441.534,281.333,427.558,287.85,412.731,287.85z"/>
	<path d="M246.534,412.818c-0.184,3.132,1.573,6.057,4.423,7.366c2.852,1.31,6.214,0.737,8.472-1.442
		c22.883-22.103,53.005-34.275,84.818-34.275c31.812,0,61.935,12.173,84.82,34.275c1.451,1.401,3.358,2.138,5.293,2.138
		c1.075,0,2.159-0.228,3.178-0.696c2.852-1.31,4.607-4.233,4.424-7.366c-3.026-51.641-45.948-92.093-97.715-92.093
		C292.482,320.725,249.562,361.178,246.534,412.818z M423.232,394.197c-22.988-16.212-50.379-24.963-78.984-24.963
		c-28.606,0-55.998,8.751-78.982,24.963c10.453-33.859,42.052-58.236,78.982-58.236C381.18,335.961,412.778,360.338,423.232,394.197
		z"/>
	<path d="M99.25,99.034c-21.67,0-41.938,10.686-54.216,28.585c-1.78,2.596-1.781,6.018-0.002,8.615
		c4.05,5.907,8.988,11.077,14.677,15.363c1.357,1.022,2.971,1.535,4.584,1.535c1.616,0,3.23-0.512,4.588-1.538
		c8.809-6.648,19.311-10.162,30.369-10.162c11.061,0,21.557,3.513,30.353,10.159c2.715,2.052,6.459,2.053,9.176,0.006
		c5.69-4.287,10.628-9.457,14.678-15.365c1.778-2.596,1.778-6.017,0-8.612C141.189,109.72,120.925,99.034,99.25,99.034z
		 M133.729,135.97c-10.336-6.409-22.141-9.77-34.479-9.77c-12.336,0-24.143,3.361-34.489,9.771c-1.36-1.272-2.647-2.621-3.861-4.041
		c9.545-11.147,23.521-17.664,38.35-17.664c14.831,0,28.802,6.516,38.339,17.662C136.376,133.348,135.088,134.696,133.729,135.97z"
		/>
	<path d="M196.689,151.598c1.357,1.022,2.971,1.534,4.584,1.534c1.616,0,3.231-0.512,4.589-1.538
		c8.808-6.648,19.305-10.162,30.356-10.162c11.062,0,21.558,3.513,30.354,10.159c2.714,2.052,6.459,2.053,9.175,0.006
		c5.681-4.28,10.62-9.447,14.683-15.356c1.785-2.597,1.786-6.024,0.004-8.623c-12.278-17.899-32.546-28.585-54.216-28.585
		c-21.664,0-41.926,10.686-54.205,28.585c-1.78,2.596-1.781,6.018-0.002,8.615C186.061,142.141,191,147.312,196.689,151.598z
		 M236.218,114.267c14.827,0,28.8,6.515,38.346,17.66c-1.216,1.421-2.505,2.771-3.865,4.043c-10.337-6.409-22.141-9.77-34.48-9.77
		c-12.331,0-24.134,3.361-34.477,9.771c-1.36-1.272-2.647-2.621-3.861-4.041C207.424,120.783,221.395,114.267,236.218,114.267z"/>
	<path d="M64.647,177.991c-2.255-2.18-5.618-2.752-8.471-1.442c-2.852,1.31-4.607,4.234-4.424,7.367
		c3.593,61.293,54.539,109.307,115.982,109.307c61.444,0,112.39-48.014,115.982-109.307c0.184-3.132-1.573-6.057-4.424-7.367
		c-2.852-1.311-6.216-0.737-8.471,1.442c-27.813,26.862-64.424,41.657-103.088,41.657S92.46,204.853,64.647,177.991z
		 M70.032,202.531c28.105,20.984,62.116,32.351,97.702,32.351c2.938,0,5.863-0.085,8.776-0.239
		c0.011,12.698,0.188,27.616,0.91,42.869c-3.191,0.306-6.419,0.479-9.687,0.479C121.069,277.988,81.373,246.119,70.032,202.531z
		 M192.551,274.893c-0.662-14.901-0.81-29.454-0.808-41.765c26.756-3.927,51.987-14.391,73.693-30.597
		C256.175,238.131,227.993,265.906,192.551,274.893z"/>
	<path d="M511.815,204.765c-0.087-8.973-0.167-17.45-0.167-25.763c0-3.143-1.931-5.964-4.861-7.101
		c-52.021-20.181-106.703-30.414-162.532-30.414c-3.314,0-6.624,0.041-9.91,0.114c1.433-26.432,1.187-52.493,0.955-76.632
		c-0.086-8.974-0.166-17.451-0.166-25.763c0-3.144-1.931-5.965-4.861-7.101C278.252,11.924,223.568,1.691,167.738,1.691
		c-28.222,0-56.579,2.681-84.281,7.968c-4.131,0.789-6.842,4.778-6.054,8.909c0.789,4.132,4.783,6.841,8.909,6.054
		c26.764-5.108,54.159-7.699,81.426-7.699c52.205,0,103.37,9.26,152.172,27.533c0.023,6.696,0.09,13.521,0.156,20.657
		c0.535,56.112,1.142,119.711-18.221,174.067c-21.865,61.378-65.742,99.3-134.107,115.884
		C99.374,338.48,55.498,300.559,33.631,239.18C14.269,184.824,14.874,121.226,15.41,65.113c0.067-7.136,0.133-13.96,0.156-20.656
		c13.018-4.869,26.37-9.148,39.763-12.737c4.063-1.089,6.474-5.266,5.385-9.329c-1.087-4.062-5.264-6.473-9.329-5.384
		c-15.592,4.179-31.128,9.259-46.182,15.098c-2.931,1.137-4.861,3.958-4.861,7.101c0,8.312-0.08,16.788-0.167,25.763
		C-0.892,177.074-2.355,330.606,165.991,370.31c0.575,0.136,1.162,0.203,1.749,0.203c0.587,0,1.173-0.067,1.749-0.203
		c7.057-1.665,13.809-3.533,20.282-5.587c21.299,78.586,71.335,126.185,152.737,145.384c0.574,0.135,1.162,0.203,1.749,0.203
		s1.173-0.068,1.748-0.203c54.241-12.794,95.395-38.957,122.312-77.765c2.397-3.457,1.54-8.203-1.917-10.601
		c-3.456-2.398-8.202-1.539-10.6,1.917c-24.772,35.711-61.27,59.015-111.546,71.203c-41.919-10.162-74.023-27.942-98.099-54.321
		c-19.416-21.272-33.183-47.78-41.977-80.874c35.334-13.662,61.224-33.473,80.167-57.15c18.475-2.408,34.964-12.482,45.624-28.018
		c1.782-2.596,1.782-6.02,0.002-8.617c-4.053-5.91-8.991-11.079-14.677-15.364c-0.388-0.292-0.8-0.53-1.222-0.739
		c11.24-29.301,16.685-61.158,19.249-92.913c3.618-0.093,7.271-0.146,10.932-0.146c52.205,0,103.37,9.26,152.172,27.533
		c0.022,6.696,0.089,13.519,0.156,20.657c0.611,64.007,1.302,136.555-26.862,194.801c-1.832,3.787-0.245,8.341,3.542,10.173
		c1.068,0.518,2.197,0.762,3.31,0.762c2.83,0,5.549-1.584,6.863-4.303C513.15,344.887,512.44,270.443,511.815,204.765z
		 M310.239,266.143c1.361,1.274,2.651,2.624,3.867,4.047c-4.468,5.23-9.892,9.43-15.933,12.424c2.748-4.57,5.301-9.243,7.664-14.007
		C307.333,267.834,308.811,267.025,310.239,266.143z"/>
</g>
</svg>
