<?xml version="1.0" standalone="no"?>
<!DOCTYPE svg PUBLIC "-//W3C//DTD SVG 20010904//EN"
 "http://www.w3.org/TR/2001/REC-SVG-20010904/DTD/svg10.dtd">
<svg version="1.0" xmlns="http://www.w3.org/2000/svg"
 width="1276.000000pt" height="1280.000000pt" viewBox="0 0 1276.000000 1280.000000"
 preserveAspectRatio="xMidYMid meet">
<metadata>
Created by potrace 1.15, written by Peter Selinger 2001-2017
</metadata>
<g transform="translate(0.000000,1280.000000) scale(0.100000,-0.100000)"
fill="#E3E3E3" stroke="none">
<path d="M6085 12793 c-780 -45 -1421 -185 -2085 -453 -1172 -474 -2173 -1282
-2892 -2335 -545 -798 -906 -1728 -1043 -2689 -48 -338 -59 -519 -59 -921 0
-396 11 -567 60 -905 262 -1846 1318 -3487 2892 -4493 878 -561 1843 -885
2922 -979 218 -19 821 -16 1045 5 438 42 832 116 1215 227 1708 494 3133 1684
3930 3280 224 450 349 786 495 1340 145 548 189 888 189 1460 1 415 -22 698
-90 1105 -226 1363 -858 2582 -1836 3540 -774 760 -1678 1286 -2723 1585 -548
157 -744 190 -1390 230 -137 9 -508 11 -630 3z m522 -43 l63 0 -51 -96 c-51
-95 -52 -96 -62 -225 -6 -76 -6 -134 -1 -139 10 -10 176 -61 181 -56 2 2 11
42 20 89 16 81 20 90 64 133 l47 46 319 -142 c175 -79 365 -166 423 -195 l105
-52 263 21 262 22 73 72 c40 40 75 72 79 72 3 0 174 -81 380 -180 l373 -180
168 0 169 0 96 -57 c296 -173 640 -420 922 -662 113 -97 322 -293 317 -297 -2
-2 -79 25 -173 60 -408 152 -682 286 -817 398 l-48 40 -371 29 -372 30 -83
-83 c-46 -45 -83 -89 -83 -98 1 -8 18 -55 39 -105 l38 -90 71 -3 c40 -2 72 -6
73 -10 0 -4 6 -63 13 -132 7 -69 12 -126 12 -127 -1 -1 -55 30 -120 69 -93 55
-120 68 -127 57 -5 -8 -41 -72 -81 -142 -63 -112 -75 -127 -93 -122 -11 4 -47
9 -80 12 -33 2 -69 8 -80 13 -11 5 -31 10 -45 12 -18 2 -30 14 -43 41 -20 41
-27 42 -108 27 -36 -7 -63 -20 -84 -40 l-30 -29 -45 34 c-43 33 -49 35 -128
35 -89 0 -84 3 -106 -67 -6 -19 -2 -22 44 -28 l50 -7 -45 -56 c-41 -53 -43
-58 -30 -79 21 -31 20 -33 -23 -33 -49 0 -171 31 -256 65 -74 30 -154 34 -206
12 -42 -17 -103 -76 -234 -225 l-99 -114 79 -79 79 -79 57 0 c32 0 92 -10 133
-22 64 -19 76 -26 84 -50 11 -32 24 -33 204 -21 l98 6 117 93 c123 99 123 99
283 126 65 11 66 11 173 -32 98 -39 112 -42 164 -36 154 18 175 19 168 8 -10
-16 21 -82 80 -172 27 -41 72 -130 100 -196 29 -67 75 -155 102 -197 45 -66
52 -83 59 -148 8 -71 9 -74 33 -72 14 2 80 -2 148 -8 68 -6 125 -9 128 -6 3 2
-12 31 -32 63 -27 44 -55 71 -110 108 -61 42 -75 57 -90 95 -9 25 -48 126 -86
224 -39 98 -68 180 -66 181 1 2 23 11 48 20 52 20 51 21 100 -74 16 -30 51
-89 79 -129 49 -74 52 -76 168 -135 l118 -61 5 -86 c8 -130 24 -150 170 -204
l115 -42 85 45 c121 64 122 65 149 115 l25 45 -42 56 -43 56 109 0 110 0 85
-93 c83 -90 88 -94 231 -165 118 -58 146 -76 142 -90 -2 -9 -7 -44 -11 -76
l-7 -59 88 -88 88 -89 -34 -35 c-19 -19 -37 -35 -42 -35 -23 0 -402 177 -515
241 l-132 74 -223 -12 c-123 -7 -242 -15 -264 -18 l-41 -6 4 -92 c2 -51 6
-102 8 -113 3 -15 56 -55 168 -128 132 -86 197 -120 340 -180 154 -64 447
-221 463 -247 3 -5 0 -55 -6 -111 -11 -94 -17 -112 -64 -200 -28 -54 -54 -98
-59 -98 -4 0 -43 24 -87 53 -55 37 -134 110 -262 243 l-183 189 -51 1 c-49 0
-55 3 -207 123 l-157 122 -72 -3 -72 -3 -21 -85 -21 -85 -35 3 c-64 6 -69 10
-70 55 0 23 -3 50 -7 59 -4 9 -135 112 -292 228 -157 116 -284 214 -283 216 0
3 30 38 66 78 63 70 68 74 146 96 45 12 81 26 81 30 0 3 -21 38 -48 76 l-47
69 -54 3 c-49 3 -65 11 -172 85 l-119 81 -115 -28 -115 -28 -72 58 c-39 33
-106 88 -147 122 l-76 64 -97 -6 c-147 -8 -290 14 -423 64 l-110 42 -135 -12
-135 -12 -145 -102 -145 -102 -135 -23 c-123 -20 -141 -26 -205 -66 -38 -24
-104 -53 -145 -65 -70 -20 -77 -25 -115 -76 l-40 -55 -126 6 -125 6 -135 -121
c-86 -78 -136 -131 -141 -148 -4 -15 -23 -99 -44 -188 l-37 -160 -132 -140
c-128 -135 -132 -141 -148 -206 -10 -39 -17 -107 -17 -162 0 -91 2 -101 50
-221 64 -161 146 -325 328 -658 l147 -267 57 -35 c54 -32 67 -35 166 -41 l107
-7 138 -109 c97 -75 147 -108 165 -108 15 0 117 -7 227 -15 110 -8 205 -15
210 -15 6 0 26 -25 45 -56 l34 -56 52 7 52 6 92 -107 93 -106 41 5 c23 3 59 9
82 12 l40 7 26 -179 25 -178 -63 -89 c-35 -49 -97 -118 -137 -153 l-74 -64 29
-167 c15 -93 39 -302 52 -470 25 -302 25 -302 5 -372 -38 -137 -38 -137 -169
-224 l-119 -79 -143 -426 -142 -426 44 -217 44 -217 -28 -187 -28 -188 -88
-115 -88 -116 -7 -114 c-5 -77 -15 -137 -30 -182 l-23 -67 88 -26 88 -26 100
45 99 45 124 0 124 0 208 -67 209 -67 131 66 c73 37 230 125 349 196 l217 129
107 11 c59 7 111 17 115 23 3 6 12 84 20 172 l13 161 57 66 58 67 98 12 c157
20 163 22 262 105 l92 76 78 0 78 0 279 250 c314 282 288 245 319 450 9 58 26
153 39 212 23 106 24 108 131 266 l107 159 67 7 c36 3 83 6 105 6 24 0 81 19
155 51 98 44 150 77 341 217 l226 165 74 126 c133 227 180 309 180 318 0 5
-34 21 -75 36 l-75 26 -38 -40 -37 -40 -93 75 c-117 95 -111 91 -120 65 -6
-14 -12 21 -20 111 -8 88 -9 138 -2 150 23 44 12 74 -53 142 -73 75 -113 151
-182 338 -43 116 -47 137 -61 291 -12 138 -12 177 -1 230 8 43 11 99 6 169 -6
109 -2 444 7 516 l5 41 75 -17 c41 -10 78 -21 81 -24 4 -4 -4 -109 -18 -234
l-25 -227 48 -104 48 -103 0 -177 c0 -268 18 -395 80 -579 l52 -152 121 -153
c66 -83 121 -154 123 -155 1 -2 27 15 57 37 53 41 54 41 143 41 l89 1 285 315
285 315 17 82 c9 45 17 89 18 98 0 18 -61 105 -203 289 -104 134 -110 137
-193 77 -30 -21 -58 -36 -62 -33 -3 4 -11 47 -18 97 -10 75 -20 103 -56 167
-36 63 -48 76 -65 74 -15 -2 -28 6 -39 23 -14 21 -15 40 -10 113 4 48 13 114
19 146 12 59 12 60 75 94 35 19 64 33 66 31 10 -14 110 -299 128 -368 l23 -84
135 -116 c74 -64 207 -185 295 -270 l159 -154 44 -141 c25 -77 59 -211 76
-296 l32 -155 69 -27 70 -26 -3 -199 c-2 -109 -15 -373 -28 -587 -14 -214 -24
-390 -22 -391 2 -1 22 -12 46 -24 23 -12 42 -26 42 -31 0 -31 -108 -393 -166
-556 -243 -687 -588 -1306 -1041 -1872 -939 -1172 -2269 -1974 -3738 -2256
-399 -76 -750 -108 -1190 -108 -460 0 -817 34 -1231 117 l-162 32 -95 99 c-52
55 -105 112 -118 127 -25 29 -40 34 -1434 469 l-260 81 -170 112 c-727 478
-1338 1090 -1818 1821 l-106 161 -52 368 c-51 367 -52 368 -89 434 -21 36 -50
109 -66 160 l-28 94 17 136 c12 99 21 139 33 146 8 6 43 28 77 50 l61 40 -2
55 c-1 30 -5 105 -8 165 l-5 110 105 77 106 78 0 107 0 108 241 315 c132 173
244 319 249 324 6 6 46 -2 102 -19 l93 -27 39 44 c25 27 141 231 301 528 l261
484 144 29 144 29 41 46 c80 91 77 84 65 157 -9 53 -28 100 -98 230 l-87 162
-120 75 -120 75 -3 185 -2 184 -178 95 -177 94 2 244 3 244 40 74 41 74 -40
66 c-38 63 -46 70 -148 127 l-108 61 -24 105 -24 105 17 182 c10 100 14 188 9
196 -12 20 -224 297 -227 297 -2 0 -72 -27 -155 -60 -148 -58 -155 -60 -247
-60 -52 0 -94 2 -94 5 0 11 141 215 242 350 332 445 743 865 1177 1203 185
144 174 139 301 141 85 2 151 -5 290 -30 l181 -32 37 36 c22 21 47 62 60 97
18 46 43 81 101 142 l77 81 83 5 c72 4 91 9 139 38 66 40 192 90 259 103 27 6
181 20 343 32 l295 21 31 30 c17 16 53 56 80 89 48 58 50 59 99 59 69 -1 194
-18 227 -31 15 -6 29 -22 33 -37 3 -14 16 -39 27 -55 16 -22 19 -39 16 -77 -5
-44 -3 -48 12 -40 10 5 62 56 115 112 87 93 105 119 184 268 l88 165 69 7 c38
4 103 10 145 13 l76 6 46 82 47 82 -43 6 -42 6 50 3 c208 12 399 17 505 14 69
-2 153 -4 187 -4z m-6384 -5503 c37 -149 87 -376 111 -503 l44 -231 -8 -219
-8 -219 94 -171 c52 -93 94 -175 94 -182 0 -6 -21 -85 -46 -174 l-46 -163 -11
-300 -10 -301 61 -174 c64 -181 87 -284 156 -696 l32 -192 60 -98 c45 -74 74
-140 120 -276 34 -99 58 -176 53 -171 -14 15 -137 240 -207 380 -346 692 -555
1420 -637 2218 -43 416 -37 982 15 1400 23 178 51 345 59 345 3 0 37 -123 74
-273z"/>
<path d="M8225 11360 l10 -130 -85 -97 c-59 -67 -95 -118 -113 -162 -15 -35
-26 -65 -24 -67 4 -5 461 17 466 22 7 6 -39 152 -79 254 -21 52 -43 131 -50
175 -7 44 -16 86 -20 94 -7 13 -78 40 -105 41 -7 0 -7 -42 0 -130z"/>
<path d="M9968 3259 l-137 -110 -163 -11 -163 -11 -87 -66 c-85 -64 -88 -68
-118 -146 -30 -77 -36 -84 -136 -173 -106 -95 -138 -112 -206 -112 -42 0 -45
-5 -22 -38 15 -21 13 -25 -45 -90 l-61 -67 0 -82 c0 -83 0 -83 26 -83 33 0
335 30 350 35 6 2 139 146 295 320 156 175 302 338 324 362 37 41 46 45 110
55 69 11 71 11 153 92 45 44 82 85 82 91 0 17 -51 145 -58 145 -4 -1 -69 -50
-144 -111z"/>
</g>
</svg>
