<?xml version="1.0" encoding="UTF-8" standalone="no"?>
<!-- Created with Inkscape (http://www.inkscape.org/) -->

<svg
   xmlns:dc="http://purl.org/dc/elements/1.1/"
   xmlns:cc="http://creativecommons.org/ns#"
   xmlns:rdf="http://www.w3.org/1999/02/22-rdf-syntax-ns#"
   xmlns:svg="http://www.w3.org/2000/svg"
   xmlns="http://www.w3.org/2000/svg"
   version="1.1"
   width="44.9575"
   height="27.852501"
   id="svg25766">
  <defs
     id="defs25768" />
  <metadata
     id="metadata25771">
    <rdf:RDF>
      <cc:Work
         rdf:about="">
        <dc:format>image/svg+xml</dc:format>
        <dc:type
           rdf:resource="http://purl.org/dc/dcmitype/StillImage" />
        <dc:title></dc:title>
      </cc:Work>
    </rdf:RDF>
  </metadata>
  <g
     transform="translate(-352.52125,-518.43593)"
     id="layer1">
    <g
       transform="matrix(1.25,0,0,-1.25,392.5375,540.90218)"
       id="g14462">
      <path
         d="m 0,0 0.188,-0.346 0.191,-0.306 0.203,-0.323 0.189,-0.308 0.225,-0.285 0.213,-0.284 0.215,-0.296 0.237,-0.262 0.226,-0.262 0.259,-0.262 0.262,-0.248 0.274,-0.238 0.297,-0.213 0.308,-0.226 0.32,-0.19 0.346,-0.189 -0.12,-0.026 -0.095,-0.021 -0.107,0 -0.094,-0.014 -0.097,-0.01 -0.093,0 -0.095,0.01 -0.095,0.014 -0.083,0.012 -0.095,0.023 -0.084,0.012 -0.082,0.037 -0.084,0.01 -0.083,0.037 -0.083,0.035 -0.083,0.035 -0.13,0.061 -0.143,0.068 -0.143,0.084 -0.142,0.084 -0.142,0.096 -0.155,0.093 -0.154,0.096 -0.155,0.096 -0.154,0.093 -0.166,0.096 -0.166,0.096 -0.166,0.094 -0.166,0.084 -0.178,0.082 -0.168,0.058 -0.164,0.071 -0.155,0.048 -0.153,0.036 -0.155,0.023 -0.142,0.035 -0.155,0.014 -0.154,0 -0.154,0.012 -0.155,-0.012 -0.154,0 L -1.545,-2.59 -1.71,-2.613 -1.863,-2.637 -2.02,-2.66 -2.185,-2.684 -2.351,-2.719 -2.517,-2.754 -2.684,-2.803 -2.85,-2.838 -3.016,-2.885 -3.193,-2.92 -3.359,-2.969 -3.537,-3.016 -3.716,-3.063 -3.895,-3.111 -4.072,-3.158 -4.262,-3.205 -4.439,-3.242 -4.63,-3.301 -4.82,-3.336 -5.01,-3.383 -5.224,-3.42 -5.412,-3.455 -5.709,-3.502 -6.006,-3.574 -6.279,-3.633 -6.541,-3.691 -6.803,-3.764 -7.051,-3.822 -7.288,-3.883 -7.515,-3.93 l -0.213,-0.047 -0.213,-0.037 -0.202,-0.021 -0.202,-0.014 -0.189,0.014 -0.191,0.012 -0.166,0.046 -0.19,0.047 -0.083,0.047 -0.047,0.061 -0.013,0.072 0.037,0.082 0.06,0.07 0.082,0.096 0.095,0.082 0.106,0.096 0.119,0.095 0.119,0.108 0.119,0.105 0.095,0.096 0.083,0.094 0.047,0.107 0.012,0.094 0,0.096 -0.035,0.084 -0.06,0.07 -0.083,0.061 -0.083,0.046 -0.119,0.047 -0.118,0.026 -0.119,0.023 -0.142,0.01 -0.132,0.014 -0.141,0 -0.142,0 -0.131,0 -0.132,-0.014 -0.118,-0.024 -0.118,-0.009 -0.096,-0.026 -0.141,-0.047 -0.167,-0.046 -0.167,-0.047 -0.142,-0.061 -0.155,-0.072 -0.153,-0.07 -0.143,-0.073 -0.142,-0.082 -0.143,-0.084 -0.154,-0.082 -0.142,-0.084 -0.143,-0.082 -0.143,-0.084 -0.142,-0.082 -0.142,-0.096 -0.141,-0.083 -0.143,-0.083 -0.144,-0.084 -0.142,-0.083 -0.154,-0.083 -0.142,-0.07 -0.144,-0.072 -0.141,-0.072 -0.155,-0.057 -0.143,-0.061 -0.154,-0.058 -0.166,-0.035 -0.142,-0.047 -0.154,-0.037 -0.167,-0.026 -0.165,-0.021 -0.155,0 -0.203,0.012 -0.189,0.035 -0.177,0.07 -0.179,0.084 -0.166,0.107 -0.166,0.106 -0.166,0.131 -0.155,0.142 -0.166,0.143 -0.154,0.142 -0.167,0.131 -0.166,0.131 -0.177,0.117 -0.154,0.096 -0.191,0.096 -0.19,0.07 -0.154,0.035 -0.142,0.024 -0.143,0.023 -0.13,0.014 -0.119,0 -0.107,-0.014 -0.119,0 -0.106,-0.023 -0.119,-0.024 -0.106,-0.011 -0.119,-0.024 -0.119,-0.023 -0.131,-0.012 -0.131,-0.025 -0.154,0 -0.166,-0.01 -0.191,0 -0.212,0.01 -0.203,0.013 -0.225,0.024 -0.225,0.023 -0.227,0.024 -0.224,0.035 -0.237,0.023 -0.226,0.026 -0.238,0.011 -0.225,0.024 -0.225,0 -0.215,0 -0.213,-0.012 -0.201,-0.023 -0.192,-0.026 -0.189,-0.058 -0.19,-0.047 -0.201,-0.059 -0.178,-0.084 -0.202,-0.058 -0.19,-0.084 -0.19,-0.083 -0.189,-0.083 -0.191,-0.096 -0.189,-0.082 -0.19,-0.096 -0.202,-0.072 -0.179,-0.082 -0.189,-0.072 -0.202,-0.069 -0.178,-0.06 -0.12,-0.024 -0.129,-0.037 -0.119,-0.023 -0.131,-0.012 -0.118,-0.012 -0.131,-0.01 -0.13,-0.013 -0.131,0 -0.131,0 -0.13,0 -0.13,0 -0.12,0.013 -0.142,0 -0.119,0.01 -0.131,0 -0.118,0 -3.834,21.856 0.071,-0.037 0.072,-0.024 0.07,-0.045 0.085,-0.037 0.07,-0.035 0.072,-0.047 0.071,-0.037 0.071,-0.035 0.071,-0.047 0.071,-0.035 0.071,-0.037 0.083,-0.036 0.072,-0.023 0.071,-0.035 0.082,-0.024 0.073,-0.013 0.141,-0.024 0.143,-0.009 0.143,-0.014 0.142,0 0.131,0 0.142,0.014 0.142,0.009 0.131,0.014 0.142,0.01 0.131,0 0.142,0.013 0.143,0 0.131,-0.013 0.142,0 0.142,-0.024 0.155,-0.035 0.273,-0.084 0.273,-0.082 0.273,-0.105 0.26,-0.108 0.251,-0.119 0.26,-0.119 0.261,-0.131 0.25,-0.119 0.261,-0.119 0.249,-0.129 0.25,-0.107 0.26,-0.12 0.274,-0.093 0.273,-0.096 0.26,-0.084 0.297,-0.07 0.167,-0.012 0.201,-0.035 0.202,-0.012 0.214,-0.012 0.236,0 0.226,0.012 0.238,0.012 0.225,0.011 0.25,0.024 0.225,0.012 0.226,0.035 0.225,0.023 0.202,0.026 0.202,0.035 0.177,0.023 0.167,0.024 0.285,0.06 0.273,0.059 0.238,0.047 0.213,0.06 0.213,0.047 0.191,0.049 0.166,0.045 0.178,0.049 0.166,0.035 0.154,0.047 0.167,0.035 0.166,0.037 0.166,0.023 0.179,0.024 0.189,0.023 0.213,0.026 0.084,0 0.094,-0.014 0.095,-0.021 0.083,-0.038 0.096,-0.046 0.083,-0.036 0.083,-0.06 0.083,-0.047 0.082,-0.059 0.096,-0.06 0.083,-0.059 0.083,-0.06 0.095,-0.047 0.083,-0.047 0.095,-0.037 0.094,-0.035 0.072,-0.012 0.083,-0.023 0.084,-0.012 0.083,-0.024 0.082,-0.011 0.084,-0.014 0.082,0 0.083,-0.012 0.096,-0.01 0.083,0 0.083,-0.025 0.095,0 0.072,-0.023 0.082,-0.012 0.084,-0.012 0.082,-0.023 0.094,-0.024 0.097,-0.035 0.094,-0.037 0.083,-0.035 0.095,-0.035 0.083,-0.037 0.096,-0.036 0.094,-0.048 0.083,-0.034 0.083,-0.037 0.095,-0.023 0.083,-0.024 0.107,-0.023 0.095,-0.023 0.095,0 0.095,-0.012 0.178,0 0.178,0.012 0.19,0.035 0.178,0.025 0.178,0.033 0.191,0.061 0.177,0.035 0.178,0.059 0.179,0.048 0.177,0.059 0.178,0.047 0.178,0.049 0.191,0.035 0.177,0.047 0.178,0.023 0.19,0.026 0.118,0 0.132,0.011 0.142,0 0.119,0 0.13,-0.011 0.13,0 0.119,-0.014 0.131,-0.022 0.131,-0.025 0.118,-0.023 0.131,-0.012 0.119,-0.035 0.13,-0.024 0.131,-0.035 0.118,-0.049 0.131,-0.023 0.095,-0.035 0.095,-0.024 0.095,-0.037 0.095,-0.035 0.094,-0.025 0.096,-0.034 0.095,-0.048 0.094,-0.036 0.096,-0.046 0.095,-0.061 0.083,-0.033 0.083,-0.063 0.083,-0.058 0.071,-0.071 0.06,-0.07 0.071,-0.084 0.119,-0.215 0.094,-0.236 0.071,-0.25 0.06,-0.26 0.047,-0.262 0.084,-0.238 0.093,-0.236 0.12,-0.227 0.071,-0.093 0.084,-0.108 0.084,-0.107 0.082,-0.082 0.084,-0.096 0.093,-0.096 0.096,-0.082 0.094,-0.095 0.096,-0.084 0.107,-0.071 0.105,-0.07 0.108,-0.07 0.118,-0.075 0.108,-0.056 0.106,-0.049 0.119,-0.047 0.071,-0.025 0.071,-0.024 0.073,-0.011 0.082,-0.012 0.082,-0.012 0.084,-0.012 0.095,-0.011 0.094,0 0.096,-0.012 0.082,0 0.096,0.012 0.083,0 0.083,0 0.082,0.023 0.072,0.012 0.07,0.012 L -3.811,10.896 -3.895,10.328 -4.013,9.746 -4.107,9.164 -4.238,8.596 -4.333,8.014 -4.428,7.443 -4.5,6.861 -4.487,6.684 -4.428,6.492 -4.357,6.279 -4.262,6.078 -4.154,5.875 -4.036,5.697 -3.917,5.555 -3.775,5.461 -3.608,5.377 -3.443,5.283 -3.277,5.176 -3.109,5.07 -2.957,4.949 -2.802,4.83 -2.646,4.701 -2.48,4.57 -2.326,4.428 -2.185,4.273 -2.042,4.107 -1.912,3.965 -1.77,3.787 -1.639,3.621 -1.52,3.443 -1.4,3.252 -1.294,3.074 -1.199,2.885 -1.105,2.695 -1.009,2.492 -0.915,2.291 -0.831,2.078 -0.736,1.863 -0.654,1.66 -0.57,1.436 -0.499,1.223 -0.416,1.01 -0.332,0.795 -0.25,0.58 -0.167,0.381 -0.084,0.189 0,0 z"
         id="path14464"
         style="fill:#ecf3f3;fill-opacity:1;fill-rule:evenodd;stroke:none" />
    </g>
    <g
       transform="matrix(1.25,0,0,-1.25,371.8985,521.07558)"
       id="g14466">
      <path
         d="M 0,0 0.107,-0.025 0.191,-0.037 0.285,-0.062 0.379,-0.084 0.475,-0.096 0.558,-0.109 0.653,-0.121 0.748,-0.146 0.843,-0.168 0.938,-0.18 1.033,-0.191 1.128,-0.215 1.223,-0.227 1.306,-0.25 1.401,-0.264 1.496,-0.275 1.579,-0.607 1.638,-0.951 1.697,-1.295 1.745,-1.627 1.828,-1.961 1.923,-2.281 2.054,-2.578 2.244,-2.852 2.434,-3.076 2.658,-3.266 2.884,-3.457 3.122,-3.635 3.359,-3.801 3.621,-3.967 3.87,-4.121 4.132,-4.275 4.38,-4.43 4.653,-4.596 4.902,-4.75 5.151,-4.916 5.389,-5.094 5.614,-5.283 5.84,-5.475 6.042,-5.689 6.161,-5.83 6.268,-5.973 6.362,-6.127 6.458,-6.271 6.54,-6.437 6.611,-6.602 6.695,-6.771 6.754,-6.947 6.813,-7.123 6.884,-7.291 6.932,-7.469 6.979,-7.648 7.027,-7.824 7.074,-8.004 7.122,-8.193 7.157,-8.371 7.169,-8.514 7.146,-8.668 7.097,-8.812 7.039,-8.965 6.979,-9.119 6.944,-9.262 6.92,-9.404 l 0.036,-0.141 0.048,-0.119 0.047,-0.143 0.046,-0.131 0.06,-0.142 0.072,-0.154 0.071,-0.143 0.071,-0.144 0.083,-0.141 0.071,-0.119 0.096,-0.106 0.07,-0.095 0.095,-0.073 0.095,-0.047 0.096,-0.011 0.106,0.011 0.096,0.047 0.141,0.18 0.025,0.213 -0.049,0.236 -0.106,0.287 -0.143,0.284 -0.142,0.285 -0.106,0.285 -0.049,0.271 0,0.133 0.013,0.166 0.036,0.166 0.047,0.178 0.048,0.131 0.059,0.094 0.047,0.035 0.06,-0.047 0.142,-0.238 0.094,-0.25 0.072,-0.27 0.048,-0.273 0.046,-0.286 0.049,-0.273 0.059,-0.285 0.083,-0.26 0.083,-0.18 0.108,-0.166 0.094,-0.166 0.118,-0.152 0.108,-0.168 0.107,-0.166 0.105,-0.168 0.072,-0.176 0.058,-0.166 0.05,-0.168 0.034,-0.177 0.024,-0.178 0.048,-0.178 0.024,-0.18 0.035,-0.177 0.059,-0.164 0.059,-0.178 0.061,-0.168 0.07,-0.166 0.072,-0.164 0.059,-0.168 0.084,-0.166 0.07,-0.155 0.084,-0.177 0.071,-0.166 0.072,-0.157 0.07,-0.164 0.083,-0.179 0.06,-0.166 0.071,-0.166 0.07,-0.166 0.06,-0.178 0.059,-0.143 0.06,-0.164 0.06,-0.156 0.058,-0.166 0.049,-0.154 0.034,-0.166 0.012,-0.168 -0.012,-0.166 -0.047,-0.211 -0.07,-0.203 -0.096,-0.203 -0.094,-0.19 -0.119,-0.213 -0.107,-0.179 -0.107,-0.202 -0.108,-0.203 0.049,0.25 0.095,0.262 0.106,0.285 0.108,0.272 0.07,0.263 0.013,0.213 -0.073,0.166 -0.153,0.108 -0.191,0 -0.153,-0.108 -0.119,-0.18 -0.095,-0.246 -0.083,-0.287 -0.084,-0.283 -0.082,-0.273 -0.096,-0.227 -0.13,-0.107 -0.118,-0.094 -0.119,-0.108 -0.12,-0.093 -0.129,-0.096 -0.108,-0.105 -0.131,-0.096 -0.106,-0.109 0.119,0.31 0.142,0.297 0.143,0.32 0.13,0.297 0.143,0.309 0.118,0.308 0.119,0.309 0.095,0.308 0.059,0.239 0.071,0.236 0.048,0.25 0.036,0.236 0.024,0.25 0.012,0.25 0,0.237 -0.036,0.238 -0.036,0.178 -0.059,0.226 -0.082,0.237 -0.096,0.214 -0.107,0.188 -0.106,0.109 -0.108,0.047 -0.095,-0.07 -0.166,-0.346 -0.083,-0.379 -0.024,-0.404 0.024,-0.428 0.036,-0.427 0.024,-0.428 0,-0.414 -0.024,-0.393 -0.06,-0.201 -0.082,-0.203 -0.084,-0.19 -0.095,-0.177 -0.107,-0.178 -0.094,-0.191 -0.073,-0.2 -0.046,-0.215 -0.037,0.249 0.013,0.24 0.036,0.269 0.059,0.262 0.071,0.262 0.036,0.26 0.012,0.263 -0.036,0.225 -0.047,0.142 -0.072,0.143 -0.072,0.143 -0.094,0.13 -0.096,0.131 -0.093,0.129 -0.107,0.131 -0.107,0.131 -0.108,0.131 -0.107,0.119 -0.094,0.141 -0.095,0.132 -0.095,0.131 -0.082,0.131 -0.06,0.143 -0.06,0.14 -0.071,0.239 -0.083,0.238 -0.083,0.234 -0.083,0.24 -0.083,0.237 -0.084,0.224 -0.082,0.239 -0.084,0.236 -0.082,0.238 -0.084,0.239 -0.071,0.236 -0.083,0.25 -0.072,0.223 -0.058,0.24 -0.072,0.26 -0.047,0.226 -0.048,0.309 0,0.308 0.012,0.309 0.024,0.297 0.012,0.31 0,0.295 -0.036,0.299 -0.071,0.283 -0.06,0.143 L 5.804,-7.779 5.733,-7.658 5.65,-7.527 5.555,-7.41 5.46,-7.291 5.354,-7.187 5.247,-7.076 5.139,-6.969 5.032,-6.863 4.926,-6.744 4.819,-6.639 4.712,-6.529 4.617,-6.412 4.534,-6.293 4.439,-6.162 4.321,-5.961 4.214,-5.736 4.119,-5.51 4.024,-5.283 3.929,-5.047 3.81,-4.834 3.68,-4.631 3.538,-4.453 3.407,-4.334 3.252,-4.227 3.109,-4.133 2.956,-4.039 2.79,-3.955 2.624,-3.885 2.458,-3.813 2.303,-3.729 2.137,-3.658 1.971,-3.588 1.804,-3.504 1.662,-3.408 1.508,-3.313 1.377,-3.209 1.246,-3.088 1.128,-2.959 1.021,-2.803 0.914,-2.637 0.819,-2.471 0.736,-2.281 0.653,-2.104 0.583,-1.912 0.522,-1.734 0.463,-1.533 0.404,-1.344 0.356,-1.152 0.297,-0.963 0.25,-0.762 0.191,-0.572 0.13,-0.381 0.071,-0.191 0,-0.014 0,0 z"
         id="path14468"
         style="fill:#c4cbcb;fill-opacity:1;fill-rule:evenodd;stroke:none" />
    </g>
    <g
       transform="matrix(1.25,0,0,-1.25,392.5375,540.90218)"
       id="g14470">
      <path
         d="m 0,0 0.188,-0.346 0.191,-0.306 0.203,-0.323 0.189,-0.308 0.225,-0.285 0.213,-0.284 0.215,-0.296 0.237,-0.262 0.226,-0.262 0.259,-0.262 0.262,-0.248 0.274,-0.238 0.297,-0.213 0.308,-0.226 0.32,-0.19 0.346,-0.189 -0.12,-0.026 -0.095,-0.021 -0.107,0 -0.094,-0.014 -0.097,-0.01 -0.093,0 -0.095,0.01 -0.095,0.014 -0.083,0.012 -0.095,0.023 -0.084,0.012 -0.082,0.037 -0.084,0.01 -0.083,0.037 -0.083,0.035 -0.083,0.035 -0.13,0.061 -0.143,0.068 -0.143,0.084 -0.142,0.084 -0.142,0.096 -0.155,0.093 -0.154,0.096 -0.155,0.096 -0.154,0.093 -0.166,0.096 -0.166,0.096 -0.166,0.094 -0.166,0.084 -0.178,0.082 -0.168,0.058 -0.164,0.071 -0.155,0.048 -0.153,0.036 -0.155,0.023 -0.142,0.035 -0.155,0.014 -0.154,0 -0.154,0.012 -0.155,0 L -1.389,-2.576 -1.545,-2.59 -1.71,-2.613 -1.863,-2.637 -2.029,-2.66 -2.185,-2.684 -2.351,-2.719 -2.517,-2.754 -2.684,-2.791 -2.85,-2.838 -3.027,-2.873 -3.193,-2.92 -3.372,-2.957 -3.537,-3.004 -3.729,-3.051 -3.906,-3.1 -4.084,-3.146 -4.262,-3.193 -4.463,-3.242 -4.653,-3.289 -4.83,-3.324 -5.033,-3.373 -5.235,-3.42 l -0.191,-0.035 0,0.57 -0.047,0.524 -0.084,0.484 -0.118,0.463 -0.141,0.439 -0.178,0.416 -0.192,0.407 -0.212,0.379 -0.226,0.378 -0.227,0.379 -0.235,0.368 -0.239,0.369 -0.225,0.369 -0.225,0.379 -0.214,0.392 -0.19,0.403 -0.178,0.416 -0.166,0.404 -0.166,0.414 -0.155,0.406 -0.142,0.403 -0.141,0.416 -0.144,0.402 -0.143,0.404 -0.141,0.416 -0.143,0.403 -0.143,0.402 -0.141,0.406 -0.155,0.414 -0.167,0.416 -0.165,0.405 -0.167,0.414 -0.083,0.166 -0.118,0.179 -0.12,0.178 -0.153,0.166 -0.143,0.176 -0.166,0.191 -0.178,0.178 -0.166,0.191 -0.167,0.178 -0.177,0.178 -0.167,0.18 -0.142,0.175 -0.143,0.192 -0.13,0.166 -0.107,0.178 -0.083,0.166 -0.13,0.32 -0.095,0.332 -0.083,0.309 -0.072,0.31 -0.059,0.307 -0.071,0.308 -0.107,0.321 -0.119,0.334 0.178,0 0.178,0.011 0.178,0.024 0.19,0.035 0.178,0.035 0.178,0.049 0.178,0.047 0.178,0.047 0.179,0.06 0.177,0.047 0.178,0.059 0.178,0.048 0.19,0.036 0.167,0.048 0.19,0.022 0.177,0.014 0.131,0.011 0.143,0 0.13,0 0.118,0 0.143,0 0.119,-0.011 0.118,-0.014 0.131,-0.012 0.13,-0.023 0.131,-0.024 0.119,-0.023 0.119,-0.024 0.13,-0.035 0.131,-0.025 0.118,-0.047 0.131,-0.035 0.095,-0.024 0.095,-0.035 0.095,-0.025 0.107,-0.035 0.083,-0.037 0.107,-0.034 0.095,-0.037 0.094,-0.047 0.096,-0.046 0.082,-0.049 0.096,-0.045 0.071,-0.063 0.07,-0.058 0.083,-0.059 0.061,-0.082 0.071,-0.072 0.116,-0.227 0.098,-0.236 0.069,-0.25 0.061,-0.248 0.047,-0.262 0.084,-0.238 0.094,-0.248 0.12,-0.227 0.082,-0.093 0.071,-0.096 0.084,-0.108 0.083,-0.093 0.096,-0.096 0.082,-0.082 0.093,-0.084 0.108,-0.096 0.084,-0.084 0.106,-0.07 0.107,-0.082 0.107,-0.07 0.107,-0.061 0.118,-0.059 0.107,-0.048 0.119,-0.047 0.059,-0.024 0.084,-0.023 0.071,-0.025 0.083,-0.012 0.082,-0.012 0.096,-0.012 0.082,-0.011 0.096,0 0.095,0 0.094,0 0.096,0 0.083,0 0.083,0.011 0.082,0.012 0.072,0.012 0.07,0.012 L -3.811,10.896 -3.895,10.328 -4.013,9.746 -4.107,9.164 -4.238,8.596 -4.333,8.014 -4.428,7.443 -4.5,6.861 -4.487,6.684 -4.428,6.492 -4.357,6.279 -4.262,6.078 -4.154,5.875 -4.036,5.697 -3.917,5.555 -3.775,5.461 -3.608,5.377 -3.443,5.283 -3.277,5.176 -3.109,5.07 -2.957,4.949 -2.802,4.83 -2.646,4.701 -2.48,4.57 -2.326,4.428 -2.185,4.273 -2.042,4.107 -1.912,3.965 -1.77,3.787 -1.639,3.621 -1.52,3.443 -1.4,3.252 -1.294,3.074 -1.199,2.885 -1.105,2.695 -1.009,2.492 -0.915,2.291 -0.831,2.078 -0.736,1.863 -0.654,1.66 -0.57,1.436 -0.499,1.223 -0.416,1.01 -0.332,0.795 -0.25,0.58 -0.167,0.381 -0.084,0.189 0,0 z"
         id="path14472"
         style="fill:#ed2224;fill-opacity:1;fill-rule:evenodd;stroke:none" />
    </g>
    <g
       transform="matrix(1.25,0,0,-1.25,374.05063,546.25858)"
       id="g14474">
      <path
         d="m 0,0 -0.203,0.012 -0.189,0.035 -0.178,0.07 -0.179,0.084 -0.166,0.108 -0.166,0.105 -0.166,0.131 -0.155,0.143 -0.165,0.142 -0.155,0.143 -0.166,0.131 -0.166,0.13 -0.177,0.118 -0.155,0.095 -0.19,0.096 -0.191,0.07 -0.153,0.035 -0.143,0.024 -0.142,0.023 -0.13,0.014 -0.12,0 -0.106,-0.014 -0.119,0 L -3.787,1.672 -3.905,1.648 -4.012,1.637 -4.131,1.613 -4.25,1.59 -4.38,1.578 -4.511,1.553 l -0.154,0 -0.166,-0.01 -0.191,0 -0.212,0.01 -0.203,0.013 -0.225,0.024 -0.226,0.023 -0.226,0.024 -0.224,0.035 -0.238,0.023 -0.226,0.026 -0.237,0.011 -0.226,0.024 -0.225,0 -0.215,0 L -7.917,1.744 -8.119,1.721 -8.31,1.695 -8.499,1.637 -8.689,1.59 -8.891,1.531 -9.069,1.447 -9.271,1.389 -9.46,1.305 -9.65,1.223 -9.84,1.139 -10.03,1.043 -10.219,0.961 -10.41,0.865 -10.612,0.793 -10.79,0.711 -10.979,0.639 -11.181,0.57 l -0.178,-0.06 -0.12,-0.024 -0.13,-0.037 -0.119,-0.023 -0.131,-0.012 -0.118,-0.012 -0.131,-0.009 -0.13,-0.014 -0.13,0 -0.132,0 -0.129,0 -0.131,0 -0.119,0.014 -0.142,0 -0.119,0.009 -0.131,0 -0.119,0 -0.814,21.856 -2.948,-0.037 0.071,-0.024 0.071,-0.045 0.084,-0.037 0.071,-0.035 0.072,-0.047 0.07,-0.037 0.072,-0.035 0.07,-0.047 0.071,-0.035 0.072,-0.037 0.083,-0.035 0.072,-0.024 0.07,-0.035 0.083,-0.023 0.072,-0.014 0.142,-0.023 0.143,-0.01 0.142,-0.014 0.143,0 0.131,0 0.141,0.014 0.143,0.01 0.13,0.013 0.143,0.01 0.13,0 0.143,0.014 0.143,0 0.13,-0.014 0.142,0 0.143,-0.023 0.154,-0.036 0.273,-0.084 0.274,-0.082 0.272,-0.105 0.261,-0.108 0.25,-0.119 0.261,-0.119 0.261,-0.131 0.249,-0.119 0.262,-0.119 0.249,-0.129 0.249,-0.107 0.261,-0.118 0.273,-0.095 0.273,-0.096 0.261,-0.084 0.297,-0.07 0.166,-0.012 0.202,-0.035 0.201,-0.012 0.214,-0.012 0.237,0 0.226,0.012 0.238,0.012 0.225,0.012 0.25,0.023 0.224,0.012 0.226,0.035 0.225,0.023 0.203,0.026 0.202,0.035 0.177,0.023 0.166,0.024 0.226,-0.416 0.19,-0.404 0.143,-0.401 0.118,-0.359 0.096,-0.354 0.082,-0.345 0.048,-0.344 0.047,-0.344 0.048,-0.32 0.035,-0.358 0.036,-0.355 0.047,-0.358 0.059,-0.379 0.083,-0.392 0.096,-0.416 0.119,-0.44 0.083,-0.224 0.142,-0.283 0.166,-0.309 0.202,-0.357 0.226,-0.405 0.26,-0.402 0.262,-0.428 0.273,-0.439 0.261,-0.426 0.261,-0.43 0.249,-0.414 L -2.102,9.65 -1.9,9.283 -1.733,8.949 -1.603,8.688 -1.519,8.463 -1.342,7.871 -1.199,7.299 -1.093,6.754 -0.997,6.23 -0.926,5.721 -0.867,5.223 -0.808,4.725 -0.759,4.225 -0.712,3.738 -0.665,3.25 -0.605,2.742 -0.535,2.23 -0.428,1.709 -0.321,1.164 -0.178,0.594 0,0 z"
         id="path14476"
         style="fill:#252b6a;fill-opacity:1;fill-rule:evenodd;stroke:none" />
    </g>
    <g
       transform="matrix(1.25,0,0,-1.25,381.03851,545.69708)"
       id="g14478">
      <path
         d="m 0,0 -0.902,1.592 0.094,0.035 0.107,0.023 0.119,0.024 0.119,0.025 0.13,0.022 0.131,0.013 0.131,0 0.13,0 0.119,0 L 0.321,1.721 0.427,1.699 0.545,1.674 0.653,1.627 0.748,1.568 0.831,1.521 0.901,1.449 0.974,1.342 0.997,1.246 0.997,1.141 0.949,1.045 0.89,0.951 0.808,0.867 0.712,0.785 0.605,0.701 0.487,0.619 0.367,0.535 0.261,0.453 0.166,0.369 0.094,0.287 0.036,0.189 0,0.096 0,0 z"
         id="path14480"
         style="fill:#868d8d;fill-opacity:1;fill-rule:evenodd;stroke:none" />
    </g>
    <g
       transform="matrix(1.25,0,0,-1.25,354.8215,519.20778)"
       id="g14482">
      <path
         d="m 0,0 0.023,-0.332 0,-0.332 L 0.06,-0.996 0.154,-1.293 0.213,-1.412 0.285,-1.52 0.356,-1.625 0.428,-1.744 0.51,-1.84 0.582,-1.936 0.652,-2.041 0.736,-2.137 0.807,-2.242 0.891,-2.34 0.973,-2.445 1.044,-2.539 1.116,-2.646 1.198,-2.754 1.258,-2.873 1.317,-2.992 1.413,-3.193 1.46,-3.42 1.496,-3.645 1.532,-3.871 1.555,-4.096 1.602,-4.309 1.673,-4.523 1.78,-4.713 1.876,-4.785 1.97,-4.76 l 0.072,0.119 0.07,0.131 0.073,0.129 0.058,0.084 0.083,-0.012 0.071,-0.144 0.167,-0.426 0.167,-0.439 0.165,-0.44 0.143,-0.437 0.13,-0.442 0.143,-0.449 0.118,-0.451 0.119,-0.451 0.107,-0.453 0.095,-0.45 0.106,-0.463 0.072,-0.453 0.071,-0.474 0.071,-0.463 0.047,-0.473 0.048,-0.463 0.059,-0.226 0.108,0.105 0.13,0.369 0.155,0.547 0.13,0.653 0.119,0.675 0.071,0.629 0.023,0.51 -0.035,0.43 -0.107,0.437 -0.131,0.416 -0.154,0.416 -0.166,0.403 -0.166,0.427 -0.143,0.416 -0.106,0.428 -0.036,0.238 -0.013,0.248 0,0.286 0,0.285 -0.011,0.283 -0.036,0.264 -0.083,0.212 -0.118,0.19 -0.249,0.297 -0.19,0.32 -0.132,0.32 -0.094,0.344 -0.082,0.346 -0.072,0.355 -0.083,0.369 -0.143,0.356 -0.166,0.084 -0.154,0.06 L 2.125,-0.131 1.946,-0.082 1.78,-0.035 1.614,0 1.436,0.023 1.27,0.047 1.104,0.062 0.938,0.07 0.771,0.07 0.605,0.07 0.451,0.062 0.296,0.047 0.143,0.023 0,0 z"
         id="path14484"
         style="fill:#33479d;fill-opacity:1;fill-rule:evenodd;stroke:none" />
    </g>
    <g
       transform="matrix(1.25,0,0,-1.25,364.85075,544.01978)"
       id="g14486">
      <path
         d="m 0,0 0.013,0.25 0,0.262 0.011,0.261 0.059,0.248 0.024,0.073 0.047,0.082 0.049,0.07 0.035,0.072 0.047,0.073 0.036,0.082 0.024,0.084 0.024,0.084 0,0.177 L 0.333,1.973 0.285,2.127 0.25,2.314 0.238,2.625 l 0,0.344 0,0.332 -0.035,0.32 -0.06,0.166 -0.083,0.168 -0.107,0.152 -0.107,0.166 -0.106,0.155 -0.096,0.156 -0.083,0.164 -0.047,0.168 -0.024,0.178 0,0.166 0.036,0.142 0.035,0.166 0.036,0.155 0.035,0.166 0.023,0.166 0,0.179 -0.058,0.414 -0.096,0.51 -0.106,0.535 -0.119,0.498 -0.083,0.416 -0.024,0.274 0.024,0.084 0.13,-0.168 L -0.51,8.512 -0.368,8.275 -0.26,8.049 -0.166,7.848 -0.083,7.646 -0.012,7.432 0.06,7.207 0.13,6.957 0.203,6.482 0.226,6.031 0.238,5.58 0.273,5.117 0.321,4.869 0.392,4.643 0.476,4.428 0.57,4.215 0.666,3.99 0.772,3.775 0.878,3.563 0.985,3.35 1.104,3.17 1.246,3.016 1.413,2.861 1.567,2.695 1.722,2.529 1.84,2.365 1.923,2.174 1.936,1.959 1.947,1.676 1.995,1.4 2.066,1.129 2.161,0.855 2.268,0.582 2.386,0.309 l 0.108,-0.26 0.082,-0.287 -0.166,0 -0.166,0.013 -0.166,0 -0.155,0.024 -0.167,0 L 1.591,-0.178 1.437,-0.166 1.271,-0.154 1.116,-0.131 0.95,-0.104 0.807,-0.096 0.641,-0.07 0.487,-0.059 0.309,-0.035 0.167,-0.012 0,0 z"
         id="path14488"
         style="fill:#33479d;fill-opacity:1;fill-rule:evenodd;stroke:none" />
    </g>
    <g
       transform="matrix(1.25,0,0,-1.25,357.32875,545.69708)"
       id="g14490">
      <path
         d="m 0,0 0.095,0 0.107,-0.012 0.095,-0.011 0.095,-0.012 0.106,0 0.095,-0.012 0.107,-0.01 0.095,-0.013 0.108,0 0.082,-0.01 0.107,0 0.106,0 0.096,0.01 0.107,0 0.094,0.023 0.084,0.012 0.237,0.072 0.237,0.059 0.215,0.084 0.237,0.082 0.213,0.095 0.226,0.082 0.225,0.096 0.226,0.096 0.225,0.105 0.225,0.096 0.226,0.084 0.226,0.082 0.225,0.096 0.237,0.082 0.239,0.07 0.225,0.061 0,0.392 L 5.21,2.197 5.199,2.742 5.164,3.277 5.104,3.752 5.021,4.072 4.891,4.217 4.712,4.119 4.439,3.813 4.19,3.563 3.952,3.396 3.751,3.301 3.561,3.252 3.383,3.252 3.217,3.266 3.063,3.324 2.896,3.396 2.729,3.49 2.587,3.574 2.421,3.668 2.232,3.74 2.065,3.775 1.863,3.801 1.639,3.775 1.495,3.74 1.341,3.707 1.198,3.656 1.057,3.609 0.914,3.563 0.784,3.502 0.652,3.443 0.522,3.373 0.392,3.301 0.273,3.23 0.131,3.16 0.012,3.076 -0.119,2.982 -0.226,2.898 -0.344,2.801 -0.474,2.695 -0.415,2.363 -0.344,2.031 -0.285,1.688 -0.237,1.354 -0.178,1.01 -0.119,0.668 -0.06,0.334 0,0 z"
         id="path14492"
         style="fill:#33479d;fill-opacity:1;fill-rule:evenodd;stroke:none" />
    </g>
    <g
       transform="matrix(1.25,0,0,-1.25,360.48863,520.75078)"
       id="g14494">
      <path
         d="m 0,0 0.143,-0.273 0.119,-0.262 0.13,-0.272 0.13,-0.261 0.119,-0.272 0.12,-0.275 0.129,-0.26 0.12,-0.273 0.13,-0.274 0.142,-0.262 0.131,-0.25 0.142,-0.259 0.142,-0.25 0.166,-0.26 0.156,-0.238 0.177,-0.248 0.059,-0.026 0.072,0.059 0.083,0.095 0.095,0.133 0.083,0.129 0.083,0.096 0.06,0.047 0.047,-0.047 0.142,-0.404 0.083,-0.428 0.06,-0.44 0.047,-0.427 0.035,-0.45 0.06,-0.429 0.083,-0.438 0.131,-0.416 0.071,-0.166 0.083,-0.144 0.095,-0.164 0.083,-0.143 0.108,-0.156 0.118,-0.131 0.106,-0.141 0.131,-0.142 0.119,-0.143 0.106,-0.129 0.12,-0.144 0.118,-0.143 0.118,-0.14 0.096,-0.155 0.094,-0.154 0.096,-0.156 0.095,-0.211 0.106,-0.203 0.095,-0.204 0.083,-0.21 0.084,-0.229 0.094,-0.213 0.084,-0.215 0.083,-0.224 0.083,-0.225 0.083,-0.213 0.083,-0.215 0.071,-0.213 0.095,-0.214 0.095,-0.213 0.107,-0.215 0.095,-0.201 0.083,-0.155 0.094,-0.142 0.108,-0.131 0.118,-0.143 0.107,-0.13 0.131,-0.141 0.118,-0.121 0.119,-0.129 0.119,-0.143 0.107,-0.119 0.106,-0.142 0.096,-0.143 0.082,-0.143 0.06,-0.154 0.059,-0.154 0.036,-0.166 0.011,-0.332 -0.047,-0.311 -0.107,-0.306 -0.13,-0.309 -0.142,-0.309 -0.154,-0.32 -0.132,-0.308 -0.093,-0.323 -0.037,-0.261 -0.012,-0.27 0,-0.273 0,-0.276 0.095,0.012 0.106,0.012 0.107,0 0.107,0.013 0.107,0.01 0.107,0 0.107,0.014 0.107,0 0.035,0.189 0.012,0.192 0.013,0.201 0.012,0.201 0.023,0.201 0.035,0.192 0.06,0.177 0.083,0.143 0.071,0.058 0.095,0.024 0.107,-0.024 0.13,-0.013 0.119,-0.022 0.095,0 0.083,0.022 0.035,0.06 0.036,0.227 -0.023,0.201 -0.048,0.213 -0.06,0.226 -0.07,0.213 -0.071,0.203 -0.048,0.225 -0.025,0.203 0.025,0.26 0.059,0.25 0.083,0.26 0.083,0.261 0.059,0.262 0.048,0.25 -0.012,0.227 -0.083,0.222 -0.106,0.168 -0.131,0.155 -0.143,0.119 -0.166,0.131 -0.166,0.117 -0.177,0.096 -0.179,0.107 -0.189,0.094 -0.19,0.107 -0.179,0.096 -0.178,0.117 -0.166,0.096 -0.166,0.131 -0.131,0.14 -0.13,0.145 -0.107,0.166 -0.166,0.357 -0.166,0.354 -0.119,0.369 L 5.947,-9.961 5.84,-9.58 5.745,-9.201 5.651,-8.82 5.567,-8.43 5.496,-8.039 5.413,-7.656 5.318,-7.266 5.223,-6.885 5.117,-6.506 4.998,-6.137 4.867,-5.77 4.701,-5.412 4.629,-5.367 4.523,-5.402 4.392,-5.484 4.25,-5.615 4.107,-5.723 3.977,-5.818 3.894,-5.852 l -0.048,0.071 -0.012,0.33 0.06,0.334 0.095,0.334 0.118,0.33 0.119,0.346 0.095,0.32 0.059,0.344 0,0.332 L 4.321,-2.754 4.226,-2.41 4.095,-2.078 3.94,-1.746 3.775,-1.424 3.62,-1.094 3.454,-0.773 3.312,-0.439 3.098,-0.451 2.873,-0.475 2.659,-0.486 2.433,-0.498 2.22,-0.498 1.994,-0.486 1.792,-0.475 1.579,-0.451 1.365,-0.439 1.164,-0.391 0.95,-0.355 0.761,-0.297 0.559,-0.238 0.368,-0.166 0.178,-0.096 0,-0.014 0,0 z"
         id="path14496"
         style="fill:#33479d;fill-opacity:1;fill-rule:evenodd;stroke:none" />
    </g>
    <g
       transform="matrix(1.25,0,0,-1.25,369.169,521.75898)"
       id="g14498">
      <path
         d="m 0,0 -0.036,0.047 -0.047,-0.061 -0.037,-0.154 -0.059,-0.213 -0.047,-0.25 -0.024,-0.26 -0.011,-0.226 0,-0.178 0.023,-0.105 0.035,-0.131 0.06,-0.119 0.071,-0.131 L 0,-1.889 0.06,-2.008 0.13,-2.127 0.166,-2.256 0.213,-2.459 0.237,-2.637 0.249,-2.813 0.261,-2.969 0.297,-3.121 0.321,-3.289 0.38,-3.467 0.474,-3.646 0.546,-3.738 0.629,-3.848 0.712,-3.955 0.795,-4.063 0.89,-4.168 0.985,-4.275 1.08,-4.369 1.188,-4.477 1.294,-4.572 1.401,-4.666 1.506,-4.773 1.603,-4.869 1.697,-4.963 1.804,-5.057 1.898,-5.154 1.982,-5.248 2.102,-5.402 2.22,-5.557 2.314,-5.725 2.421,-5.889 2.528,-6.068 2.623,-6.246 2.718,-6.412 2.825,-6.59 2.896,-6.697 2.967,-6.803 3.027,-6.91 3.11,-7.029 3.168,-7.146 3.24,-7.256 3.312,-7.361 3.37,-7.479 3.442,-7.586 3.513,-7.707 3.584,-7.811 3.655,-7.92 3.739,-8.037 3.809,-8.145 3.881,-8.25 3.952,-8.357 4.047,-8.453 4.143,-8.559 4.26,-8.643 4.379,-8.738 4.487,-8.834 4.581,-8.928 4.652,-9.035 4.7,-9.166 l 0.048,-0.355 0,-0.358 -0.024,-0.365 -0.036,-0.358 -0.023,-0.355 0,-0.346 0.035,-0.355 0.107,-0.346 0.083,-0.187 0.107,-0.178 0.107,-0.18 0.118,-0.166 0.131,-0.166 0.142,-0.154 0.155,-0.153 0.142,-0.166 0.143,-0.156 0.154,-0.144 0.143,-0.164 0.129,-0.166 0.143,-0.157 0.119,-0.177 0.107,-0.178 0.106,-0.19 0.155,-0.392 0.13,-0.389 0.107,-0.406 0.072,-0.404 0.071,-0.403 0.06,-0.416 0.058,-0.427 0.084,-0.428 0.165,0.084 0.166,0.084 0.155,0.082 0.167,0.072 0.165,0.059 0.167,0.06 0.154,0.059 0.178,0.035 0.178,0.035 0.166,0.012 0.179,0 0.177,-0.024 0.19,-0.037 0.178,-0.056 0.203,-0.084 0.201,-0.106 -0.119,0.166 -0.118,0.178 -0.131,0.166 -0.119,0.154 -0.119,0.164 -0.118,0.157 -0.13,0.166 -0.108,0.154 -0.129,0.154 -0.108,0.154 -0.119,0.165 -0.118,0.156 -0.107,0.166 -0.119,0.178 -0.106,0.169 -0.107,0.176 -0.084,0.153 -0.083,0.154 -0.083,0.156 -0.083,0.154 -0.071,0.153 -0.071,0.156 -0.072,0.164 -0.071,0.154 -0.072,0.168 -0.069,0.155 -0.073,0.154 -0.071,0.154 -0.07,0.166 -0.072,0.155 -0.06,0.166 -0.059,0.154 -0.107,0.224 -0.118,0.227 -0.119,0.215 -0.118,0.201 -0.131,0.201 -0.119,0.201 -0.119,0.192 -0.118,0.189 -0.107,0.201 -0.107,0.192 -0.083,0.201 -0.083,0.213 -0.048,0.226 -0.047,0.237 -0.024,0.238 0,0.275 -0.012,0.237 -0.071,0.248 -0.106,0.25 -0.13,0.236 -0.167,0.238 -0.19,0.225 -0.202,0.238 -0.225,0.237 -0.214,0.216 -0.226,0.223 -0.213,0.215 -0.203,0.225 -0.177,0.212 -0.155,0.215 -0.13,0.213 L 3.359,-5.461 3.288,-5.236 3.181,-5.023 3.05,-4.82 2.919,-4.604 2.777,-4.418 2.635,-4.229 2.469,-4.037 2.303,-3.848 2.124,-3.668 1.97,-3.492 1.792,-3.301 1.626,-3.121 1.46,-2.945 1.305,-2.744 1.151,-2.553 1.008,-2.363 0.866,-2.09 0.7,-1.807 0.546,-1.498 0.403,-1.188 0.285,-0.879 0.166,-0.57 0.071,-0.273 0,0 z"
         id="path14500"
         style="fill:#c4cbcb;fill-opacity:1;fill-rule:evenodd;stroke:none" />
    </g>
    <g
       transform="matrix(1.25,0,0,-1.25,378.01188,527.01308)"
       id="g14502">
      <path
         d="m 0,0 0.083,-0.059 0.083,-0.048 0.072,-0.047 0.07,-0.061 0.084,-0.058 0.071,-0.049 0.07,-0.057 0.084,-0.062 0.059,-0.059 0.084,-0.047 0.07,-0.07 0.071,-0.049 0.06,-0.07 0.059,-0.073 0.06,-0.058 0.071,-0.072 0.119,-0.141 0.107,-0.143 0.095,-0.142 0.095,-0.156 0.082,-0.166 0.083,-0.153 0.072,-0.181 0.059,-0.176 0.071,-0.166 0.06,-0.178 0.06,-0.178 0.046,-0.179 0.048,-0.176 0.036,-0.18 0.047,-0.189 0.036,-0.178 0,-0.143 L 2.243,-3.906 2.196,-4.062 2.148,-4.203 2.018,-3.906 1.887,-3.621 1.78,-3.338 1.673,-3.053 1.567,-2.777 1.472,-2.506 1.365,-2.256 1.258,-1.982 1.151,-1.744 1.02,-1.484 0.901,-1.234 0.76,-0.986 0.593,-0.736 0.415,-0.5 0.226,-0.25 0,0 z"
         id="path14504"
         style="fill:#d61f27;fill-opacity:1;fill-rule:evenodd;stroke:none" />
    </g>
    <g
       transform="matrix(1.25,0,0,-1.25,381.55725,534.87678)"
       id="g14506">
      <path
         d="m 0,0 0.19,-0.037 0.143,0 L 0.427,0.01 0.486,0.084 0.51,0.188 0.51,0.32 0.486,0.475 0.439,0.641 0.393,0.818 0.32,0.996 0.25,1.197 0.19,1.377 0.119,1.566 0.072,1.732 0.036,1.887 0.023,2.027 0.023,2.16 0.036,2.326 0.072,2.492 0.119,2.658 0.167,2.801 0.226,2.895 0.273,2.93 0.333,2.883 0.475,2.646 0.569,2.396 0.641,2.125 0.689,1.852 0.735,1.566 0.784,1.293 0.843,1.008 0.926,0.748 1.009,0.568 1.117,0.402 1.211,0.236 1.329,0.084 1.437,-0.084 1.544,-0.25 1.649,-0.418 1.721,-0.594 1.779,-0.76 l 0.05,-0.168 0.034,-0.177 0.024,-0.178 0.048,-0.178 0.024,-0.18 0.035,-0.177 0.059,-0.164 0.059,-0.178 0.061,-0.168 0.07,-0.166 0.072,-0.164 0.059,-0.168 0.084,-0.166 0.07,-0.154 0.084,-0.178 0.071,-0.166 0.072,-0.156 0.07,-0.166 0.083,-0.178 0.06,-0.166 0.071,-0.166 0.07,-0.166 0.06,-0.178 0.059,-0.143 0.06,-0.164 0.06,-0.156 L 3.406,-5.295 3.455,-5.449 3.489,-5.615 3.501,-5.783 3.489,-5.949 3.479,-6.043 3.442,-6.127 3.418,-6.221 3.395,-6.316 3.348,-6.412 3.312,-6.494 3.265,-6.578 3.228,-6.66 l -0.094,0.344 0.023,0.107 0.012,0.094 0,0.084 0,0.082 -0.035,0.072 -0.035,0.059 -0.06,0.047 -0.083,0.037 -0.594,1.08 0.012,0.226 0,0.225 L 2.351,-3.977 2.315,-3.752 2.279,-3.574 2.22,-3.348 2.138,-3.111 2.042,-2.896 1.935,-2.709 1.829,-2.6 1.721,-2.566 1.625,-2.623 1.591,-2.684 1.566,-2.742 1.519,-2.814 1.496,-2.875 1.459,-2.945 1.437,-3.016 1.425,-3.074 1.399,-3.146 1.294,-2.957 1.187,-2.779 1.092,-2.59 0.985,-2.398 0.891,-2.209 0.795,-2.021 0.701,-1.828 0.618,-1.641 0.534,-1.438 0.463,-1.246 0.38,-1.047 0.309,-0.844 0.226,-0.643 0.154,-0.439 0.072,-0.213 0,0 z"
         id="path14508"
         style="fill:#d61f27;fill-opacity:1;fill-rule:evenodd;stroke:none" />
    </g>
    <g
       transform="matrix(1.25,0,0,-1.25,375.42938,522.02768)"
       id="g14510">
      <path
         d="M 0,0 0.202,0 0.416,0.023 0.642,0.047 0.843,0.096 1.069,0.154 1.282,0.215 1.496,0.273 1.709,0.346 1.923,0.416 2.148,0.486 2.374,0.535 2.599,0.582 2.813,0.631 3.04,0.641 3.265,0.652 3.479,0.641 3.561,0.498 3.645,0.346 3.739,0.188 3.822,0.047 3.917,-0.094 4,-0.236 l 0.096,-0.155 0.083,-0.154 0.083,-0.143 0.094,-0.154 0.083,-0.156 0.072,-0.141 0.071,-0.154 0.071,-0.156 0.059,-0.153 0.06,-0.166 0.048,-0.261 0,-0.274 -0.024,-0.261 -0.048,-0.284 -0.023,-0.263 0,-0.272 0.047,-0.238 0.094,-0.236 0.049,-0.047 0.059,-0.026 0.071,0 0.083,0.012 0.095,0.014 0.095,0.035 0.095,0.047 0.095,0.035 0.096,0.058 0.094,0.026 0.083,0.035 0.071,0.022 0.071,0 0.06,-0.01 L 6.029,-3.68 6.042,-3.75 6.077,-4.131 6.054,-4.488 6.019,-4.797 5.971,-5.08 l 0.012,-0.297 0.071,-0.31 0.19,-0.344 0.319,-0.379 0.144,-0.19 0.166,-0.203 0.142,-0.215 0.142,-0.234 0.131,-0.252 0.143,-0.271 0.13,-0.26 0.131,-0.274 0.13,-0.285 0.119,-0.275 0.13,-0.283 0.108,-0.262 0.13,-0.25 0.118,-0.236 0.107,-0.225 0.119,-0.215 0.119,-0.166 0.118,-0.191 0.119,-0.19 0.119,-0.166 0.131,-0.177 0.119,-0.178 0.13,-0.178 0.118,-0.178 0.119,-0.191 0.119,-0.178 0.107,-0.179 0.107,-0.188 0.095,-0.189 0.096,-0.19 0.081,-0.203 0.073,-0.203 0.117,-0.379 0.096,-0.404 0.083,-0.403 0.048,-0.402 0.023,-0.395 0,-0.416 -0.013,-0.4 -0.035,-0.404 -0.048,-0.25 -0.07,-0.213 -0.096,-0.227 -0.093,-0.203 -0.131,-0.201 -0.12,-0.201 -0.118,-0.201 -0.142,-0.215 -0.109,-0.022 -0.117,-0.025 -0.131,-0.035 -0.142,-0.035 -0.143,-0.026 -0.119,-0.035 -0.13,-0.023 -0.095,-0.024 0.095,0.391 0.13,0.369 0.119,0.355 0.131,0.358 0.095,0.346 0.083,0.353 0.059,0.381 0.012,0.404 -0.036,0.199 -0.07,0.192 -0.119,0.189 -0.131,0.18 -0.143,0.176 -0.142,0.179 -0.119,0.19 -0.094,0.189 -0.083,0.309 -0.072,0.344 -0.036,0.357 -0.034,0.369 -0.049,0.367 -0.047,0.356 -0.084,0.32 -0.118,0.297 -0.132,0.248 -0.141,0.238 -0.142,0.239 -0.155,0.224 -0.165,0.227 -0.166,0.213 -0.166,0.238 -0.166,0.213 -0.167,0.226 -0.178,0.213 -0.155,0.225 -0.166,0.227 -0.166,0.214 -0.155,0.237 -0.142,0.226 -0.142,0.237 -0.083,0.154 -0.06,0.166 -0.059,0.166 -0.059,0.18 -0.059,0.166 -0.06,0.166 -0.083,0.154 -0.083,0.143 -0.107,0.127 -0.131,0.134 -0.131,0.106 -0.13,0.093 -0.131,0.098 -0.142,0.094 -0.13,0.119 -0.107,0.143 -0.119,0.177 -0.083,0.19 -0.06,0.191 -0.047,0.201 -0.059,0.19 -0.06,0.189 -0.094,0.19 -0.119,0.168 -0.083,0.047 -0.107,0.023 -0.095,0 -0.119,-0.014 -0.107,-0.009 -0.107,-0.012 -0.106,0 -0.083,0.012 -0.238,0.154 -0.226,0.166 -0.225,0.189 -0.19,0.213 -0.19,0.229 L 1.544,-2.66 1.366,-2.398 1.211,-2.137 1.057,-1.852 0.902,-1.578 0.76,-1.293 0.618,-1.021 0.476,-0.748 0.32,-0.486 0.155,-0.236 0.012,0 0,0 z"
         id="path14512"
         style="fill:#d61f27;fill-opacity:1;fill-rule:evenodd;stroke:none" />
    </g>
    <g
       transform="matrix(1.25,0,0,-1.25,383.96088,524.49098)"
       id="g14514">
      <path
         d="m 0,0 0.083,-0.355 0.071,-0.356 0.073,-0.369 0.07,-0.367 0.059,-0.358 0.06,-0.367 0.071,-0.369 0.072,-0.367 0.084,-0.358 0.07,-0.38 L 0.808,-4 0.89,-4.355 0.985,-4.713 1.092,-5.057 1.211,-5.4 1.342,-5.734 1.436,-5.982 1.566,-6.221 1.686,-6.457 1.828,-6.695 1.982,-6.92 2.137,-7.135 2.279,-7.361 2.445,-7.574 2.611,-7.799 2.777,-8.014 2.944,-8.225 3.109,-8.453 3.275,-8.666 3.443,-8.879 3.598,-9.094 3.752,-9.33 3.904,-9.568 4.06,-9.793 l 0.155,-0.213 0.166,-0.215 0.154,-0.201 0.142,-0.201 0.155,-0.203 0.152,-0.192 0.145,-0.199 0.131,-0.203 0.152,-0.213 0.133,-0.203 0.129,-0.226 0.119,-0.237 0.131,-0.25 0.117,-0.263 0.085,-0.174 0.106,-0.166 0.106,-0.203 0.142,-0.213 0.155,-0.203 0.156,-0.211 0.166,-0.227 0.178,-0.228 0.177,-0.225 0.178,-0.201 0.178,-0.215 0.167,-0.213 0.177,-0.178 0.154,-0.189 0.143,-0.166 0.13,-0.143 -0.154,0.248 -0.166,0.25 -0.154,0.262 -0.178,0.273 -0.178,0.272 -0.179,0.275 -0.166,0.283 -0.177,0.286 -0.179,0.285 -0.178,0.285 -0.177,0.262 -0.18,0.283 -0.152,0.262 -0.18,0.261 -0.165,0.262 -0.155,0.236 -0.239,0.358 -0.259,0.357 -0.248,0.354 -0.274,0.357 -0.25,0.344 L 4.189,-9.568 3.93,-9.211 3.668,-8.855 3.406,-8.5 3.17,-8.143 2.92,-7.787 2.695,-7.42 2.457,-7.051 2.256,-6.672 2.064,-6.281 1.888,-5.9 1.686,-5.342 1.543,-4.783 1.449,-4.203 1.389,-3.607 1.342,-3.014 1.305,-2.41 1.259,-1.828 1.187,-1.246 1.104,-1.188 1.021,-1.115 0.949,-1.057 0.855,-0.984 0.771,-0.926 0.689,-0.855 0.605,-0.783 0.535,-0.711 0.451,-0.629 0.393,-0.545 0.31,-0.463 0.237,-0.379 0.178,-0.297 0.118,-0.201 0.06,-0.107 0.012,0 0,0 z"
         id="path14516"
         style="fill:#d61f27;fill-opacity:1;fill-rule:evenodd;stroke:none" />
    </g>
  </g>
</svg>
