<?xml version="1.0" standalone="no"?>
<!DOCTYPE svg PUBLIC "-//W3C//DTD SVG 20010904//EN"
 "http://www.w3.org/TR/2001/REC-SVG-20010904/DTD/svg10.dtd">
<svg version="1.0" xmlns="http://www.w3.org/2000/svg"
 width="704.000000pt" height="1280.000000pt" viewBox="0 0 704.000000 1280.000000"
 preserveAspectRatio="xMidYMid meet">
<metadata>
Created by potrace 1.15, written by Peter Selinger 2001-2017
</metadata>
<g transform="translate(0.000000,1280.000000) scale(0.100000,-0.100000)"
fill="#C46745" stroke="none">
<path d="M1585 12785 c-280 -44 -494 -147 -675 -325 -165 -162 -264 -367 -290
-601 -20 -184 7 -337 98 -544 l57 -130 -1 -110 c0 -124 -17 -185 -95 -352 -23
-51 -39 -96 -35 -100 26 -26 229 161 291 267 20 36 38 66 39 68 2 1 47 -22
100 -53 115 -65 221 -112 334 -150 45 -15 85 -31 87 -36 3 -4 -18 -15 -47 -23
-29 -8 -114 -31 -188 -51 -154 -42 -380 -145 -489 -222 -130 -93 -322 -296
-429 -454 -98 -145 -199 -384 -252 -598 -62 -252 -80 -396 -87 -708 l-6 -263
334 0 c315 0 335 -1 375 -20 111 -54 236 -317 321 -675 26 -112 28 -133 27
-315 -2 -236 -25 -408 -88 -655 -110 -428 -133 -638 -106 -960 34 -391 142
-1147 235 -1640 54 -287 65 -352 80 -499 36 -332 28 -724 -16 -893 -36 -135
-49 -233 -58 -413 -13 -264 8 -799 45 -1128 16 -147 24 -192 56 -297 35 -115
38 -147 47 -481 5 -176 14 -340 21 -363 17 -63 32 -66 247 -51 112 8 239 10
330 6 195 -9 1588 -10 1691 -1 94 9 112 17 96 42 -17 28 -75 51 -233 93 -176
46 -262 75 -444 147 -270 106 -418 187 -513 280 -97 94 -105 127 -129 558 -51
940 -62 1542 -33 1800 18 153 26 257 53 700 18 302 33 404 79 556 109 360 161
664 187 1099 21 358 -3 680 -81 1070 -92 465 -101 538 -107 911 -8 480 -3 495
232 636 l70 43 13 -43 c7 -23 31 -121 53 -217 77 -328 120 -443 303 -809 216
-431 269 -505 586 -821 272 -272 583 -566 647 -614 34 -25 43 -39 50 -76 12
-65 8 -2288 -5 -3615 -7 -627 -9 -1162 -4 -1190 7 -49 8 -50 52 -62 25 -6 66
-12 91 -12 l46 -1 6 302 c3 167 11 753 17 1303 26 2470 32 2901 40 3065 l9
175 113 111 c63 62 139 125 171 144 38 21 59 40 63 56 14 54 -64 118 -239 196
l-119 53 6 1830 c3 1007 9 1859 13 1895 7 52 16 74 44 111 20 25 59 92 88 147
28 55 67 121 86 147 19 25 35 51 35 59 0 33 -116 101 -214 125 -70 17 -230 15
-301 -4 -123 -33 -205 -84 -205 -128 0 -11 11 -34 24 -51 13 -17 40 -65 61
-106 41 -82 79 -141 135 -210 l36 -45 -7 -920 c-12 -1358 -29 -2665 -36 -2707
-7 -50 -31 -50 -109 0 -116 75 -169 154 -293 434 -142 323 -363 717 -480 858
-71 85 -71 84 -141 520 -22 140 -56 338 -74 440 l-34 184 165 246 c91 135 186
271 212 303 127 160 176 237 209 332 23 65 42 186 42 269 0 50 -16 116 -27
116 -3 0 -23 -14 -44 -31 -21 -17 -39 -27 -39 -22 0 5 18 63 40 128 61 179
102 345 95 382 -7 39 -61 88 -113 104 -50 15 -109 -1 -145 -39 -47 -49 -202
-509 -269 -797 -45 -196 -104 -329 -176 -398 -39 -38 -60 -27 -103 53 -66 125
-196 238 -343 299 -105 44 -175 60 -306 72 -63 6 -128 17 -145 24 -37 15 -140
92 -180 135 l-30 31 33 30 c49 44 94 43 167 -5 64 -42 106 -56 167 -56 136 0
285 157 345 364 27 91 28 126 9 165 -30 56 -161 158 -261 201 -24 10 -85 57
-135 104 -92 86 -128 105 -225 122 -66 11 -77 20 -69 60 6 31 4 35 -25 47 -25
11 -29 16 -19 24 32 24 313 144 332 141 19 -3 22 -12 28 -89 9 -107 39 -189
81 -225 28 -23 37 -26 85 -21 82 9 130 43 212 152 92 122 114 172 112 251 -1
60 0 62 26 69 51 13 56 47 10 75 -40 24 -95 26 -146 5 -63 -27 -79 -50 -92
-129 -33 -204 -62 -281 -105 -281 -37 0 -50 49 -50 182 l0 121 94 137 c103
151 158 259 193 380 20 70 23 101 22 250 0 199 -16 271 -89 422 -211 433 -710
686 -1200 608z m358 -51 c367 -71 650 -286 802 -609 69 -146 80 -198 79 -365
-1 -171 -19 -253 -88 -397 -108 -224 -249 -369 -466 -478 -104 -52 -192 -84
-277 -101 -63 -12 -78 -11 -124 2 -47 14 -58 14 -122 0 -102 -23 -169 -20
-293 15 -341 95 -578 294 -707 593 -95 221 -108 424 -40 640 151 482 714 801
1236 700z m-1062 -1661 c24 -45 15 -125 -21 -199 -29 -59 -53 -85 -65 -72 -4
4 30 189 50 276 7 29 18 28 36 -5z m1982 -68 c9 -62 2 -116 -23 -164 -20 -41
-110 -155 -116 -148 -2 2 3 26 11 54 11 38 34 194 35 245 0 3 12 21 26 38 37
43 57 36 67 -25z m-289 -374 c28 -37 26 -57 -5 -41 -28 15 -48 51 -65 112 -21
81 -16 89 15 23 16 -33 40 -75 55 -94z m-777 17 c7 -82 -12 -192 -40 -243 -13
-23 -39 -49 -60 -60 -45 -24 -45 -49 -1 -53 61 -6 137 105 152 224 8 62 17 72
47 50 30 -22 32 -116 5 -191 -44 -119 -126 -171 -311 -197 l-82 -12 6 -91 c11
-160 45 -239 153 -357 35 -38 64 -75 64 -82 0 -7 -6 -26 -14 -42 -19 -37 -33
-219 -41 -509 -7 -274 -13 -359 -28 -379 -12 -15 -64 1 -334 101 l-43 16 0
323 0 324 -187 0 c-550 0 -772 -83 -854 -318 -25 -69 -30 -212 -10 -290 29
-114 133 -224 325 -342 47 -29 85 -54 83 -56 -2 -2 -133 -4 -293 -4 l-289 -1
3 93 c9 284 29 484 67 678 56 285 130 480 264 699 28 46 51 90 51 97 0 17 143
158 260 256 197 166 280 214 485 281 149 49 224 67 279 67 l45 0 3 -72 c4 -86
23 -99 46 -30 18 54 117 162 175 191 54 27 67 15 74 -71z m274 -67 c35 -11 96
-29 135 -40 69 -20 124 -52 124 -72 0 -6 -13 -1 -30 11 -16 12 -46 24 -65 27
-36 6 -38 5 -49 -49 -8 -35 -62 -68 -113 -68 -74 0 -85 -52 -14 -64 48 -7 108
-56 117 -95 10 -38 23 -51 55 -51 16 0 29 -4 29 -9 0 -5 -37 -38 -82 -74 -96
-75 -133 -113 -143 -144 -5 -18 -2 -23 13 -23 20 0 61 31 174 131 35 31 73 62
86 68 26 14 30 57 7 87 -21 28 -18 34 16 34 35 0 69 16 69 32 0 7 -18 30 -40
53 l-39 40 57 -1 c60 0 99 -16 235 -97 84 -49 167 -123 167 -147 0 -21 -55
-44 -92 -38 -18 2 -24 11 -26 35 -3 34 -25 59 -42 48 -15 -10 -12 -72 6 -108
22 -43 44 -68 72 -78 33 -13 29 -57 -11 -115 -43 -63 -63 -65 -198 -20 -173
58 -374 72 -374 26 0 -12 19 -15 95 -16 130 -2 274 -47 323 -101 16 -19 16
-21 -1 -37 -12 -10 -44 -19 -84 -23 -64 -6 -65 -5 -100 30 -43 42 -107 77
-144 77 -14 0 -65 -21 -113 -47 l-88 -47 -85 62 c-48 34 -107 85 -132 113 -51
57 -96 144 -96 186 0 38 26 73 53 73 56 0 187 123 211 199 8 25 18 89 22 141
3 52 8 98 11 103 6 10 12 9 84 -12z m177 -254 c4 -22 -20 -22 -61 0 -29 14
-30 17 -12 23 28 10 69 -3 73 -23z m1452 -332 c-77 -238 -114 -379 -106 -401
16 -43 36 -2 114 234 91 276 131 380 132 344 0 -40 -38 -177 -121 -430 -89
-271 -101 -328 -75 -367 43 -65 113 12 131 142 7 55 19 74 29 47 14 -35 -16
-160 -59 -249 -51 -106 -149 -245 -173 -245 -17 0 -208 105 -217 119 -3 5 8
50 25 100 16 50 34 129 40 175 11 88 40 188 71 246 l19 35 -7 -65 c-6 -59 -5
-64 10 -52 18 15 73 152 140 348 25 72 60 166 78 210 61 143 45 43 -31 -191z
m931 166 c41 -10 97 -30 126 -43 l52 -23 -59 -123 c-58 -121 -126 -227 -169
-266 l-21 -19 -1 -1656 c0 -1758 -5 -2071 -31 -2098 -21 -20 -56 -9 -63 20 -2
12 -6 843 -9 1847 -2 1207 -7 1843 -14 1877 -7 34 -25 71 -50 105 -45 60 -112
189 -137 263 -16 49 -16 50 6 67 35 29 170 63 265 67 17 0 64 -8 105 -18z
m-3023 -78 c11 -16 39 -66 62 -112 53 -106 130 -189 230 -247 84 -48 123 -81
115 -95 -7 -11 -39 -4 -113 22 -126 45 -221 114 -267 193 -77 131 -101 343
-27 239z m269 -494 c94 -35 97 -40 62 -149 -38 -121 -83 -202 -131 -233 -23
-15 -50 -26 -58 -25 -26 5 -35 82 -23 197 13 131 50 225 90 231 1 0 28 -10 60
-21z m306 -79 c72 -46 134 -140 162 -247 14 -54 26 -254 39 -630 l5 -153 -164
0 c-125 0 -165 3 -165 13 0 6 -5 113 -10 237 -13 287 -27 460 -46 533 -25 104
-16 186 28 250 27 39 87 38 151 -3z m1537 6 c0 -14 -4 -28 -10 -31 -6 -4 -10
7 -10 24 0 17 5 31 10 31 6 0 10 -11 10 -24z m-1242 -92 c27 -19 27 -37 1
-135 -24 -91 -43 -122 -59 -99 -5 8 -10 26 -10 39 0 14 -12 42 -26 62 -26 38
-41 105 -31 134 8 20 95 20 125 -1z m-1666 -25 c54 -29 91 -246 54 -317 -19
-36 -14 -52 28 -91 14 -14 26 -32 26 -41 0 -9 -30 -75 -67 -146 -37 -71 -82
-167 -99 -214 -18 -47 -38 -86 -46 -88 -19 -4 -160 79 -245 144 -160 122 -197
192 -196 364 1 128 25 192 96 255 127 115 357 183 449 134z m146 -45 c29 -70
92 -335 92 -383 l0 -34 -32 25 c-53 39 -74 93 -82 205 -4 54 -14 128 -22 165
-24 107 4 122 44 22z m209 51 l36 -15 -5 -244 c-5 -241 -12 -292 -36 -263 -26
31 -92 250 -122 407 -20 99 -20 105 -3 117 23 17 86 16 130 -2z m1441 -40 c4
-48 -83 -619 -111 -734 -15 -60 -26 -86 -37 -86 -12 0 -15 22 -18 130 -4 205
48 517 114 673 29 69 47 75 52 17z m198 -34 c133 -93 297 -284 280 -326 -12
-33 -252 -209 -321 -235 -34 -13 -50 -2 -59 42 -12 58 -66 94 -66 44 0 -13 9
-53 20 -87 17 -57 18 -66 5 -86 -16 -23 -61 -41 -73 -28 -11 10 -4 146 13 275
21 153 63 394 75 425 14 38 48 31 126 -24z m-837 -181 c33 -237 23 -592 -17
-607 -8 -4 -63 18 -123 48 l-109 53 0 232 0 231 66 28 c43 18 82 45 113 76 29
30 48 43 52 36 4 -7 12 -50 18 -97z m1452 -63 c100 -51 102 -83 20 -210 -58
-88 -83 -101 -138 -71 -19 10 -52 35 -74 56 -52 51 -53 91 -3 159 40 55 91 99
116 99 9 0 45 -15 79 -33z m-135 -354 l36 -43 -21 -36 c-79 -133 -260 -337
-438 -493 -261 -228 -458 -361 -535 -361 -76 0 -391 122 -788 305 -151 70
-301 139 -333 153 -42 20 -57 32 -57 47 0 26 64 221 97 295 29 66 66 107 103
115 61 13 343 -108 714 -308 119 -65 223 -117 230 -117 8 0 20 7 27 17 27 32
236 219 332 296 54 44 178 135 275 204 l177 125 73 -78 c40 -44 89 -98 108
-121z m-2209 123 c39 -25 95 -57 124 -71 30 -15 55 -28 57 -30 1 -1 -22 -55
-52 -121 -60 -133 -83 -195 -92 -254 -8 -48 -26 -56 -83 -36 -82 29 -213 99
-227 122 -14 20 -14 29 1 86 18 71 61 168 107 243 32 51 77 105 88 105 3 0 38
-20 77 -44z m1233 -436 c22 -12 17 -36 -12 -51 -15 -8 -29 -5 -64 16 -24 14
-44 30 -44 35 0 13 96 13 120 0z m896 -96 c18 -42 17 -44 -1 -44 -25 0 -75 29
-75 44 0 16 41 46 54 39 4 -3 14 -20 22 -39z m-2290 5 c86 -49 94 -65 94 -181
0 -66 -3 -97 -10 -93 -18 11 -161 305 -149 305 6 0 36 -14 65 -31z m2278 -93
c41 -17 35 6 115 -461 65 -379 63 -375 174 -525 162 -221 468 -808 484 -929 5
-35 2 -38 -57 -81 -34 -24 -86 -77 -117 -118 l-57 -73 -74 73 c-222 220 -353
419 -591 903 -148 301 -179 396 -276 845 l-27 125 93 88 c52 48 121 108 154
133 55 42 63 46 102 40 24 -3 58 -12 77 -20z m-2035 -19 c76 -38 101 -69 111
-134 12 -78 5 -83 -110 -83 l-100 0 0 48 c0 94 13 202 24 202 6 -1 40 -15 75
-33z m318 -147 c46 -23 83 -44 83 -49 0 -13 -39 -21 -105 -20 -91 1 -108 9
-123 54 -26 79 5 83 145 15z m58 -130 c48 -5 3 -7 -140 -7 -127 0 -184 3 -145
7 88 9 201 9 285 0z m374 -80 c45 -6 113 -22 149 -36 37 -14 117 -38 177 -54
l110 -28 6 -339 c9 -441 32 -655 119 -1061 60 -284 80 -483 80 -812 0 -328
-23 -603 -71 -870 -20 -111 -39 -187 -114 -465 -50 -183 -73 -335 -85 -563
-24 -461 -32 -577 -52 -752 -18 -166 -20 -221 -14 -530 5 -301 18 -642 42
-1092 l7 -128 -531 0 -531 0 -5 53 c-10 88 -35 488 -48 757 -13 290 -3 498 32
660 74 336 74 341 74 580 -1 319 -24 523 -119 1040 -97 529 -147 873 -200
1375 -24 217 -26 278 -22 460 6 243 16 313 92 615 80 322 89 395 89 725 0 220
-4 300 -17 373 -9 50 -17 94 -17 97 0 10 767 5 849 -5z m2154 -1705 c26 -52
47 -97 47 -100 0 -9 -151 -185 -159 -185 -15 0 -109 90 -131 125 -19 31 -20
36 -6 62 15 29 179 193 194 193 4 0 29 -43 55 -95z m263 -209 c61 -30 150 -66
200 -81 161 -46 384 -165 384 -205 0 -37 -66 -26 -155 27 -216 126 -259 137
-332 84 -43 -31 -93 -90 -93 -109 0 -18 -56 -52 -86 -52 -23 0 -49 21 -131
106 -57 58 -103 110 -103 115 0 17 82 139 103 154 41 29 96 19 213 -39z m280
-236 c124 -66 185 -129 141 -146 -23 -8 -61 12 -140 76 -122 98 -123 133 -1
70z m4 -147 c74 -69 87 -96 23 -48 -64 48 -163 136 -163 146 0 16 69 -32 140
-98z m-133 0 c106 -85 161 -143 135 -143 -14 0 -199 158 -205 175 -10 26 9 17
70 -32z m-65 -61 c72 -58 133 -121 124 -129 -12 -12 -59 11 -118 58 -76 60
-112 104 -104 125 7 19 13 16 98 -54z m98 -202 c13 -8 15 -240 13 -1997 -1
-2056 -9 -2730 -33 -2758 -8 -9 -25 -15 -39 -13 -47 5 -45 -254 -20 3278 5
811 12 1481 14 1488 5 14 44 16 65 2z m-2280 -4237 c24 -10 24 -11 -15 -19
-51 -11 -907 -12 -959 -1 -117 25 60 36 544 32 249 -1 415 -6 430 -12z m-665
-93 c40 -15 64 -81 76 -207 16 -179 25 -213 61 -250 33 -34 155 -102 268 -148
36 -14 205 -77 375 -140 363 -132 425 -157 425 -169 0 -6 -167 -6 -417 0 -526
11 -738 11 -883 0 -108 -8 -117 -7 -140 12 l-25 20 0 299 c-1 293 -4 332 -40
505 -8 38 -15 74 -15 79 0 12 282 12 315 -1z m234 -1 c42 -15 55 -42 96 -204
39 -158 60 -277 52 -299 -9 -23 -40 -20 -96 8 -61 31 -108 71 -126 106 -14 26
-35 165 -50 328 l-7 72 49 0 c28 0 64 -5 82 -11z m456 -26 c45 -260 69 -319
169 -419 56 -55 95 -82 181 -126 230 -117 565 -245 780 -298 72 -18 137 -36
145 -41 20 -11 -396 -11 -529 1 -85 8 -111 14 -140 34 -20 14 -76 37 -126 51
-146 42 -550 189 -651 236 -54 26 -59 32 -78 99 -16 56 -96 451 -96 475 0 20
20 23 187 24 l152 1 6 -37z"/>
<path d="M1661 10550 c-34 -27 -67 -50 -72 -50 -5 0 -9 -9 -9 -20 0 -15 7 -20
28 -20 39 0 55 -14 47 -39 -9 -29 3 -45 22 -29 36 29 84 208 56 208 -5 0 -38
-22 -72 -50z"/>
<path d="M6055 12061 c-38 -16 -43 -35 -50 -171 -8 -157 -15 -193 -50 -240
-32 -43 -31 -50 4 -50 39 0 75 -31 96 -82 14 -35 19 -91 25 -296 7 -254 13
-293 43 -263 9 9 12 77 12 269 0 231 2 261 19 295 24 48 61 77 97 77 35 0 38
19 8 46 -42 38 -46 53 -79 294 -6 42 -19 86 -29 100 -19 27 -61 36 -96 21z
m74 -58 c13 -25 41 -210 41 -271 0 -57 -8 -62 -92 -62 l-48 0 0 38 c0 80 20
274 30 293 13 24 56 25 69 2z m5 -380 c14 -4 17 -11 12 -36 -8 -39 -33 -67
-53 -60 -14 6 -53 82 -53 105 0 10 46 5 94 -9z"/>
<path d="M6631 12036 c-89 -32 -165 -141 -165 -236 -1 -99 82 -222 172 -257
58 -22 161 -22 215 1 98 43 160 138 159 246 -1 160 -113 261 -286 259 -34 0
-76 -6 -95 -13z m191 -42 c38 -20 35 -32 -8 -40 -40 -7 -171 0 -181 10 -11 11
23 38 58 46 41 10 93 4 131 -16z m77 -87 c62 -13 76 -32 34 -44 -36 -10 -329
-10 -365 0 -27 7 -38 34 -21 50 11 11 294 6 352 -6z m-32 -85 c92 -8 117 -22
90 -50 -16 -15 -41 -17 -217 -17 -176 0 -201 2 -217 17 -14 14 -15 20 -5 30
22 22 204 32 349 20z m49 -122 c30 -12 27 -32 -7 -41 -38 -11 -315 -10 -344 1
-35 13 -29 43 10 52 40 10 309 0 341 -12z m-112 -106 c9 -3 16 -9 16 -13 0
-13 -49 -31 -81 -31 -39 0 -102 27 -94 40 7 11 133 14 159 4z"/>
<path d="M6683 11180 c-62 -13 -95 -33 -148 -92 -86 -95 -92 -149 -18 -162 61
-10 469 -7 497 4 15 5 26 17 26 28 0 24 -63 129 -103 170 -52 53 -147 73 -254
52z m163 -46 c58 -27 130 -99 140 -139 3 -14 4 -28 2 -31 -24 -23 -399 -32
-450 -9 -10 4 -18 16 -18 27 0 28 119 144 172 168 50 23 79 20 154 -16z"/>
</g>
</svg>
