<?xml version="1.0" encoding="UTF-8" standalone="no"?>
<!-- Created with Inkscape (http://www.inkscape.org/) -->

<svg
   xmlns:dc="http://purl.org/dc/elements/1.1/"
   xmlns:cc="http://creativecommons.org/ns#"
   xmlns:rdf="http://www.w3.org/1999/02/22-rdf-syntax-ns#"
   xmlns:svg="http://www.w3.org/2000/svg"
   xmlns="http://www.w3.org/2000/svg"
   xmlns:sodipodi="http://sodipodi.sourceforge.net/DTD/sodipodi-0.dtd"
   xmlns:inkscape="http://www.inkscape.org/namespaces/inkscape"
   width="100.21408mm"
   height="80.559692mm"
   viewBox="0 0 100.21408 80.559692"
   version="1.1"
   id="svg4163"
   inkscape:version="0.92.3 (unknown)"
   sodipodi:docname="icon-unterrichtsmaterialien.svg">
  <defs
     id="defs4157" />
  <sodipodi:namedview
     id="base"
     pagecolor="#ffffff"
     bordercolor="#666666"
     borderopacity="1.0"
     inkscape:pageopacity="0.0"
     inkscape:pageshadow="2"
     inkscape:zoom="1.4"
     inkscape:cx="74.51274"
     inkscape:cy="165.1955"
     inkscape:document-units="mm"
     inkscape:current-layer="layer1"
     showgrid="false"
     fit-margin-top="0"
     fit-margin-left="0"
     fit-margin-right="0"
     fit-margin-bottom="0"
     inkscape:window-width="2560"
     inkscape:window-height="1016"
     inkscape:window-x="0"
     inkscape:window-y="27"
     inkscape:window-maximized="1" />
  <metadata
     id="metadata4160">
    <rdf:RDF>
      <cc:Work
         rdf:about="">
        <dc:format>image/svg+xml</dc:format>
        <dc:type
           rdf:resource="http://purl.org/dc/dcmitype/StillImage" />
        <dc:title></dc:title>
      </cc:Work>
    </rdf:RDF>
  </metadata>
  <g
     inkscape:label="Ebene 1"
     inkscape:groupmode="layer"
     id="layer1"
     transform="translate(-52.929271,-114.79009)">
    <path
       inkscape:connector-curvature="0"
       style="fill:#295969;fill-opacity:0.94117647;stroke:none;stroke-width:0.30001798;stroke-opacity:1"
       d="m 113.53648,123.96222 c -0.70864,-0.99456 -1.59039,-1.80011 -2.79706,-2.22103 -1.18207,-0.41223 -2.34765,-0.83405 -3.63082,-0.69514 -0.55294,0.0225 -1.11307,-0.006 -1.65761,0.0735 -1.48568,0.21752 -2.88976,0.70415 -4.16874,1.4926 -1.619207,0.99756 -2.956998,2.27443 -3.764645,4.03764 -0.14401,0.31442 -0.292827,0.62733 -0.448547,0.93575 -0.270587,0.53434 -0.373797,1.09537 -0.404097,1.69721 -0.064,1.26308 0.189897,2.47785 0.469207,3.68902 0.14852,0.64144 0.416137,1.25197 0.841554,1.76651 0.28684,0.34502 0.609347,0.66124 0.931267,0.97476 0.224127,0.21931 0.428737,0.44162 0.574544,0.72633 0.50493,0.98737 0.958557,1.99902 1.270587,3.06078 0.21211,0.72334 0.34051,1.47639 0.44012,2.22493 0.0489,0.36662 -0.0489,0.75365 -0.0876,1.13107 -0.0359,0.35253 -0.0168,0.71044 0.144,1.01616 0.23282,0.44493 0.25412,0.89675 0.28653,1.38579 0.0519,0.78155 0.13921,1.61139 0.98195,2.04492 0.16651,0.0858 0.21272,0.24391 0.23042,0.43052 0.0672,0.67894 0.48633,1.15267 1.02395,1.4848 1.20638,0.74434 2.52436,1.11036 3.95545,0.96635 0.16891,-0.0165 0.34652,-0.0522 0.49923,-0.12301 0.84755,-0.39272 1.51749,-0.99936 1.8601,-1.8658 0.14732,-0.37264 0.31053,-0.66485 0.62405,-0.89916 0.63094,-0.46983 0.90365,-1.12237 0.88775,-1.89461 -0.0113,-0.51513 0.0633,-1.03686 -0.11101,-1.5448 -0.0417,-0.12061 -0.0399,-0.28172 0.003,-0.40172 0.27422,-0.74495 0.18721,-1.49769 0.0807,-2.25404 -0.0237,-0.16861 -0.078,-0.34562 -0.0498,-0.50673 0.0768,-0.44162 0.15181,-0.88956 0.29702,-1.31108 0.64323,-1.8619 1.30237,-3.71781 2.24023,-5.46062 0.29432,-0.54723 0.56013,-1.11246 0.80765,-1.68249 0.19291,-0.44163 0.40951,-0.89286 0.48903,-1.36089 0.20341,-1.20097 0.1545,-2.40135 -0.16651,-3.58791 -0.32967,-1.22168 -0.9273,-2.31554 -1.65004,-3.3299 z m -10.79854,19.05083 c -0.0352,-0.0405 -0.0423,-0.135 -0.0216,-0.18961 0.0204,-0.0558 0.0906,-0.12811 0.14011,-0.12961 0.17161,-0.003 0.34892,-0.003 0.51393,0.0378 0.64264,0.16142 1.29668,0.16381 1.95161,0.16651 1.06957,0.005 2.13884,0.0129 3.2075,0.008 0.30841,-0.001 0.61774,-0.0384 0.92495,-0.0663 0.15212,-0.0141 0.34172,-0.1896 0.42873,0.0459 0.0333,0.0928 -0.075,0.25502 -0.14851,0.36573 -0.22141,0.33362 -0.56643,0.50434 -0.93185,0.61594 -0.59254,0.1815 -1.19378,0.33512 -1.82291,0.33092 -0.34473,-0.002 -0.68944,0 -1.03417,0 v -0.0303 c -0.41372,0 -0.82805,-0.0166 -1.24088,0.003 -0.55862,0.0276 -1.00295,-0.20792 -1.39688,-0.56524 -0.20311,-0.18331 -0.38731,-0.38792 -0.56973,-0.59193 z m 6.95381,3.11059 c -0.36662,0.20402 -0.75965,0.31052 -1.18807,0.30092 -0.69124,-0.0138 -1.38248,-0.003 -2.07372,-0.003 v 0.0159 c -0.65615,0 -1.31349,0.0201 -1.96873,-0.008 -0.37442,-0.0166 -0.74793,-0.10047 -1.11785,-0.17702 -0.37173,-0.0768 -0.46324,-0.37202 -0.49054,-0.70234 -0.0129,-0.15183 0.10886,-0.28171 0.23132,-0.24153 2.02571,0.66244 4.06284,0.67025 6.10928,0.10319 0.19889,-0.0549 0.39361,-0.13111 0.59611,-0.1623 0.0591,-0.009 0.18062,0.0966 0.19832,0.16891 0.0753,0.29971 -0.0255,0.55502 -0.29672,0.70595 z m 3.28161,-14.70267 c -0.25863,0.52803 -0.49925,1.06687 -0.78454,1.5802 -0.96157,1.7308 -1.67532,3.56871 -2.33986,5.42431 -0.231,0.64653 -0.34112,1.33688 -0.48332,2.01192 -0.0594,0.27901 -0.22562,0.42872 -0.47193,0.48842 -0.19832,0.048 -0.41043,0.0538 -0.61625,0.0567 -0.58891,0.007 -1.17817,0.002 -1.7671,0.002 -1.00266,-0.001 -2.00802,0.0468 -3.00348,-0.13501 -0.23191,-0.0423 -0.29612,-0.0909 -0.27061,-0.32912 0.0447,-0.42723 -0.0192,-0.80975 -0.24722,-1.19137 -0.15359,-0.25741 -0.24631,-0.57724 -0.27422,-0.87784 -0.0528,-0.56734 -0.23761,-1.08156 -0.50883,-1.56729 -0.33782,-0.60394 -0.69064,-1.19917 -1.05606,-1.78631 -0.10625,-0.16951 -0.25471,-0.37652 -0.42693,-0.43202 -0.862557,-0.27909 -1.175177,-1.02943 -1.499484,-1.73777 -0.611757,-1.33627 -0.579347,-2.74697 -0.377737,-4.17145 0.177307,-1.25437 0.785754,-2.25764 1.654611,-3.15349 1.43109,-1.47668 3.17779,-2.32664 5.18431,-2.61196 0.84935,-0.1209 1.7281,-0.0368 2.59306,-0.0456 1.6522,0.40382 3.16008,0.99605 3.99803,2.65845 0.34323,0.68164 0.68675,1.35038 0.91327,2.08242 0.39422,1.27688 0.37861,2.51986 -0.21512,3.73403 z m 9.92638,-8.08488 c -0.1482,-0.081 -0.31292,-0.15482 -0.47673,-0.17611 -0.20341,-0.0255 -0.42182,-0.0276 -0.62073,0.0182 -1.21148,0.28052 -2.41814,0.58113 -3.57592,1.05096 -0.61623,0.25052 -0.99606,0.72635 -1.28798,1.29368 -0.0864,0.16861 0.0384,0.46412 0.22594,0.50733 0.19979,0.0465 0.40591,0.063 0.57752,0.0877 0.31051,-0.0315 0.59523,-0.0243 0.86015,-0.0937 1.00235,-0.26192 2.00321,-0.53253 2.99447,-0.83405 0.35943,-0.10886 0.69904,-0.29762 1.03057,-0.48003 0.24781,-0.1362 0.39242,-0.36813 0.50312,-0.63784 0.0999,-0.24571 -0.0372,-0.63034 -0.23041,-0.73594 z m -0.66813,9.19464 c -0.39243,-0.12751 -0.78874,-0.23851 -1.21148,-0.23281 -0.89615,0.0102 -1.79201,8.9e-4 -2.68816,0.0102 -0.20492,0.002 -0.41463,0.0224 -0.61264,0.0729 -0.47492,0.12062 -0.91205,0.31593 -1.20636,0.73805 -0.15692,0.22562 -0.11462,0.56973 0.0909,0.75304 0.24451,0.21752 0.53641,0.30723 0.85503,0.30962 0.65434,0.005 1.30897,0.001 1.96361,0.001 v -0.001 c 0.65465,0 1.30898,0.002 1.96422,-8.9e-4 0.42303,-0.002 0.81485,-0.13321 1.18027,-0.33363 0.38073,-0.2079 0.43684,-0.77614 0.10319,-1.05726 -0.1287,-0.10886 -0.28082,-0.20911 -0.43892,-0.26042 z M 99.240016,118.29788 c 0.336927,0.47553 0.624637,0.98646 0.936064,1.47999 0.16501,0.26161 0.32582,0.52653 0.50493,0.77765 0.22591,0.31682 0.54723,0.39902 0.91266,0.30782 0.28682,-0.0717 0.46502,-0.33782 0.49142,-0.71044 0.008,-0.10228 0.001,-0.20582 0.001,-0.53584 -0.0268,-0.11521 -0.0928,-0.45002 -0.18392,-0.77765 -0.1785,-0.64084 -0.58562,-1.15927 -0.92615,-1.7152 -0.39989,-0.65284 -1.047647,-0.85775 -1.710684,-1.03777 -0.378627,-0.10318 -0.763857,0.30843 -0.651347,0.69515 0.15272,0.52473 0.29762,1.05337 0.625547,1.51629 z m -4.559671,8.62042 c 0.498324,-0.0186 0.875752,-0.25922 1.037459,-0.71585 0.136808,-0.38732 -0.212709,-0.61263 -0.441626,-0.85864 -0.04706,-0.0498 -0.101714,-0.0972 -0.16201,-0.12811 -0.767143,-0.38912 -1.518088,-0.81606 -2.309532,-1.14757 -0.515132,-0.21541 -1.079768,-0.19111 -1.583495,0.1383 -0.538533,0.35193 -0.619238,1.18328 0.101373,1.4797 0.729649,0.29972 1.434395,0.66304 2.161038,0.97295 0.311422,0.13351 0.650433,0.20161 0.846954,0.26011 0.211204,0 0.280817,0.002 0.349521,-6e-4 z m 16.121175,-7.53645 c 0.29521,-0.14191 0.49593,-0.37772 0.62944,-0.66094 0.32311,-0.68404 0.63993,-1.37139 0.93575,-2.06742 0.16651,-0.39303 0.12481,-0.81365 0.0426,-1.22258 -0.0576,-0.28322 -0.33991,-0.45993 -0.62583,-0.40953 -0.54093,0.0948 -0.95136,0.36543 -1.21387,0.86256 -0.39362,0.74554 -0.56074,1.54659 -0.62884,2.50095 0.0224,0.15241 0.0351,0.42873 0.10715,0.69004 0.0912,0.32792 0.44794,0.45272 0.75306,0.30661 z m -15.088216,14.81129 c -0.400524,0.12 -0.922255,0.14791 -1.367776,0.42812 -0.24002,0.15121 -0.409528,0.37202 -0.48633,0.63993 -0.03334,0.11521 -0.0177,0.28082 0.04468,0.38073 0.237908,0.37712 0.629135,0.56643 1.044063,0.54093 0.473731,-0.031 0.94025,-0.19531 1.330277,-0.49082 0.257713,-0.19532 0.414023,-0.45904 0.328823,-0.80406 -0.0945,-0.38162 -0.437433,-0.67354 -0.892851,-0.69454 z M 108.8778,133.5898 c -0.0939,0.0352 -0.17281,0.10886 -0.2604,0.1632 -0.25232,0.15692 -0.32373,0.14822 -0.46714,-0.0777 -0.11067,-0.17431 -0.19891,-0.36362 -0.31742,-0.53192 -0.16951,-0.24152 -0.43893,-0.29192 -0.73473,-0.15272 -0.0609,0.0288 -0.11463,0.0768 -0.16412,0.12481 -0.11341,0.10886 -0.22892,0.13921 -0.35612,0.0255 -0.54094,-0.47913 -1.22257,-0.44163 -1.86672,-0.46263 -0.68704,-0.0224 -1.15477,0.47164 -1.20127,1.16317 -0.0117,0.17162 -10e-4,0.34502 -10e-4,0.70865 0.0129,0.15361 0.0141,0.50133 0.0735,0.83975 0.1383,0.77945 0.30271,1.5538 0.46082,2.32964 0.10954,0.53973 0.21811,1.07975 0.34352,1.61619 0.08,0.34232 0.24631,0.64743 0.53133,0.86465 0.10557,0.08 0.25501,0.17701 0.36722,0.1587 0.55354,-0.0888 1.07016,0.007 1.5865,0.19981 0.25831,0.096 0.48003,-0.0438 0.62734,-0.2505 0.097,-0.13561 0.14851,-0.30723 0.20642,-0.46714 0.27901,-0.77824 0.54092,-1.56217 0.83193,-2.33622 0.36303,-0.96816 0.67835,-1.95012 0.93667,-2.95129 0.0426,-0.1644 0.0735,-0.33691 0.0729,-0.50552 0,-0.31142 -0.37772,-0.56643 -0.66784,-0.45843 z m -3.30019,2.89067 c -0.007,0.0288 -0.0447,0.0496 -0.0684,0.0747 -0.0182,-0.0199 -0.048,-0.0375 -0.0525,-0.0609 -0.12151,-0.60003 -0.24091,-1.20097 -0.36093,-1.8016 0.0447,-0.49774 0.16802,-0.60934 0.65615,-0.56014 0.1536,0.0159 0.28472,0.0984 0.25681,0.24571 -0.13021,0.70325 -0.28291,1.4029 -0.43081,2.10253 z m 2.56155,-1.33567 c -0.25801,0.63543 -0.51453,1.27207 -0.78545,1.9021 -0.0303,0.0699 -0.14401,0.10319 -0.22021,0.15301 l -0.0512,-0.2025 c 0.0819,-0.60664 0.1425,-1.22378 0.25591,-1.83042 0.0693,-0.37442 0.22081,-0.43982 0.70714,-0.34562 0.0522,0.0102 0.11941,0.0735 0.13111,0.12361 0.0147,0.0609 -0.012,0.13711 -0.0378,0.20041 z"
       id="path2747-3" />
    <g
       transform="matrix(0.85409749,0,0,0.57879059,48.199181,134.25266)"
       id="g2877"
       style="fill:#295969;fill-opacity:0.94117647;stroke:none;stroke-opacity:1">
      <path
         style="fill:#295969;fill-opacity:0.94117647;stroke:none;stroke-opacity:1"
         inkscape:connector-curvature="0"
         d="m 122.571,46.611 c -0.622,-0.328 -1.237,-0.667 -1.867,-0.981 -0.459,-0.228 -0.921,-0.437 -1.392,-0.634 -0.629,-0.262 -0.96,-0.691 -0.953,-1.401 0.032,-3.061 0.046,-6.123 0.082,-9.187 0.008,-0.688 -0.231,-1.202 -0.879,-1.451 -0.953,-0.365 -1.899,-0.783 -2.886,-1.011 -3.285,-0.764 -6.62,-1.363 -9.987,-1.491 -4.192,-0.16 -8.392,-0.186 -12.582,-0.062 -5.131,0.151 -10.13,1.18 -15.002,2.827 -2.632,0.891 -5.094,2.133 -7.528,3.432 -1.646,0.88 -2.176,0.541 -3.277,-0.416 -0.384,-0.334 -0.741,-0.704 -1.088,-1.081 -1.608,-1.743 -3.484,-3.142 -5.472,-4.43 -3.71,-2.402 -7.672,-4.27 -11.772,-5.892 -5.397,-2.133 -11.006,-3.038 -16.779,-3.069 -0.818,0 -1.643,-0.066 -2.453,0.013 -2.133,0.213 -4.265,0.452 -6.384,0.754 -1.043,0.149 -1.536,0.816 -1.602,1.92 -0.049,0.816 -0.056,1.635 -0.107,2.45 -0.125,1.998 0.008,2.342 -2.242,2.202 -1.355,-0.085 -1.629,0.181 -1.925,1.427 -0.828,3.477 -1.653,6.955 -2.439,10.441 -0.29,1.293 -0.557,2.603 -0.688,3.919 -0.465,4.587 -1.361,9.08 -2.637,13.512 -0.871,3.038 -1.655,6.114 -2.257,9.216 -1.067,5.509 -1.995,11.047 -2.92,16.585 -0.2,1.2 -0.224,2.446 -0.192,3.666 0.013,0.446 0.347,0.941 0.653,1.312 0.461,0.563 1.067,0.883 1.853,0.921 3.266,0.16 6.528,0.371 9.792,0.565 0.613,0.035 1.229,0.045 1.838,0.115 3.243,0.37 6.485,0.755 9.728,1.131 0.61,0.07 1.224,0.107 1.83,0.179 3.443,0.403 6.866,1.013 10.36,0.923 1.533,-0.043 3.072,0.011 4.603,0.088 0.704,0.036 1.404,0.213 2.095,0.371 1.34,0.303 2.229,0.981 2.11,2.534 -0.039,0.504 0.036,1.024 0.114,1.53 0.335,2.2 2.211,4.421 4.669,4.622 0.84,0.067 1.613,0.222 2.334,0.644 1.28,0.752 2.749,0.896 4.149,0.975 1.602,0.093 3.378,0.149 4.657,-1.056 1.163,-1.097 2.586,-1.604 3.933,-2.315 1.067,-0.565 2.106,-0.634 3.257,-0.382 2.491,0.547 4.977,1.144 7.496,1.496 2.153,0.299 4.201,0.877 6.219,1.606 3.01,1.085 6.091,1.692 9.301,1.678 1.429,-0.006 2.84,0.083 4.267,0.369 1.993,0.4 4.043,0.52 6.074,0.736 0.507,0.053 1.022,0.032 1.534,0.015 0.971,-0.032 1.212,-0.245 1.568,-1.138 1.173,-2.955 1.76,-6.073 2.472,-9.152 1.079,-4.674 2.005,-9.385 3.034,-14.072 0.877,-3.987 1.745,-7.981 2.731,-11.942 0.745,-2.976 1.169,-6.031 1.982,-8.965 1.04,-3.748 1.329,-7.648 2.541,-11.352 0.267,-0.814 0.032,-1.794 0.032,-2.699 z m -55.099,8.598 c 0.237,-2.032 0.363,-4.082 0.736,-6.086 0.358,-1.926 0.466,-3.856 0.539,-5.797 0.016,-0.411 0.021,-0.821 0.051,-1.229 0.101,-1.44 0.717,-2.396 2.168,-2.97 4.569,-1.816 9.207,-3.377 14.048,-4.288 3.938,-0.741 7.923,-0.904 12.273,-0.8 4.896,-0.274 10.056,0.515 15.203,1.363 1.099,0.181 2.163,0.597 3.221,0.966 0.832,0.288 0.939,0.563 0.747,1.376 -2.768,11.834 -5.6,23.654 -8.264,35.509 -1.165,5.178 -2.155,10.405 -2.746,15.691 -0.098,0.883 -0.309,1.035 -1.243,0.743 -3.522,-1.092 -7.108,-1.85 -10.76,-2.376 -3.776,-0.544 -7.563,-0.693 -11.32,-0.203 -4.96,0.645 -9.861,1.699 -14.743,2.799 -1.39,0.313 -2.746,0.77 -4.117,1.163 -0.403,0.117 -0.803,-0.209 -0.747,-0.669 0.238,-1.824 0.486,-3.645 0.757,-5.461 0.569,-3.84 1.161,-7.672 1.734,-11.509 0.544,-3.637 1.101,-7.272 1.602,-10.914 0.333,-2.432 0.576,-4.873 0.861,-7.307 z M 15.136,44.663 c 0.107,-0.056 0.315,0.085 0.589,0.175 -0.184,0.235 -0.344,0.434 -0.501,0.635 -0.136,-0.114 -0.377,-0.229 -0.378,-0.347 -0.002,-0.16 0.145,-0.384 0.291,-0.463 z m -0.469,12.384 c 0.395,-0.331 0.9,-0.432 1.389,-0.179 0.142,0.072 0.297,0.282 0.294,0.427 0,0.155 -0.147,0.388 -0.288,0.445 -0.363,0.146 -0.753,0.211 -1.045,0.286 l -0.654,-0.228 c 0.096,-0.256 0.122,-0.595 0.303,-0.749 z m -0.937,4.587 c 0.629,-0.626 1.451,-0.64 2.261,-0.371 0.13,0.045 0.188,0.312 0.277,0.475 -0.064,0.192 -0.081,0.416 -0.198,0.565 -0.623,0.813 -1.626,0.69 -2.475,0.945 -0.027,0.011 -0.256,-0.343 -0.229,-0.504 0.064,-0.384 0.117,-0.864 0.365,-1.109 z m 4.331,14.287 0.011,-0.107 c 2.018,0.282 4.043,0.508 6.048,0.853 1.702,0.293 3.379,0.715 5.062,1.099 0.184,0.043 0.341,0.2 0.512,0.305 -0.184,0.077 -0.367,0.22 -0.552,0.221 -0.712,0.004 -1.44,0.047 -2.136,-0.077 -3.454,-0.625 -6.896,-0.546 -10.342,0.04 -0.597,0.103 -1.22,0.143 -1.828,0.122 -0.26,-0.008 -0.649,-0.189 -0.736,-0.395 -0.096,-0.231 0.024,-0.606 0.152,-0.869 0.333,-0.686 0.922,-1.106 1.675,-1.179 0.706,-0.067 1.423,-0.014 2.138,-0.014 z m -3.203,-9.658 c 0.133,0.053 0.186,0.316 0.312,0.548 -0.099,0.222 -0.154,0.64 -0.348,0.723 -0.725,0.307 -1.499,0.514 -2.264,0.721 -0.048,0.014 -0.285,-0.314 -0.267,-0.462 0.178,-1.469 1.21,-2.084 2.565,-1.53 z m -3.305,5.69 c 0.141,-0.395 1.453,-0.625 1.965,-0.382 0.152,0.075 0.232,0.309 0.344,0.469 0.12,1.499 -0.866,2.458 -2.443,2.336 -0.139,-0.011 -0.388,-0.277 -0.368,-0.384 0.128,-0.689 0.267,-1.385 0.504,-2.04 z m -1.124,6.127 c 0.416,-0.643 1.139,-0.768 1.845,-0.823 0.117,-0.011 0.312,0.231 0.377,0.397 0.072,0.175 0.036,0.395 0.046,0.573 -0.032,0.945 -0.174,1.077 -1.018,0.922 C 11.295,79.08 10.873,79.04 10.553,78.848 10.401,78.756 10.316,78.251 10.428,78.08 Z m 23.129,9.916 c -1.736,-0.018 -3.477,0.019 -5.209,-0.085 -2.244,-0.131 -4.482,-0.373 -6.571,-0.555 -3.357,0.552 -6.464,-0.38 -9.618,-0.576 -0.12,-0.007 -0.331,-0.237 -0.32,-0.346 0.019,-0.178 0.171,-0.354 0.292,-0.51 0.059,-0.07 0.179,-0.091 0.27,-0.139 1.152,-0.635 2.301,-1.267 3.453,-1.899 1.269,0.352 2.517,0.808 3.808,1.03 1.711,0.293 3.456,0.373 5.178,0.6 1.824,0.24 3.633,0.579 5.457,0.813 1.259,0.162 2.328,0.732 3.385,1.358 0.075,0.043 0.112,0.146 0.167,0.221 -0.096,0.032 -0.194,0.088 -0.291,0.085 z M 44.38,86.894 c -0.096,0.025 -0.203,0.002 -0.667,0.002 C 42.86,86.74 41.622,86.623 40.456,86.273 37.917,85.505 35.24,85.278 32.782,84.188 32.057,83.865 31.193,83.854 30.396,83.689 27.49,83.092 24.587,82.511 21.593,82.59 c -0.712,0.021 -1.468,0.026 -2.133,-0.183 -1.227,-0.384 -2.389,-0.507 -3.573,0.078 -0.171,0.083 -0.441,0.131 -0.593,0.053 -1.579,-0.794 -2.971,-0.07 -4.403,0.469 -1.058,0.4 -1.277,0.213 -1.227,-0.941 0.035,-0.808 0.075,-0.829 1.072,-0.869 0.399,-0.015 0.821,-0.005 1.182,-0.143 0.491,-0.188 0.957,-0.384 1.468,-0.158 1.653,0.734 3.408,0.576 5.141,0.597 0.614,0.007 1.229,-0.011 1.845,-0.038 3.291,-0.153 6.528,0.245 9.749,0.883 1.102,0.219 2.221,0.352 3.331,0.529 3.869,0.608 7.492,1.998 11.077,3.503 0.156,0.066 0.274,0.218 0.412,0.331 -0.189,0.064 -0.373,0.142 -0.565,0.195 z m 3.774,-5.28 c -2.693,-1.448 -5.374,-2.95 -8.336,-3.837 -3.029,-0.904 -6.037,-1.884 -9.074,-2.763 -4.533,-1.312 -9.177,-1.946 -13.885,-2.139 -0.488,-0.021 -0.783,-0.333 -0.702,-0.752 0.348,-1.796 0.853,-3.561 1.013,-5.4 0.051,-0.578 0.401,-1.156 0.707,-1.678 0.329,-0.557 0.427,-1.101 0.405,-1.743 -0.027,-0.701 -0.061,-1.511 0.247,-2.091 0.646,-1.222 0.772,-2.489 0.91,-3.814 0.156,-1.517 0.549,-3.01 0.815,-4.516 0.881,-5.024 1.749,-10.048 2.421,-15.111 0.485,-3.659 0.352,-7.349 0.945,-10.741 -0.073,-0.552 -0.224,-0.899 -0.126,-1.148 0.131,-0.337 0.402,-0.736 0.71,-0.86 0.459,-0.183 1,-0.156 1.507,-0.201 1.323,-0.12 2.645,-0.245 3.968,-0.341 0.613,-0.048 1.23,-0.085 1.841,-0.053 5.668,0.302 11.119,1.591 16.29,3.907 3.074,1.378 6.066,2.95 9.045,4.527 2.089,1.105 3.94,2.571 5.564,4.299 0.984,1.05 2.005,2.061 3.273,2.754 0.911,0.499 0.861,1.084 0.678,2.023 -0.771,4.005 -1.408,8.038 -2.059,12.066 -0.568,3.525 -1.115,7.055 -1.611,10.592 -0.523,3.741 -0.953,7.492 -1.476,11.232 -0.411,2.931 -0.907,5.851 -1.355,8.779 -0.187,1.207 -0.333,2.424 -0.541,3.63 -0.085,0.493 -0.274,0.966 -0.437,1.442 -0.026,0.075 -0.189,0.173 -0.248,0.151 -0.171,-0.058 -0.352,-0.145 -0.474,-0.273 -0.132,-0.146 -0.316,-0.376 -0.283,-0.526 0.352,-1.555 -0.651,-2.17 -1.786,-2.81 -2.667,-1.504 -5.253,-3.157 -7.947,-4.608 z m 10.499,12.9 c -0.139,0.099 -0.245,0.219 -0.288,0.201 -0.4,-0.206 -0.789,-0.433 -1.176,-0.665 -0.004,-0.002 0.048,-0.16 0.092,-0.173 0.171,-0.043 0.399,-0.132 0.518,-0.061 0.306,0.189 0.565,0.452 0.853,0.698 z m 7.621,2.821 c -1.776,1.28 -3.752,1.978 -6.499,2.04 -2.083,0.243 -3.883,-1.177 -5.463,-3.008 -0.518,-0.602 -0.377,-1.338 -0.301,-2.044 0.011,-0.098 0.059,-0.196 0.111,-0.279 0.011,-0.019 0.153,0.008 0.181,0.05 0.107,0.163 0.178,0.356 0.292,0.512 1.669,2.315 3.989,3.373 6.784,3.475 1.274,0.047 2.366,-0.218 3.133,-1.442 0.457,-0.725 1.202,-0.661 1.792,-0.051 0.112,0.117 0.139,0.339 0.156,0.516 0.006,0.075 -0.105,0.174 -0.183,0.233 z m 14.304,-1.617 c -0.101,0.288 -0.19,0.584 -0.275,0.877 -0.164,0.572 -0.567,0.806 -1.133,0.818 -0.205,0.004 -0.409,0 -0.698,0 -1.739,-0.228 -3.559,-0.466 -5.376,-0.725 -0.146,-0.018 -0.269,-0.173 -0.402,-0.267 0.181,-0.078 0.358,-0.203 0.549,-0.235 1.608,-0.258 3.218,-0.501 4.829,-0.747 0.704,-0.107 1.408,-0.245 2.114,-0.305 0.341,-0.028 0.515,0.21 0.389,0.582 z M 66.4,94.176 c -1.44,0.482 -2.926,0.869 -4.416,1.177 -0.6,0.124 -1.362,0.324 -1.813,-0.401 -0.049,0 -0.099,-0.005 -0.147,-0.004 -0.035,-0.06 -0.07,-0.12 -0.109,-0.176 -0.072,-0.032 -0.142,-0.064 -0.213,-0.093 0.06,0.011 0.142,0 0.177,0.036 0.016,0.016 0.021,0.04 0.036,0.058 l 0.192,0.085 c 0.019,0.036 0.043,0.062 0.064,0.096 0.366,0.011 0.763,0.082 1.052,-0.062 3.232,-1.602 6.718,-2.278 10.229,-2.842 2.805,-0.452 5.536,-1.222 8.354,-1.653 2.329,-0.355 4.642,-0.525 6.976,-0.578 3.471,-0.077 6.893,0.4 10.293,1.04 0.123,0.023 0.222,0.183 0.326,0.32 h 0.149 c 0.018,0.037 0.04,0.062 0.06,0.096 0.54,0.021 1.079,0.037 1.616,0.08 0.13,0.011 0.253,0.143 0.376,0.218 -0.085,0.043 -0.176,0.128 -0.258,0.122 -0.604,-0.046 -1.32,0.286 -1.733,-0.421 l -0.134,-0.008 c -0.025,-0.026 -0.049,-0.059 -0.073,-0.09 -1.685,-0.005 -3.368,-0.026 -5.052,-0.011 -3.671,0.028 -7.356,-0.103 -11.011,0.16 -5.074,0.363 -10.086,1.22 -14.941,2.848 z m 20.887,1.38 c -0.337,0.725 -0.68,1.448 -1.03,2.165 -0.238,0.486 -0.582,0.814 -1.175,0.668 -0.715,-0.176 -1.116,-0.627 -1.085,-1.213 0.013,-0.201 0.055,-0.395 0.072,-0.597 0.139,-1.576 0.112,-1.762 2.035,-1.757 0.2,0 0.399,-0.007 0.597,0 0.501,0.025 0.766,0.352 0.587,0.734 z m 6.503,0.214 c -0.45,1.027 -0.939,2.037 -1.357,3.075 -0.732,1.813 -0.69,1.587 -2.457,1.061 -0.747,-0.222 -0.83,-0.381 -0.578,-1.071 0.424,-1.15 0.851,-2.298 1.33,-3.424 0.096,-0.229 0.407,-0.427 0.661,-0.515 0.277,-0.096 0.605,-0.046 0.912,-0.059 0.305,0.025 0.611,0.045 0.915,0.078 0.412,0.047 0.725,0.504 0.574,0.853 z m 25.408,-43.056 c -0.717,2.449 -1.536,4.868 -2.272,7.312 -0.504,1.66 -0.859,3.328 -0.949,5.094 -0.082,1.603 -0.627,3.189 -1.041,4.764 -0.622,2.37 -1.4,4.701 -1.936,7.088 -0.537,2.385 -0.864,4.815 -1.269,7.226 -0.085,0.504 0,1.071 -0.201,1.515 -1.24,2.72 -1.414,5.736 -2.461,8.501 -0.075,0.198 -0.262,0.352 -0.429,0.512 l -0.013,0.196 -0.1,0.053 c 0.07,1.937 -0.747,3.678 -1.269,5.48 -0.197,0.675 -0.975,0.667 -1.496,0.928 -0.427,0.213 -0.693,-0.188 -0.973,-0.499 -0.496,-0.552 -1.056,-0.478 -1.632,-0.069 -0.323,0.229 -0.661,0.475 -1.032,0.597 -0.515,0.168 -1.234,-0.56 -1.069,-1.039 0.166,-0.48 0.459,-0.947 0.506,-1.437 0.043,-0.469 -0.064,-1.011 -0.277,-1.434 -0.16,-0.309 -0.569,-0.56 -0.922,-0.683 -0.416,-0.146 -0.939,0.277 -1.103,0.835 -0.171,0.581 -0.309,1.179 -0.407,1.777 -0.248,1.528 -0.261,1.562 -1.604,1.557 -0.51,-0.003 -1.035,0.004 -1.52,-0.117 -0.184,-0.048 -0.448,-0.508 -0.388,-0.672 0.388,-1.05 0.879,-2.064 1.297,-3.104 0.693,-1.73 0.685,-1.756 2.24,-1.6 0.808,0.078 1.618,0.203 2.413,0.376 1.411,0.302 2.79,0.578 4.164,-0.207 0.309,-0.177 0.797,-0.103 1.192,-0.059 0.742,0.088 1.291,-0.324 1.884,-0.629 -0.002,-0.047 0.003,-0.091 0,-0.136 0.035,-0.04 0.075,-0.077 0.113,-0.114 0.221,-3.192 0.419,-6.389 0.678,-9.579 0.099,-1.218 0.348,-2.424 0.53,-3.637 0.587,-3.928 1.303,-7.835 2.03,-11.742 0.994,-5.344 2.667,-10.477 4.401,-15.605 0.653,-1.926 1.52,-3.802 1.544,-5.902 0.004,-0.203 0.32,-0.555 0.512,-0.571 0.25,-0.021 0.643,0.157 0.763,0.369 0.29,0.516 0.651,1.109 0.632,1.661 -0.04,1.005 -0.25,2.025 -0.535,2.993 z M 72.9,59.804 c 0.194,-0.066 0.389,-0.128 0.565,-0.224 1.995,-1.111 4.187,-1.584 6.403,-1.931 2.511,-0.395 5.032,-0.709 7.549,-1.058 1.553,0.16 3.044,0.331 4.56,0.661 3.376,0.738 6.8,1.267 10.208,1.856 0.496,0.085 1.019,0.05 1.523,0.002 0.537,-0.051 1.081,-0.704 1.146,-1.284 0.067,-0.594 -0.325,-1.295 -0.866,-1.467 -0.384,-0.123 -0.786,-0.197 -1.186,-0.262 -2.511,-0.41 -5.04,-0.738 -7.533,-1.237 -3.92,-0.789 -7.829,-1.267 -11.81,-0.507 -2.296,0.437 -4.621,0.749 -6.912,1.216 -1.702,0.347 -3.322,0.977 -4.76,1.992 -0.672,0.472 -0.917,1.34 -0.562,1.862 0.29,0.432 1.016,0.599 1.675,0.381 z m -2.679,13.625 c 0.264,0.094 0.608,0.011 0.909,-0.047 3.821,-0.745 7.665,-1.28 11.563,-1.394 0.102,-0.003 0.203,-0.025 0.304,-0.043 2.545,-0.482 5.088,-0.392 7.629,0.04 2.115,0.363 4.222,0.763 6.341,1.093 1.003,0.158 2.022,0.248 3.038,0.284 0.585,0.018 1.101,-0.579 1.212,-1.205 0.132,-0.741 -0.288,-1.483 -0.978,-1.709 -0.192,-0.066 -0.392,-0.107 -0.592,-0.153 -4.501,-1.021 -9.096,-1.306 -13.68,-1.667 -1.832,0.154 -3.667,0.282 -5.498,0.469 -2.339,0.242 -4.678,0.489 -7.004,0.825 -1.001,0.146 -1.979,0.498 -2.948,0.813 -0.373,0.122 -0.747,0.355 -1.024,0.632 -0.386,0.386 -0.498,0.946 -0.211,1.408 0.187,0.302 0.587,0.523 0.939,0.651 z m 0.958,-6.809 c 0.704,-0.011 1.436,-0.045 2.105,-0.245 4.245,-1.276 8.608,-1.683 13.01,-1.731 1.323,-0.014 2.671,0.043 3.968,0.285 2.101,0.391 4.157,1.019 6.253,1.444 1.995,0.405 3.957,1.069 6.031,0.928 0.544,-0.035 0.956,-0.338 1.131,-0.882 0.235,-0.741 -0.016,-1.621 -0.559,-1.918 -0.264,-0.147 -0.555,-0.27 -0.846,-0.333 -2.69,-0.587 -5.365,-1.251 -8.077,-1.707 -2.208,-0.373 -4.459,-0.491 -6.737,-0.727 -1.995,0.2 -4.035,0.331 -6.053,0.627 -3.025,0.448 -6.054,0.915 -8.969,1.894 -0.574,0.192 -1.169,0.422 -1.635,0.785 -0.237,0.186 -0.304,0.718 -0.264,1.072 0.018,0.2 0.416,0.512 0.64,0.508 z m 4.323,-21.675 c 0.378,0.005 0.771,-0.233 1.137,-0.408 2.827,-1.344 5.809,-1.904 8.928,-1.862 4.498,0.059 8.998,-0.256 13.488,0.486 2.31,0.38 4.689,0.347 6.938,1.139 0.092,0.036 0.2,0.038 0.302,0.045 0.687,0.043 1.584,-0.928 1.504,-1.856 -0.134,-0.171 -0.328,-0.555 -0.64,-0.764 -0.32,-0.213 -0.752,-0.302 -1.152,-0.363 -2.421,-0.363 -4.838,-0.765 -7.272,-1.035 -2.336,-0.262 -4.689,-0.523 -7.035,-0.523 -3.168,0 -6.336,0.239 -9.502,0.4 -2.512,0.13 -4.779,1.048 -6.914,2.307 -0.341,0.2 -0.7,0.505 -0.85,0.846 -0.139,0.318 -0.141,0.843 0.043,1.109 0.186,0.277 0.668,0.476 1.024,0.48 z m -1.8,7.496 c 1.419,-0.565 2.797,-1.282 4.259,-1.681 2.863,-0.781 5.83,-1.024 8.783,-1.187 1.832,-0.1 3.686,-0.066 5.513,0.117 3.552,0.355 7.115,0.651 10.6,1.493 0.579,0.139 1.231,0.136 1.819,0.029 0.325,-0.06 0.691,-0.427 0.846,-0.749 0.229,-0.474 0.16,-1.073 -0.296,-1.382 -0.491,-0.333 -1.075,-0.599 -1.656,-0.709 -1.001,-0.192 -2.04,-0.173 -3.043,-0.363 -3.723,-0.704 -7.467,-1.163 -11.467,-0.999 -3.706,-0.176 -7.544,0.304 -11.343,1.184 -1.493,0.346 -2.957,0.802 -4.288,1.595 -0.341,0.206 -0.686,0.462 -0.932,0.771 -0.335,0.422 -0.363,0.941 -0.139,1.443 0.171,0.377 0.904,0.617 1.344,0.441 z m -4.059,26.94 c 0.495,0.069 1.024,0.059 1.515,-0.043 2.003,-0.402 3.983,-0.915 5.992,-1.267 2.009,-0.352 4.043,-0.768 6.066,-0.77 1.92,0 3.853,0.416 5.752,0.796 2.702,0.539 5.376,1.209 8.064,1.819 0.198,0.046 0.401,0.07 0.604,0.079 0.484,0.021 1.138,-0.517 1.358,-1.099 0.174,-0.459 -0.187,-1.344 -0.661,-1.571 -0.274,-0.128 -0.57,-0.219 -0.861,-0.309 -2.059,-0.64 -4.163,-0.998 -6.31,-1.152 -1.12,-0.081 -2.24,-0.184 -3.358,-0.296 -1.624,-0.16 -3.248,-0.338 -4.456,-0.467 -1.758,0.136 -3.1,0.142 -4.405,0.358 -3.221,0.537 -6.427,1.166 -9.637,1.76 -0.096,0.019 -0.186,0.075 -0.271,0.126 -0.395,0.245 -0.517,0.619 -0.424,1.047 0.12,0.549 0.498,0.919 1.032,0.992 z M 27.298,41.16 c 0.85,0.318 1.728,0.597 2.619,0.771 1.397,0.273 2.824,0.405 4.224,0.676 5.419,1.05 10.782,2.3 15.659,5.019 2.048,1.138 4.013,2.429 6.016,3.648 0.868,0.533 1.728,1.082 2.613,1.584 0.386,0.218 1.067,-0.023 1.365,-0.405 0.363,-0.469 0.348,-1.331 -0.036,-1.701 -0.147,-0.139 -0.297,-0.283 -0.464,-0.395 -1.008,-0.696 -2.012,-1.397 -3.038,-2.069 -3.685,-2.406 -7.505,-4.555 -11.765,-5.792 -2.445,-0.712 -4.882,-1.48 -7.363,-2.034 -2.283,-0.51 -4.619,-0.766 -6.443,-1.056 -1.434,0.124 -2.353,0.164 -3.253,0.312 -0.203,0.034 -0.462,0.434 -0.484,0.683 -0.022,0.249 0.154,0.686 0.352,0.757 z m 28.414,21.912 c -0.151,-0.139 -0.294,-0.288 -0.464,-0.4 -1.703,-1.124 -3.322,-2.421 -5.137,-3.317 -2.357,-1.169 -4.731,-2.384 -7.456,-2.635 -1.923,-0.179 -3.816,-0.657 -5.736,-0.896 -2.833,-0.354 -5.678,-0.615 -8.463,-0.91 -0.877,0.047 -1.696,0.049 -2.499,0.16 -0.228,0.032 -0.533,0.363 -0.576,0.597 -0.043,0.226 0.145,0.634 0.347,0.736 0.717,0.376 1.458,0.797 2.237,0.939 2.603,0.475 5.227,0.856 7.848,1.237 2.219,0.324 4.453,0.542 6.661,0.909 1.404,0.231 2.755,0.672 4.067,1.283 1.675,0.781 3.261,1.681 4.783,2.72 0.923,0.629 1.891,1.205 2.883,1.73 0.722,0.376 1.613,0.203 1.98,-0.261 0.377,-0.477 0.165,-1.31 -0.48,-1.894 z M 31.032,33.456 c 0.793,0.195 1.592,0.368 2.387,0.549 4.299,0.981 8.509,2.193 12.39,4.365 1.427,0.797 2.928,1.465 4.399,2.179 1.939,0.942 3.769,2.046 5.423,3.449 0.696,0.591 1.493,1.071 2.283,1.544 0.608,0.363 1.44,0.058 1.847,-0.602 0.333,-0.536 0.288,-1.262 -0.143,-1.702 -0.283,-0.292 -0.576,-0.597 -0.92,-0.8 -3.264,-1.913 -6.392,-4.053 -9.88,-5.577 -1.499,-0.654 -2.965,-1.387 -4.429,-2.112 -4.175,-2.076 -8.69,-2.915 -13.33,-3.675 -0.206,0.047 -0.56,0.037 -0.779,0.203 -0.301,0.228 -0.674,0.58 -0.689,0.896 -0.016,0.32 0.318,0.71 0.594,0.971 0.2,0.189 0.548,0.241 0.845,0.313 z m -3.846,15.691 c 0.192,0.064 0.384,0.154 0.582,0.184 1.512,0.242 3.029,0.452 4.542,0.715 2.923,0.501 5.833,1.088 8.604,2.161 4.779,1.847 9.372,4.081 13.756,6.741 0.606,0.366 1.275,0.645 1.941,0.893 0.645,0.243 1.349,-0.081 1.525,-0.636 0.175,-0.544 0.021,-1.013 -0.399,-1.376 -0.228,-0.195 -0.512,-0.328 -0.776,-0.483 -4.316,-2.545 -8.779,-4.8 -13.358,-6.844 -3.109,-1.389 -6.415,-2.059 -9.699,-2.797 -1.589,-0.357 -3.232,-0.464 -4.797,-0.678 -0.674,0.072 -1.305,0.064 -1.881,0.235 -0.339,0.1 -0.672,0.441 -0.869,0.757 -0.2,0.318 0.318,0.957 0.829,1.127 z m 24.603,20.037 c -0.774,-0.48 -1.685,-0.731 -2.499,-1.155 -4.96,-2.592 -10.283,-3.904 -15.808,-4.491 -1.016,-0.107 -2.03,-0.224 -3.035,-0.333 -1.227,0.147 -2.453,0.248 -3.659,0.466 -0.471,0.085 -1.232,0.388 -1.275,0.679 -0.091,0.627 0.685,0.427 1.073,0.567 0.661,0.245 1.373,0.378 2.072,0.499 2.716,0.472 5.448,0.858 8.149,1.4 2.904,0.581 5.803,1.28 8.489,2.549 2.289,1.083 4.717,1.922 6.736,3.537 0.608,0.485 1.349,0.316 1.886,-0.32 0.407,-0.483 0.465,-1.184 -0.025,-1.67 -0.643,-0.64 -1.338,-1.254 -2.105,-1.73 z"
         id="path2875" />
    </g>
  </g>
</svg>
