<?xml version="1.0" encoding="UTF-8" standalone="no"?>
<!-- Created with Inkscape (http://www.inkscape.org/) -->
<svg xmlns="http://www.w3.org/2000/svg" xmlns:xlink="http://www.w3.org/1999/xlink" version="1.0" width="800" height="800">
<defs><filter id="f"><feGaussianBlur stdDeviation="10" in="SourceAlpha" result="blur"/><feOffset in="blur" dx="10" dy="10" result="off"/><feBlend in="SourceGraphic" in2="off" result="blend"/><feMerge><feMergeNode in="blend"/></feMerge></filter></defs>
<g filter="url(#f)">
<path d="M 155.25669,342.3332 L 164.60057,339.80174 L 191.80938,596.31993 L 94.25291,484.36722 L 72.364742,502.63106 L 65.882239,495.71296 L 98.723503,466.34951 L 178.01623,556.41403 L 155.25669,342.3332 z" fill="#f5a568"/>
<path d="M 140.45942,299.19047 L 34.545764,181.50124 L 37.772578,178.59729 L 172.65917,166.06208 L 198.48604,33.964257 L 201.89213,30.898964 L 304.98248,145.45098 L 276.95384,175.05539 L 273.72723,171.47003 C 281.05316,163.14643 284.84036,155.54733 285.08873,148.67262 C 285.33673,141.79793 282.50306,135.07401 276.58778,128.50084 L 216.89541,62.17182 L 194.10764,173.85171 L 67.180401,186.03763 L 133.16468,259.3581 C 136.92903,263.54086 141.84962,267.3862 147.92659,270.89406 C 152.12715,273.27824 156.68487,274.28676 161.5998,273.91958 C 166.51448,273.55208 172.72149,271.34586 180.22086,267.3009 L 182.82007,271.45088 L 140.45942,299.19047 z" fill="#c871cf"/>
<path d="M 595.6005,314.48353 C 600.83079,314.48362 605.18146,316.31423 608.65262,319.97537 C 612.1235,323.63678 613.85907,328.27275 613.85917,333.88336 C 613.85907,339.49416 612.1235,344.13021 608.65262,347.79135 C 605.18146,351.45267 600.83079,353.28328 595.6005,353.28319 C 590.37003,353.28328 586.01936,351.45267 582.54839,347.79135 C 579.07732,344.13021 577.34174,339.49416 577.34184,333.88336 C 577.34174,328.27275 579.07732,323.63678 582.54839,319.97537 C 586.01936,316.31423 590.37003,314.48362 595.6005,314.48353 L 595.6005,314.48353 z M 639.10739,392.22546 C 644.33768,392.22555 648.68836,394.05616 652.15951,397.71739 C 655.63039,401.37862 657.36597,406.01467 657.36606,411.62529 C 657.36597,417.23608 655.63039,421.87205 652.15951,425.53328 C 648.68836,429.1946 644.33768,431.02521 639.10739,431.02512 C 633.87693,431.02521 629.52625,429.1946 626.05537,425.53328 C 622.58422,421.87205 620.84864,417.23608 620.84873,411.62529 C 620.84864,406.01467 622.58422,401.37862 626.05537,397.71739 C 629.52625,394.05616 633.87693,392.22555 639.10739,392.22546 L 639.10739,392.22546 z M 552.09348,392.22546 C 557.32377,392.22555 561.67453,394.05616 565.14559,397.71739 C 568.61657,401.37862 570.35214,406.01467 570.35214,411.62529 C 570.35214,417.23608 568.61657,421.87205 565.14559,425.53328 C 561.67453,429.1946 557.32377,431.02521 552.09348,431.02512 C 546.8631,431.02521 542.51243,429.1946 539.04146,425.53328 C 535.5703,421.87205 533.83482,417.23608 533.83482,411.62529 C 533.83482,406.01467 535.5703,401.37862 539.04146,397.71739 C 542.51243,394.05616 546.8631,392.22555 552.09348,392.22546 L 552.09348,392.22546 z" fill="#7a8deb"/>
<path d="M 464.40823,183.40702 L 457.54547,185.98863 C 454.68761,168.9709 454.47876,154.78023 456.91908,143.41654 C 459.3593,132.05345 464.55058,123.29226 472.49284,117.13357 C 480.43485,110.97517 498.62215,102.5482 527.054,91.852278 L 624.88212,55.891101 L 639.40387,49.868753 C 641.08285,53.34099 642.04536,55.403523 642.2913,56.056945 L 643.98253,61.296288 L 647.05659,70.212235 L 650.28382,78.791054 L 627.12042,86.385439 L 604.6629,95.113012 C 613.18801,139.09735 621.96861,173.09935 631.00454,197.11944 C 642.92928,228.81974 658.28731,241.13517 677.07884,234.06617 C 685.90239,230.74708 693.03405,221.44251 698.47433,206.15283 L 704.48277,207.24997 C 703.50584,230.93326 700.94166,245.93393 696.79025,252.25197 C 692.63836,258.57023 687.45778,262.89727 681.24867,265.23302 C 655.10422,275.06788 633.73361,257.92607 617.13743,213.80732 C 607.73254,188.80674 599.6528,150.7174 592.898,99.538807 C 589.01656,100.62604 586.01393,101.5691 583.88988,102.3679 C 581.92886,103.10569 579.75368,104.0172 577.36417,105.10253 L 567.65217,109.03564 L 549.72824,114.93909 L 536.27884,120.83757 C 534.97169,121.32959 532.81676,122.04705 529.81399,122.9898 C 552.92821,206.25208 565.6039,257.67454 567.8412,277.2575 C 570.07834,296.84053 564.98769,308.96775 552.5693,313.63933 C 547.8305,315.422 542.96727,315.38598 537.97982,313.53175 C 532.99206,311.67765 529.57625,308.29928 527.73214,303.3973 C 525.27335,296.86113 526.0819,288.34987 530.15795,277.86343 C 536.57648,260.71334 539.23706,244.97696 538.13939,230.65442 C 537.04173,216.33188 530.34473,181.91898 518.04909,127.4156 L 504.53677,131.65912 C 494.07901,135.59327 485.17552,140.80801 477.82622,147.3028 C 470.47705,153.79827 466.00443,165.83281 464.40823,183.40702 L 464.40823,183.40702 z" fill="#6fc584"/>
<path d="M 475.61953,289.31459 L 491.23428,306.53101 L 388.92689,399.3206 C 396.30455,406.62542 403.59777,412.42671 410.80645,416.72424 C 418.0152,421.02199 425.34783,423.58939 432.80419,424.42659 C 440.2607,425.26394 447.79831,424.03354 455.41709,420.73545 C 463.03579,417.43743 471.96465,411.14519 482.20368,401.85872 L 534.596,354.34052 L 550.21068,371.55685 L 497.32292,419.52439 C 489.23076,426.86373 481.76272,432.73403 474.91889,437.13522 C 468.0749,441.53655 461.24737,444.7943 454.43617,446.90846 C 447.62488,449.02268 440.05225,449.7581 431.7182,449.11476 C 423.38414,448.47143 415.42465,446.62311 407.83956,443.5698 C 400.2544,440.51656 392.69331,436.16229 385.15623,430.50692 C 377.61921,424.85179 370.21841,418.01943 362.954,410.00972 C 351.12128,396.96343 342.6092,385.00624 337.41768,374.13823 C 332.22637,363.27045 329.63016,351.77953 329.62916,339.66525 C 329.62835,327.55135 332.52854,316.22986 338.32972,305.70076 C 344.13096,295.17205 353.71997,283.84147 367.09666,271.70894 L 417.87878,225.65115 L 433.49353,242.86756 L 382.58751,289.03773 C 374.41282,296.45206 368.19824,302.9162 363.94385,308.43006 C 359.68952,313.94431 356.78696,319.2482 355.23629,324.3415 C 353.68566,329.43519 353.2123,335.09426 353.81612,341.3188 C 354.42008,347.54349 356.39024,354.07152 359.72667,360.90281 C 363.06317,367.73432 367.63295,374.76404 373.43595,381.99189 L 475.61953,289.31459 z" fill="#f17768"/>
<path d="M 290.59926,287.38534 L 324.37158,174.19833 C 328.79314,160.68048 333.7884,148.95804 339.35703,139.03123 C 344.92549,129.10503 350.31536,121.96422 355.52687,117.60883 C 359.31126,114.41497 364.2577,111.98329 370.36628,110.31394 C 376.47454,108.64531 382.01249,108.46895 386.98019,109.785 C 393.51627,111.51748 398.65521,115.22273 402.39701,120.90074 C 406.13848,126.57947 407.31644,132.0331 405.93096,137.26177 C 404.30256,143.40612 401.26272,147.88196 396.81135,150.68915 C 392.35963,153.49719 387.58485,154.22539 382.4868,152.87412 C 377.91129,151.66187 373.56725,147.9924 369.45491,141.86578 C 367.14093,138.4548 364.8728,136.45465 362.65072,135.86552 C 360.42825,135.27683 358.31425,135.73091 356.3087,137.22776 C 354.30298,138.72523 352.69387,141.76142 351.48159,146.33651 C 350.06104,151.69651 348.13782,161.32983 345.71162,175.23665 C 336.31027,230.24635 327.24478,274.22229 318.51507,307.16474 C 316.08994,316.31558 306.09855,350.32276 288.54098,409.18658 C 282.10202,430.84428 276.30855,447.42666 271.16072,458.93366 C 264.3198,474.18912 257.88112,484.75958 251.84462,490.64477 C 245.80801,496.52993 239.89219,500.24363 234.09718,501.78588 C 228.3022,503.32801 222.46335,503.31961 216.58085,501.76086 C 209.78318,499.95932 204.81628,496.26475 201.6802,490.677 C 198.54414,485.08913 197.89421,478.83099 199.73024,471.90264 C 201.28915,466.02004 204.20297,461.75564 208.47172,459.10945 C 212.7406,456.46329 217.42415,455.8158 222.52239,457.16684 C 227.75129,458.55252 231.70708,461.8392 234.38947,467.02708 C 237.07189,472.21484 239.72037,475.15521 242.33494,475.84808 C 244.55722,476.43699 246.62982,476.00686 248.55286,474.55785 C 250.4758,473.10868 252.00885,470.2272 253.15205,465.9133 C 254.60703,460.42287 256.09724,452.42351 257.62295,441.91526 C 260.35439,422.63278 264.50947,400.09009 270.08836,374.28697 C 277.14545,341.32099 283.9824,312.35387 290.59926,287.38534 L 290.59926,287.38534 z" fill="#946edb"/>
<path d="M 473.01674,533.41071 C 483.87233,508.50638 495.76579,491.26482 508.69727,481.68602 C 521.62814,472.10768 539.26878,467.31836 561.61921,467.31805 C 587.32171,467.31836 609.0332,476.57761 626.754,495.09612 C 644.47419,513.6151 653.33436,537.6414 653.33482,567.17536 C 653.33436,596.39038 644.71358,620.41684 627.47248,639.25474 C 610.23061,658.0928 590.99347,667.51175 569.76106,667.51175 C 555.55248,667.51175 542.66131,663.12151 531.08724,654.34104 C 519.51286,645.56071 505.50413,627.1219 489.06105,599.02443 C 478.84362,618.82035 467.66848,633.06863 455.53579,641.7691 C 443.40263,650.46973 428.71542,654.82012 411.47401,654.81997 C 388.48511,654.82012 369.04843,646.59842 353.16397,630.15503 C 337.27936,613.71179 329.33705,592.47908 329.33705,566.45704 C 329.33705,540.27561 336.68073,519.12274 351.36794,502.99843 C 366.05514,486.87473 383.21686,478.81273 402.85323,478.81243 C 417.54029,478.81273 430.03253,482.60419 440.32965,490.18711 C 450.62646,497.77033 461.52221,512.1783 473.01674,533.41071 L 473.01674,533.41071 z M 496.00549,582.02226 C 507.34001,605.80949 518.79454,622.29257 530.36892,631.47213 C 541.94283,640.65169 555.39294,645.24147 570.71893,645.24132 C 590.35484,645.24147 606.75824,638.13734 619.92926,623.92891 C 633.09951,609.72064 639.68487,590.72304 639.68518,566.93597 C 639.68487,543.46844 632.74043,524.07176 618.8517,508.74562 C 604.96235,493.42009 589.39698,485.75717 572.15572,485.75687 C 561.13997,485.75717 551.52148,488.59092 543.30009,494.25795 C 535.07824,499.9256 527.61487,508.90547 520.90997,521.19786 C 517.07836,528.38215 508.77681,548.65685 496.00549,582.02226 L 496.00549,582.02226 z M 466.0723,551.84952 C 458.24953,534.28888 449.30951,521.35771 439.25209,513.05601 C 429.19436,504.75477 416.82196,500.60408 402.13476,500.60377 C 385.21243,500.60408 371.04401,506.55081 359.62948,518.44411 C 348.21495,530.33773 342.50761,546.26219 342.50776,566.21749 C 342.50761,587.45036 348.1351,604.41254 359.39009,617.10416 C 370.64492,629.79595 383.37655,636.14176 397.58498,636.14161 C 412.75096,636.14176 426.16107,629.35686 437.81529,615.78706 C 445.31836,606.84704 454.73731,585.53463 466.0723,551.84952 L 466.0723,551.84952 z" fill="#6dc5d3"/>
</g>
</svg>
