<?xml version="1.0" standalone="no"?>
<!DOCTYPE svg PUBLIC "-//W3C//DTD SVG 20010904//EN"
 "http://www.w3.org/TR/2001/REC-SVG-20010904/DTD/svg10.dtd">
<svg version="1.0" xmlns="http://www.w3.org/2000/svg"
 width="1280.000000pt" height="907.000000pt" viewBox="0 0 1280.000000 907.000000"
 preserveAspectRatio="xMidYMid meet">
<metadata>
Created by potrace 1.15, written by Peter Selinger 2001-2017
</metadata>
<g transform="translate(0.000000,907.000000) scale(0.100000,-0.100000)"
fill="#295969" stroke="none">
<path d="M6215 9046 c-20 -30 -17 -65 7 -80 26 -16 50 13 52 61 1 32 -2 38
-21 41 -14 2 -27 -5 -38 -22z"/>
<path d="M6240 8914 c-11 -28 -13 -117 -4 -151 4 -13 12 -23 19 -23 16 0 28
140 15 175 -12 32 -18 32 -30 -1z"/>
<path d="M6173 8898 c-44 -55 -58 -144 -28 -178 12 -13 13 -23 5 -44 -23 -62
5 -101 42 -56 16 20 18 35 12 149 -7 128 -13 152 -31 129z"/>
<path d="M6295 8750 c-9 -15 4 -30 26 -30 22 0 24 11 7 28 -15 15 -25 15 -33
2z"/>
<path d="M6270 8696 c-19 -51 -33 -117 -25 -124 11 -11 44 36 56 80 9 34 8 43
-5 56 -14 14 -16 13 -26 -12z"/>
<path d="M6109 8507 c-25 -20 -39 -53 -39 -96 0 -31 4 -41 20 -46 28 -9 50 11
50 44 0 17 10 36 26 50 14 12 24 30 22 39 -4 21 -56 27 -79 9z"/>
<path d="M6254 8499 c-3 -5 2 -21 11 -36 14 -20 15 -30 6 -50 -14 -30 -14 -53
-1 -53 6 0 13 14 17 30 3 17 9 30 14 30 12 0 11 37 -1 59 -12 23 -37 34 -46
20z"/>
<path d="M6181 8340 c-21 -12 -8 -53 21 -70 33 -18 54 -4 45 33 -7 26 -47 49
-66 37z"/>
<path d="M6047 8259 c-24 -14 -37 -50 -25 -71 12 -24 20 -23 72 13 60 40 62
45 24 58 -38 13 -48 13 -71 0z"/>
<path d="M6364 8257 c-7 -20 18 -110 31 -109 6 0 14 14 19 30 13 47 -33 122
-50 79z"/>
<path d="M6170 8193 c-50 -5 -70 -17 -53 -34 13 -13 233 -2 233 12 0 14 -110
28 -180 22z"/>
<path d="M5930 8098 c-40 -27 -73 -79 -64 -102 10 -27 43 -18 64 17 10 17 38
43 61 57 52 31 54 44 9 48 -24 2 -47 -4 -70 -20z"/>
<path d="M6354 8096 c-10 -25 12 -43 71 -61 30 -8 57 -20 60 -25 4 -6 -12 -38
-34 -71 l-41 -61 0 -170 c0 -154 2 -174 20 -203 16 -26 18 -38 11 -58 -8 -22
-18 -26 -66 -32 -35 -5 -72 -3 -95 4 -55 16 -201 14 -256 -5 -43 -14 -48 -14
-63 1 -15 14 -14 19 7 55 32 57 29 70 -16 70 -54 0 -75 -25 -70 -86 l3 -47
-60 -41 c-52 -36 -61 -47 -69 -84 -13 -61 6 -78 40 -37 30 37 30 37 77 76 20
17 40 42 43 55 7 28 12 29 33 10 14 -13 33 -13 148 2 130 16 132 16 220 -6 48
-12 106 -25 128 -28 82 -13 111 -44 117 -124 3 -32 14 -43 138 -137 74 -57
170 -135 213 -175 43 -40 83 -74 88 -76 18 -7 23 31 6 43 -10 7 -17 17 -17 24
0 6 -9 11 -20 11 -11 0 -20 6 -20 13 0 24 -108 133 -179 182 -39 26 -72 54
-75 62 -3 7 -17 18 -32 23 -21 8 -25 15 -20 33 9 37 -16 98 -60 144 -30 30
-44 55 -49 83 -4 22 -19 57 -33 77 -27 38 -27 40 -27 213 0 167 1 177 23 204
15 20 22 42 22 72 0 54 -21 70 -102 80 -48 6 -59 4 -64 -10z"/>
<path d="M5962 7905 c-16 -35 -34 -243 -24 -279 8 -30 36 -55 48 -44 11 12 10
326 -2 338 -7 7 -14 3 -22 -15z"/>
<path d="M6264 7894 c-8 -32 0 -166 11 -184 13 -21 23 15 24 80 1 105 -19 167
-35 104z"/>
<path d="M6064 7839 c-12 -20 -9 -168 4 -181 9 -9 12 11 12 90 0 101 -2 113
-16 91z"/>
<path d="M6160 7833 c0 -5 -4 -34 -9 -65 -11 -64 1 -128 24 -128 12 0 15 15
15 69 0 78 -9 131 -21 131 -5 0 -9 -3 -9 -7z"/>
<path d="M6058 7278 c-41 -33 -96 -154 -127 -283 -46 -187 -67 -528 -35 -574
25 -35 36 -12 39 78 2 86 13 111 51 111 27 0 44 26 44 67 0 42 -22 68 -50 60
-23 -6 -23 -5 -16 63 11 121 47 247 117 406 29 67 17 103 -23 72z"/>
<path d="M5695 7173 c-57 -31 -180 -128 -255 -203 -136 -134 -291 -393 -365
-608 -41 -121 -46 -177 -14 -187 28 -9 32 -2 69 117 38 123 131 308 223 446
79 119 195 239 331 342 62 47 85 70 83 85 -3 26 -33 29 -72 8z"/>
<path d="M5905 7126 c-66 -91 -101 -148 -121 -197 -38 -93 -74 -246 -80 -344
-6 -78 -4 -92 11 -105 15 -13 19 -12 31 5 8 10 17 33 20 51 5 29 30 64 41 57
22 -17 43 39 31 83 -4 17 -15 37 -23 44 -31 25 -8 122 71 308 24 57 44 106 44
108 0 9 -16 3 -25 -10z"/>
<path d="M6514 7095 c-4 -10 9 -83 29 -164 53 -217 52 -197 15 -215 -17 -9
-34 -16 -38 -16 -4 0 -10 33 -14 73 -12 133 -37 248 -58 269 -36 36 -43 10
-30 -115 7 -63 12 -135 12 -161 0 -43 -1 -45 -20 -34 -15 9 -22 10 -31 1 -17
-17 -23 -97 -9 -122 10 -19 17 -22 46 -16 27 5 34 3 34 -10 0 -10 5 -13 12 -9
8 5 9 0 4 -17 -13 -42 -11 -53 5 -57 12 -2 18 7 23 30 10 51 30 72 55 59 14
-8 27 -8 45 0 20 9 29 9 41 -1 8 -7 22 -9 31 -6 18 7 18 9 -32 207 -63 256
-102 353 -120 304z"/>
<path d="M6259 7063 c-8 -20 -7 -103 0 -283 15 -331 18 -354 50 -316 13 15 17
379 6 477 -9 81 -26 149 -36 149 -5 0 -14 -12 -20 -27z"/>
<path d="M6097 7008 c-26 -101 -37 -517 -16 -591 11 -42 30 -45 40 -6 8 30 -2
577 -11 603 -6 18 -8 17 -13 -6z"/>
<path d="M6685 7001 c-3 -6 8 -68 24 -137 35 -141 36 -161 16 -188 -16 -21
-20 -84 -7 -101 4 -6 19 -16 34 -22 17 -8 28 -22 33 -42 8 -38 31 -59 47 -43
9 9 9 36 1 109 -25 229 -113 480 -148 424z"/>
<path d="M5668 6950 c-22 -33 -112 -243 -134 -314 l-18 -56 -24 41 c-25 42
-25 42 -8 109 19 79 20 100 6 100 -46 0 -156 -386 -125 -436 18 -29 30 -19 54
44 19 48 30 64 49 69 30 7 42 -9 42 -59 0 -46 8 -68 25 -68 20 0 28 17 40 85
10 58 12 60 43 63 20 2 36 11 43 24 18 33 6 115 -21 143 -28 30 -24 69 20 175
33 80 37 124 8 80z"/>
<path d="M6857 6874 c-12 -13 -7 -60 13 -120 23 -71 25 -113 5 -140 -23 -31
-18 -51 25 -90 24 -23 45 -55 55 -84 16 -48 46 -86 59 -73 3 4 4 33 0 66 l-7
59 32 -16 c37 -19 56 -48 66 -96 10 -48 52 -120 72 -120 18 0 19 -3 -36 195
-56 198 -103 305 -134 305 -10 0 -5 -80 9 -162 13 -74 -12 -37 -44 65 -50 155
-92 233 -115 211z"/>
<path d="M7030 6812 c0 -36 31 -67 48 -50 19 19 14 45 -10 62 -31 22 -38 20
-38 -12z"/>
<path d="M6186 6774 c-47 -47 -17 -152 38 -131 12 5 16 20 16 65 0 74 -21 100
-54 66z"/>
<path d="M7097 6753 c-12 -12 -7 -54 7 -59 8 -3 19 -25 25 -50 6 -25 18 -47
26 -50 8 -4 15 -14 15 -23 0 -9 7 -24 15 -34 7 -10 35 -81 61 -158 26 -76 51
-139 56 -139 6 0 7 7 4 16 -15 40 -45 167 -41 174 6 10 -59 166 -97 235 -7 11
-18 32 -25 46 -16 32 -37 51 -46 42z"/>
<path d="M5285 6566 c-20 -30 -29 -87 -16 -105 13 -21 56 -6 69 24 33 73 -13
143 -53 81z"/>
<path d="M6647 6545 c-7 -16 8 -29 23 -20 15 9 12 35 -4 35 -8 0 -16 -7 -19
-15z"/>
<path d="M6165 6343 c-95 -4 -494 -41 -580 -53 -108 -16 -361 -80 -382 -96
-16 -14 -14 -15 27 -10 25 3 97 11 160 17 112 10 152 17 350 62 82 18 128 21
345 21 154 1 285 -4 340 -12 137 -19 347 -60 475 -92 146 -36 191 -43 210 -31
23 15 -11 45 -84 75 -130 51 -613 131 -756 124 -19 -1 -66 -3 -105 -5z"/>
<path d="M5899 6221 c-21 -21 -29 -39 -29 -65 0 -96 96 -81 107 17 9 78 -26
100 -78 48z"/>
<path d="M6157 6220 c-14 -11 -29 -30 -32 -41 -9 -26 20 -69 46 -69 30 0 69
44 69 78 0 53 -38 67 -83 32z"/>
<path d="M6432 6197 c-41 -43 -22 -99 33 -99 52 0 81 54 55 103 -15 27 -61 25
-88 -4z"/>
<path d="M7300 6152 c0 -81 18 -117 83 -167 30 -23 46 -46 64 -95 37 -98 37
-99 18 -120 -24 -27 -16 -65 14 -65 20 0 26 7 35 40 l11 39 23 -29 c26 -32 24
-58 -11 -135 -17 -37 -22 -70 -25 -197 -4 -154 3 -193 33 -193 19 0 23 21 34
170 6 79 17 147 30 184 26 73 27 165 4 214 -10 21 -35 47 -65 65 l-48 30 0 58
c0 63 1 61 -97 129 -27 19 -45 40 -48 57 -8 39 -28 76 -42 81 -10 3 -13 -15
-13 -66z"/>
<path d="M5682 6203 c-7 -3 -19 -18 -28 -34 -30 -58 29 -116 71 -69 21 23 24
72 5 94 -13 16 -25 18 -48 9z"/>
<path d="M6653 6175 c-27 -19 -29 -46 -7 -80 21 -32 37 -31 64 2 29 38 24 87
-10 91 -14 1 -35 -4 -47 -13z"/>
<path d="M5441 6144 c-24 -31 -26 -44 -8 -68 33 -45 98 13 77 68 -12 34 -43
34 -69 0z"/>
<path d="M6883 6126 c-24 -21 -26 -27 -18 -52 14 -41 55 -44 84 -8 25 32 26
47 5 68 -21 22 -38 20 -71 -8z"/>
<path d="M5270 6108 c-14 -15 -20 -33 -18 -53 3 -26 7 -30 36 -33 41 -4 72 21
72 58 0 52 -52 68 -90 28z"/>
<path d="M4940 6071 c-32 -32 -52 -63 -60 -90 -7 -25 -32 -64 -65 -102 -73
-82 -84 -121 -56 -205 19 -55 21 -81 19 -231 -3 -170 5 -220 35 -210 16 5 34
106 43 232 6 86 4 109 -15 169 -33 107 -30 125 34 194 34 37 62 79 75 115 13
35 35 68 60 91 51 46 56 86 10 86 -24 0 -43 -12 -80 -49z"/>
<path d="M5116 6064 c-9 -8 -16 -29 -16 -45 0 -22 6 -30 24 -35 14 -3 30 -3
35 1 15 9 14 68 -1 83 -16 16 -23 15 -42 -4z"/>
<path d="M7096 6067 c-17 -12 -17 -17 -5 -42 21 -43 45 -54 63 -30 21 28 20
62 -3 75 -26 13 -33 13 -55 -3z"/>
<path d="M6257 6054 c-12 -13 -7 -51 8 -64 22 -18 37 0 33 36 -3 28 -26 43
-41 28z"/>
<path d="M6434 6035 c-15 -23 -15 -27 0 -50 18 -28 27 -30 44 -13 23 23 9 88
-20 88 -4 0 -15 -11 -24 -25z"/>
<path d="M5787 6032 c-22 -24 -21 -35 1 -55 26 -24 41 -21 48 9 5 18 1 31 -13
45 -19 19 -20 19 -36 1z"/>
<path d="M6060 6031 c-12 -24 -4 -48 21 -61 14 -8 21 -6 29 11 16 29 4 69 -20
69 -11 0 -24 -9 -30 -19z"/>
<path d="M6560 6035 c-27 -33 15 -90 46 -64 19 16 18 65 -2 73 -23 9 -30 8
-44 -9z"/>
<path d="M5902 6028 c-18 -18 -15 -43 8 -63 16 -15 22 -15 35 -5 27 23 13 80
-20 80 -6 0 -16 -5 -23 -12z"/>
<path d="M5646 6011 c-23 -25 -6 -64 26 -59 29 4 46 33 32 56 -16 24 -37 26
-58 3z"/>
<path d="M6667 6023 c-21 -20 1 -73 30 -73 17 0 35 44 27 65 -6 15 -45 21 -57
8z"/>
<path d="M7245 6010 c-15 -17 -16 -24 -7 -45 16 -34 39 -41 62 -20 24 22 26
48 4 69 -21 21 -37 20 -59 -4z"/>
<path d="M5531 5992 c-13 -24 12 -62 40 -62 25 0 35 25 21 56 -14 29 -47 32
-61 6z"/>
<path d="M6820 5995 c-14 -17 -5 -52 19 -64 20 -11 35 -4 44 22 16 42 -35 76
-63 42z"/>
<path d="M6936 5974 c-21 -21 -20 -37 4 -59 16 -15 22 -15 35 -5 18 15 20 51
3 68 -16 16 -23 15 -42 -4z"/>
<path d="M5434 5945 c-8 -21 2 -45 20 -45 7 0 16 7 20 15 8 21 -3 45 -20 45
-8 0 -17 -7 -20 -15z"/>
<path d="M7090 5945 c-10 -12 -10 -21 -2 -41 15 -32 39 -41 59 -21 13 13 13
19 1 43 -15 34 -39 41 -58 19z"/>
<path d="M5308 5928 c-8 -21 2 -38 23 -38 14 0 19 7 19 25 0 18 -5 25 -19 25
-10 0 -21 -6 -23 -12z"/>
<path d="M6067 5918 c-12 -48 -19 -313 -9 -338 l10 -25 11 29 c12 30 34 266
27 288 -3 7 -7 25 -10 41 -8 33 -22 35 -29 5z"/>
<path d="M5182 5908 c-17 -17 -15 -32 8 -53 26 -23 43 -9 38 31 -3 31 -26 42
-46 22z"/>
<path d="M6530 5873 c-16 -52 -10 -277 7 -294 7 -7 16 -9 20 -5 13 13 10 313
-4 327 -9 9 -14 2 -23 -28z"/>
<path d="M7212 5883 c-11 -18 10 -73 27 -73 17 0 42 39 39 62 -4 30 -51 38
-66 11z"/>
<path d="M5051 5852 c-12 -23 4 -52 28 -52 23 0 31 18 20 48 -10 26 -35 29
-48 4z"/>
<path d="M5609 5845 c-16 -39 -18 -270 -3 -285 14 -14 20 24 30 176 4 65 3
108 -4 120 -10 17 -12 17 -23 -11z"/>
<path d="M7360 5825 c-18 -22 -1 -50 31 -50 20 0 24 5 24 30 0 23 -5 31 -21
33 -11 2 -27 -4 -34 -13z"/>
<path d="M4954 5806 c-9 -24 0 -51 18 -54 19 -4 35 38 23 57 -9 16 -35 13 -41
-3z"/>
<path d="M5216 5794 c-11 -27 -7 -371 4 -354 5 8 10 44 10 80 0 46 3 61 10 50
5 -8 10 -26 10 -40 0 -36 47 -133 62 -127 17 5 19 311 2 327 -7 8 -18 5 -37
-10 l-27 -21 0 24 c0 37 -12 87 -20 87 -4 0 -11 -7 -14 -16z"/>
<path d="M5923 5778 c-12 -24 -17 -58 -17 -123 -1 -135 35 -212 107 -229 25
-6 27 -10 27 -59 0 -60 18 -94 44 -84 14 6 17 18 15 74 l-3 68 87 3 c90 3 108
13 60 34 -16 7 -29 13 -31 14 -2 1 4 13 13 27 9 14 20 65 26 120 9 84 9 100
-7 132 -16 35 -57 65 -70 52 -22 -22 -34 -237 -13 -237 5 0 7 -5 3 -12 -4 -7
-10 -28 -14 -48 l-5 -35 -88 -3 -88 -3 5 43 c28 225 23 298 -20 298 -7 0 -21
-15 -31 -32z"/>
<path d="M4877 5773 c-11 -10 -8 -41 4 -49 16 -9 41 20 33 39 -6 17 -25 22
-37 10z"/>
<path d="M5496 5767 c-23 -17 -35 -80 -36 -189 0 -83 2 -89 29 -120 16 -18 32
-30 35 -27 13 12 26 126 25 209 -1 126 -14 156 -53 127z"/>
<path d="M5679 5738 c-19 -38 -21 -54 -18 -177 l4 -136 -52 -5 c-28 -3 -55 -9
-59 -12 -19 -20 96 -38 161 -27 17 4 21 -3 26 -51 8 -62 17 -90 30 -90 15 0
29 48 29 100 0 43 -4 52 -32 74 l-32 24 12 104 c19 158 16 204 -10 222 -32 22
-35 21 -59 -26z"/>
<path d="M5829 5759 c-19 -34 -26 -314 -8 -335 7 -9 16 -11 21 -6 14 14 29
191 22 267 -8 89 -17 107 -35 74z"/>
<path d="M6399 5754 c-16 -19 -19 -141 -7 -235 8 -54 7 -56 -19 -68 -27 -12
-27 -13 -9 -27 16 -11 17 -16 6 -30 -20 -24 -18 -111 4 -132 16 -16 18 -16 32
2 8 12 14 43 14 77 0 32 3 60 8 62 4 2 40 1 80 -2 83 -7 92 -14 92 -81 0 -46
24 -95 41 -85 12 8 12 120 0 143 -5 9 -12 24 -15 33 -5 17 -29 27 -113 49
l-42 11 5 97 c6 107 -7 165 -43 189 -17 12 -22 11 -34 -3z"/>
<path d="M6964 5739 c-28 -53 -24 -269 5 -269 17 0 23 35 28 151 4 70 2 123
-5 134 -9 17 -12 15 -28 -16z"/>
<path d="M7139 5738 c-9 -22 -13 -68 -12 -138 2 -119 12 -166 36 -164 12 1 18
-9 22 -35 13 -78 29 -116 51 -119 18 -3 23 4 28 33 8 42 -3 203 -15 227 -13
25 -37 11 -45 -25 -12 -57 -23 -2 -23 131 -1 97 -4 122 -15 122 -7 0 -20 -15
-27 -32z"/>
<path d="M6625 5708 c-31 -67 -31 -109 0 -176 26 -57 52 -75 67 -49 13 24 28
21 28 -5 0 -28 15 -54 23 -41 22 35 36 274 18 302 -10 15 -31 7 -31 -13 0 -8
-7 -19 -15 -26 -13 -10 -15 -9 -15 12 0 27 -17 48 -37 48 -8 0 -25 -24 -38
-52z"/>
<path d="M6286 5713 c-9 -44 -12 -210 -3 -219 24 -25 48 98 37 195 -6 51 -25
65 -34 24z"/>
<path d="M5404 5718 c-9 -15 -20 -194 -16 -253 4 -49 16 -58 26 -22 13 42 19
274 8 281 -6 3 -14 1 -18 -6z"/>
<path d="M5056 5698 c-4 -13 -10 -69 -13 -125 -6 -101 -6 -103 18 -111 19 -7
26 -20 34 -63 8 -44 14 -55 32 -57 19 -3 22 3 29 54 3 31 4 97 2 146 -6 99
-20 124 -50 88 -9 -11 -19 -20 -22 -20 -3 0 -6 25 -6 55 0 56 -12 73 -24 33z"/>
<path d="M6860 5700 c-8 -15 -13 -67 -14 -138 -1 -98 1 -116 16 -126 13 -8 21
-7 29 1 32 32 31 226 -1 266 l-17 21 -13 -24z"/>
<path d="M7046 5668 c-12 -17 -16 -48 -16 -123 0 -103 13 -145 44 -145 22 0
26 24 26 141 0 139 -18 179 -54 127z"/>
<path d="M7307 5664 c-9 -9 -9 -306 -1 -328 3 -9 15 -16 25 -16 10 0 19 -6 19
-13 0 -8 11 -24 26 -37 36 -35 44 -16 44 108 0 94 -1 102 -19 102 -11 0 -23
-4 -26 -10 -3 -5 -13 -10 -20 -10 -11 0 -15 22 -17 102 -3 94 -11 121 -31 102z"/>
<path d="M4919 5559 c-7 -14 -10 -56 -7 -115 4 -85 10 -115 23 -103 7 8 24
210 18 225 -7 20 -21 17 -34 -7z"/>
<path d="M4976 5424 c-9 -24 -7 -102 3 -108 13 -8 21 19 21 69 0 45 -13 67
-24 39z"/>
<path d="M5442 5348 c-18 -18 -15 -103 3 -118 25 -21 37 2 39 66 1 45 -3 59
-14 61 -9 2 -21 -2 -28 -9z"/>
<path d="M6871 5331 c-14 -24 -14 -111 -1 -131 15 -24 43 0 59 50 12 38 12 47
0 69 -19 33 -45 38 -58 12z"/>
<path d="M6963 5323 c-7 -19 26 -50 64 -59 55 -14 100 41 54 66 -32 17 -111
13 -118 -7z"/>
<path d="M5174 5299 c-11 -19 -6 -77 12 -146 13 -49 21 -63 35 -63 22 0 22 -4
6 120 -10 73 -16 96 -29 98 -9 2 -20 -2 -24 -9z"/>
<path d="M7143 5275 c-15 -40 23 -155 47 -140 14 9 22 99 11 128 -12 30 -48
37 -58 12z"/>
<path d="M4975 5260 c-26 -28 -32 -112 -10 -130 20 -16 29 -6 45 50 14 48 13
75 -3 89 -11 8 -18 6 -32 -9z"/>
<path d="M6462 5218 c-16 -16 -15 -43 3 -58 19 -16 35 -5 35 24 0 31 -22 50
-38 34z"/>
<path d="M5944 5205 c-9 -23 3 -45 25 -45 10 0 21 7 25 15 8 23 -4 45 -25 45
-11 0 -22 -7 -25 -15z"/>
<path d="M6051 5207 c-13 -17 -6 -43 15 -51 16 -6 27 14 22 40 -4 23 -22 28
-37 11z"/>
<path d="M6140 5201 c-12 -23 -3 -51 16 -51 17 0 37 37 30 56 -8 20 -34 17
-46 -5z"/>
<path d="M6242 5208 c-28 -28 3 -83 33 -58 20 16 19 56 -1 64 -20 8 -18 8 -32
-6z"/>
<path d="M7370 5205 c-9 -11 -11 -33 -6 -74 5 -45 3 -61 -8 -70 -12 -10 -13
-18 -4 -37 16 -35 34 -30 57 19 26 54 27 103 1 145 -23 37 -23 37 -40 17z"/>
<path d="M5800 5186 c0 -32 23 -51 39 -32 17 20 4 56 -20 56 -13 0 -19 -7 -19
-24z"/>
<path d="M6334 5195 c-7 -18 22 -55 43 -55 10 0 13 10 11 33 -2 24 -8 33 -26
35 -13 2 -25 -3 -28 -13z"/>
<path d="M6567 5203 c-13 -12 -7 -40 11 -56 24 -22 29 -21 35 5 10 37 -23 74
-46 51z"/>
<path d="M6710 5195 c-10 -12 -9 -20 4 -40 20 -30 22 -31 36 -5 8 14 8 26 0
40 -13 24 -23 25 -40 5z"/>
<path d="M4700 5173 c-119 -57 -209 -183 -246 -340 -21 -91 -12 -138 36 -183
l38 -35 -11 -98 c-8 -72 -8 -146 1 -285 12 -183 11 -188 -11 -257 l-22 -70
-460 0 c-442 0 -461 -1 -493 -20 -40 -24 -49 -55 -33 -114 25 -92 49 -94 53
-3 l3 67 100 7 c55 3 156 8 225 10 l124 3 7 -37 c3 -20 12 -44 19 -53 13 -15
15 -15 33 7 10 13 20 19 23 13 35 -78 58 -82 62 -9 l3 51 167 7 c92 3 194 2
227 -2 55 -6 60 -9 63 -33 3 -23 -3 -28 -42 -43 -26 -10 -46 -21 -46 -25 0 -4
-6 -16 -14 -27 -14 -18 -34 -19 -540 -24 -469 -4 -527 -7 -542 -21 -15 -16
-13 -20 22 -58 l37 -42 -16 -152 c-28 -256 -17 -999 18 -1167 8 -41 19 -115
24 -165 l8 -90 2 110 c2 167 -8 155 131 155 93 0 122 3 134 15 8 9 13 22 10
29 -3 8 3 16 15 19 26 6 26 18 3 47 -15 18 -33 24 -98 30 -43 4 -102 6 -131 3
l-51 -6 -9 69 c-13 109 -10 708 4 725 7 9 14 86 18 206 l8 191 86 8 c100 8
722 11 828 4 53 -4 73 -9 76 -20 2 -9 13 5 26 32 12 27 30 50 43 54 31 9 2132
-4 2675 -18 380 -9 467 -9 488 2 31 16 62 -2 95 -55 12 -20 34 -41 47 -46 13
-5 212 -9 446 -9 359 -1 428 -3 462 -17 46 -18 63 -19 125 -6 56 11 61 30 21
75 -43 50 -49 73 -41 163 4 44 4 84 0 88 -13 15 -503 29 -808 24 l-303 -5 -16
34 c-12 25 -20 31 -29 23 -21 -17 -25 -60 -11 -119 15 -67 35 -71 54 -12 16
46 27 51 56 25 16 -15 45 -19 176 -23 l156 -5 0 -50 c1 -27 3 -56 5 -64 7 -20
-34 -28 -141 -30 -93 -1 -141 12 -173 48 -15 16 -31 21 -65 21 -128 0 -757 20
-901 29 -91 6 -419 11 -730 11 -311 1 -664 5 -785 10 -121 6 -323 12 -450 15
-126 3 -245 8 -262 11 -32 5 -33 6 -33 54 0 70 18 80 141 80 84 0 96 -2 96
-17 -1 -74 18 -93 90 -93 l35 0 -7 65 -7 65 66 0 c36 0 91 -7 123 -15 40 -10
108 -15 224 -15 l166 0 6 -45 c5 -47 29 -85 54 -85 7 0 13 7 13 15 0 14 10 15
60 9 l60 -7 0 41 c0 39 2 42 38 52 20 5 103 13 183 17 l146 6 7 -39 c10 -49
34 -96 46 -89 6 4 10 34 10 69 l0 63 112 6 c73 4 114 10 119 18 6 10 13 9 29
-6 12 -11 42 -27 67 -35 38 -13 47 -22 58 -54 18 -52 28 -60 53 -45 16 10 23
10 36 0 24 -20 36 -4 36 45 0 28 4 43 10 39 6 -3 10 -19 10 -35 0 -31 25 -63
44 -57 6 2 16 23 22 47 9 39 15 45 45 52 19 4 59 8 89 7 128 -2 130 -1 121 24
-11 30 -36 33 -356 46 -148 6 -320 14 -381 17 l-111 6 -6 117 c-3 65 -3 199 0
298 l6 181 51 8 51 9 3 43 c4 52 17 59 78 42 37 -11 44 -17 42 -34 -2 -15 -11
-22 -30 -24 -20 -2 -28 -9 -28 -23 0 -10 -6 -19 -14 -19 -30 0 -24 -18 14 -44
41 -27 53 -56 23 -56 -9 0 -28 14 -42 30 -18 21 -38 33 -66 37 l-40 6 24 -26
c26 -28 22 -33 -29 -39 -24 -3 -24 -4 11 -26 42 -26 128 -57 212 -77 50 -12
57 -11 57 2 0 8 -14 31 -31 51 l-31 35 4 111 4 111 -71 22 c-43 14 -86 35
-110 56 -108 92 -109 89 -115 -244 -5 -257 -6 -269 -26 -290 -20 -20 -23 -20
-52 -5 -38 19 -267 22 -517 6 -191 -13 -646 -99 -890 -170 -38 -11 -85 -20
-104 -20 l-33 0 6 213 c9 295 15 377 30 377 6 0 36 16 66 35 30 19 61 35 68
35 9 0 12 -44 12 -188 0 -148 3 -192 14 -208 10 -13 18 -16 25 -9 11 11 28
182 33 325 l3 84 -30 6 -30 6 42 22 c23 12 45 22 48 22 3 0 5 -93 3 -207 -1
-115 1 -214 5 -220 11 -18 34 -16 41 3 5 14 19 188 28 354 3 59 -1 70 -27 70
-48 0 -24 18 58 44 143 45 339 96 370 96 27 0 29 -2 24 -27 -4 -16 -14 -149
-24 -297 -16 -262 -16 -269 2 -282 37 -27 45 -18 39 44 -4 36 0 84 10 132 9
41 23 152 33 247 18 188 15 183 85 183 25 0 26 -2 20 -37 -10 -52 -9 -519 1
-529 19 -19 30 25 37 153 5 76 14 205 21 286 12 142 14 149 36 158 14 5 37 9
53 9 l29 0 3 -294 c3 -273 4 -295 22 -315 11 -12 22 -21 26 -21 4 0 7 46 6
103 0 56 3 204 8 328 l9 227 45 6 c95 13 90 17 85 -77 -3 -46 -2 -189 2 -319
7 -236 7 -236 31 -247 l24 -11 0 163 c1 89 5 222 9 294 5 73 5 148 1 168 -8
33 -7 35 25 41 74 14 70 32 70 -328 0 -229 3 -329 12 -343 11 -19 12 -19 22 8
6 16 18 151 26 300 8 150 18 291 21 315 l5 42 115 0 114 0 0 -47 c0 -61 17
-123 36 -130 22 -8 27 1 35 68 4 34 12 66 18 72 14 14 96 10 162 -9 30 -8 76
-18 103 -21 l48 -6 -6 -121 c-11 -199 -11 -383 1 -398 6 -7 13 -24 15 -38 2
-17 10 -26 26 -28 25 -4 27 7 10 54 -9 25 -8 75 6 230 19 211 28 270 45 287 7
7 28 5 70 -8 l59 -18 4 -231 c4 -251 11 -288 57 -294 22 -3 23 -1 16 30 -19
88 -12 401 10 461 8 19 49 23 89 7 25 -9 26 -13 26 -82 0 -40 5 -122 10 -183
6 -60 14 -168 19 -238 6 -71 15 -135 22 -143 6 -7 8 -21 5 -30 -6 -15 -17 -16
-79 -10 -39 3 -101 13 -137 21 -36 8 -110 22 -165 31 -176 28 -169 25 -182 64
-8 23 -12 118 -14 270 -2 284 -7 349 -32 364 -35 21 -47 -16 -47 -143 1 -127
24 -403 40 -466 5 -22 10 -44 10 -50 0 -8 -149 -5 -232 4 -5 1 -8 16 -8 35 0
19 -7 42 -16 51 -16 15 -18 15 -37 -3 -11 -11 -23 -37 -26 -58 -5 -33 -10 -38
-46 -48 -32 -9 -41 -17 -43 -37 l-3 -26 213 -7 c252 -8 435 -26 613 -60 72
-14 173 -33 225 -42 52 -9 149 -34 216 -55 107 -33 160 -43 217 -40 11 1 17 9
17 26 0 27 4 25 -119 50 -66 14 -237 72 -283 96 -38 20 -49 100 -55 402 -6
263 -5 287 10 287 10 0 17 -4 17 -8 0 -4 20 -18 43 -29 l44 -21 7 -155 c12
-287 33 -435 63 -445 10 -3 13 61 15 285 3 281 3 288 23 291 12 2 31 -8 44
-22 23 -25 24 -29 25 -253 2 -188 5 -235 18 -265 35 -80 40 -50 36 217 -3 289
-11 269 81 219 62 -34 83 -31 125 17 39 46 58 112 46 162 -14 61 -61 163 -90
199 -32 39 -143 118 -166 118 -43 0 -10 -50 72 -111 60 -44 86 -87 104 -172
13 -65 7 -107 -19 -131 -16 -14 -22 -15 -57 -2 -22 7 -69 28 -104 46 -36 18
-123 52 -195 76 -71 23 -146 49 -165 57 -19 8 -66 20 -105 26 -38 7 -153 30
-255 51 -102 22 -220 44 -263 49 -43 5 -85 15 -94 23 -22 18 -409 24 -631 9
-204 -13 -580 -56 -682 -78 -103 -21 -448 -136 -545 -182 -44 -21 -97 -52
-118 -70 -106 -94 -84 71 46 338 7 13 29 35 50 49 32 22 40 23 48 11 7 -11 13
-10 29 11 11 14 25 33 31 43 14 25 -15 22 -81 -10z m1587 -472 c-38 -14 -49
-37 -22 -47 24 -9 17 -24 -10 -24 -24 0 -25 2 -25 63 0 35 3 66 6 70 3 3 24
-6 47 -21 l40 -27 -36 -14z m-129 -517 c21 -4 22 -9 22 -109 l0 -105 -162 0
c-185 -1 -300 -13 -335 -35 -20 -13 -23 -13 -23 -1 0 8 -12 17 -27 20 -37 8
-336 24 -613 32 -124 4 -234 10 -245 14 -50 18 212 87 475 124 402 57 795 83
908 60z m-1518 -199 c0 -3 -7 -13 -16 -22 -8 -10 -23 -29 -34 -43 -21 -28 -35
-23 -25 10 8 25 44 60 62 60 7 0 13 -2 13 -5z m4206 -208 c7 -6 15 -42 19 -79
l7 -68 -104 0 c-58 0 -199 3 -314 6 l-209 7 3 68 c4 71 17 90 28 42 12 -51 34
-83 55 -83 11 0 29 -4 39 -10 20 -11 23 -6 34 61 8 47 27 62 90 71 79 10 338
0 352 -15z"/>
<path d="M5585 5191 c-8 -15 14 -53 28 -48 18 6 15 51 -5 55 -9 2 -19 -2 -23
-7z"/>
<path d="M5704 5186 c-8 -21 13 -46 32 -39 20 8 13 47 -9 51 -9 2 -20 -4 -23
-12z"/>
<path d="M6831 5176 c-18 -22 -9 -51 17 -54 18 -3 22 1 22 21 0 33 -23 52 -39
33z"/>
<path d="M5473 5173 c-18 -7 -16 -28 2 -43 21 -17 36 -2 29 28 -6 23 -10 24
-31 15z"/>
<path d="M6907 5155 c-9 -21 10 -68 25 -63 22 8 34 37 22 56 -15 23 -40 27
-47 7z"/>
<path d="M7531 5160 c-19 -11 -9 -85 15 -111 27 -30 54 -25 54 11 0 55 -43
117 -69 100z"/>
<path d="M5345 5150 c-7 -11 12 -50 25 -50 16 0 23 42 9 51 -18 11 -26 11 -34
-1z"/>
<path d="M7011 5151 c-18 -12 -2 -76 19 -76 20 0 35 52 20 70 -14 17 -20 18
-39 6z"/>
<path d="M5081 5116 c-17 -20 -4 -58 17 -54 22 4 27 41 9 56 -11 10 -17 9 -26
-2z"/>
<path d="M7125 5110 c-7 -23 12 -63 27 -58 26 9 33 36 14 57 -24 26 -33 26
-41 1z"/>
<path d="M4967 5093 c-11 -11 -8 -51 5 -59 18 -11 39 25 27 47 -10 20 -21 24
-32 12z"/>
<path d="M7241 5086 c-16 -20 -10 -50 11 -54 23 -4 34 36 16 55 -13 12 -16 12
-27 -1z"/>
<path d="M4866 5041 c-9 -14 5 -42 18 -38 18 6 20 47 2 47 -8 0 -17 -4 -20 -9z"/>
<path d="M7462 5028 c-15 -15 -16 -45 -2 -53 17 -10 50 5 50 24 0 16 -18 41
-30 41 -3 0 -11 -5 -18 -12z"/>
<path d="M4775 5020 c-4 -7 0 -19 9 -28 15 -15 18 -15 26 -2 5 8 8 20 7 25 -5
15 -34 18 -42 5z"/>
<path d="M4705 4980 c-4 -6 -3 -16 3 -22 6 -6 12 -6 17 2 4 6 3 16 -3 22 -6 6
-12 6 -17 -2z"/>
<path d="M7567 4983 c-12 -11 -8 -40 7 -52 12 -10 17 -8 25 8 18 32 -8 68 -32
44z"/>
<path d="M4614 4945 c-7 -18 12 -45 32 -45 9 0 14 11 14 30 0 23 -4 30 -20 30
-11 0 -23 -7 -26 -15z"/>
<path d="M7660 4931 c-9 -18 -9 -29 0 -50 11 -25 12 -25 26 -6 18 24 18 36 0
60 -13 18 -14 18 -26 -4z"/>
<path d="M7753 4873 c-18 -7 -16 -58 1 -72 22 -19 52 30 36 58 -11 21 -16 23
-37 14z"/>
<path d="M5192 4618 c3 -189 7 -240 20 -270 12 -27 23 -38 39 -38 16 0 20 4
14 18 -3 9 -11 116 -16 237 -11 270 -14 285 -40 285 -21 0 -21 -4 -17 -232z"/>
<path d="M5015 4796 c-24 -17 -33 -87 -34 -251 -1 -204 21 -325 59 -333 13 -2
15 33 15 265 0 148 3 283 7 301 6 27 5 32 -10 32 -10 0 -27 -6 -37 -14z"/>
<path d="M7754 4549 c-12 -18 -17 -322 -7 -378 9 -48 37 -76 52 -52 5 7 7 41
5 75 -21 327 -29 388 -50 355z"/>
<path d="M4870 4290 c0 -24 26 -38 42 -22 8 8 8 15 -2 27 -18 21 -40 19 -40
-5z"/>
<path d="M4764 4265 c-8 -19 1 -31 26 -38 27 -7 32 5 14 31 -18 25 -32 28 -40
7z"/>
<path d="M5345 4260 c-3 -5 1 -10 9 -10 9 0 16 5 16 10 0 6 -4 10 -9 10 -6 0
-13 -4 -16 -10z"/>
<path d="M7124 3935 c-4 -10 -2 -32 4 -49 7 -18 12 -44 12 -57 0 -14 6 -33 13
-43 11 -15 15 -16 25 -3 7 8 18 31 25 52 18 52 33 54 47 8 7 -21 17 -42 22
-48 12 -13 38 21 38 51 0 40 19 36 30 -6 14 -53 38 -50 58 8 7 23 19 42 26 42
7 0 21 9 30 19 28 30 6 35 -166 39 -142 4 -158 2 -164 -13z"/>
<path d="M5091 3891 c-10 -6 -12 -20 -8 -47 6 -38 32 -68 48 -58 13 8 11 88
-3 102 -14 14 -19 15 -37 3z"/>
<path d="M6272 3878 c-27 -27 -1 -108 34 -108 22 0 16 114 -6 118 -9 1 -21 -3
-28 -10z"/>
<path d="M3910 3825 c0 -26 30 -75 45 -75 22 0 19 46 -5 70 -24 24 -40 26 -40
5z"/>
<path d="M2600 3784 c-70 -14 -129 -37 -146 -55 -16 -18 -20 -41 -23 -140 l-3
-119 -92 0 c-50 0 -107 -5 -126 -11 -19 -6 -80 -14 -134 -18 -79 -6 -102 -11
-112 -26 -20 -27 -17 -79 4 -105 23 -28 42 -19 42 19 0 16 3 43 6 61 l7 32
476 -6 c262 -4 492 -3 511 2 24 6 33 13 30 23 -3 8 -5 66 -5 131 0 64 -3 119
-7 123 -13 13 -38 -4 -49 -32 -13 -35 -16 -126 -6 -177 8 -37 7 -38 -15 -32
-13 3 -74 9 -135 13 l-113 6 0 42 c0 26 6 48 15 55 25 21 16 120 -11 120 -30
0 -44 -43 -44 -132 l0 -88 -40 0 c-39 0 -40 1 -40 34 0 18 7 39 15 46 20 16
21 113 1 129 -38 32 -70 -38 -64 -143 l3 -61 -42 -3 c-42 -3 -43 -2 -43 26 0
39 17 130 31 165 16 39 48 52 168 72 100 17 168 17 280 -1 60 -10 46 10 -22
32 -52 16 -266 28 -317 18z m-347 -341 c-7 -2 -19 -2 -25 0 -7 3 -2 5 12 5 14
0 19 -2 13 -5z"/>
<path d="M9433 3700 c-56 -12 -81 -26 -126 -72 -37 -38 -39 -44 -48 -131 -4
-51 -9 -95 -9 -99 0 -11 -57 -17 -193 -20 l-128 -3 -11 43 c-22 89 -48 32 -48
-106 0 -53 9 -283 21 -511 11 -227 18 -423 15 -435 l-5 -22 -120 24 -120 25 7
31 c13 56 8 655 -6 742 -10 63 -10 87 -1 107 10 22 9 31 -5 52 -25 38 -44 41
-73 13 -32 -32 -36 -91 -7 -112 18 -13 19 -30 22 -227 2 -116 0 -215 -5 -219
-4 -5 -39 5 -78 21 -38 16 -79 29 -90 29 -12 0 -25 4 -31 10 -21 21 -174 -80
-174 -116 0 -20 44 -28 72 -13 12 6 42 29 66 51 l43 39 28 -29 c28 -31 110
-62 164 -62 l29 0 -6 -167 c-3 -93 -9 -191 -12 -219 -5 -40 -2 -54 11 -68 26
-25 9 -36 -71 -42 l-69 -7 35 25 c50 34 50 54 0 69 l-41 12 1 86 c0 47 -1 97
-2 111 -1 14 1 46 5 72 5 37 3 51 -11 69 -16 19 -21 20 -41 10 -12 -7 -35 -10
-51 -6 -22 5 -31 1 -44 -17 -21 -29 -20 -93 3 -280 l17 -148 -52 0 c-68 0
-107 17 -100 44 6 22 -8 53 -35 78 -28 27 -32 107 -26 494 l5 361 26 55 c31
66 32 84 7 98 -33 17 -71 11 -98 -16 -24 -24 -25 -29 -19 -97 4 -40 11 -241
16 -447 6 -206 11 -384 13 -395 2 -17 -5 -20 -45 -23 -43 -3 -48 -1 -52 20 -3
13 -8 206 -11 431 l-7 407 31 36 c35 39 36 43 19 79 -15 34 -41 32 -86 -9
l-37 -34 17 -46 c13 -34 14 -54 7 -78 -6 -21 -5 -175 3 -421 9 -300 9 -393 0
-408 -16 -26 -15 -71 3 -95 12 -16 16 -17 24 -4 6 8 13 11 17 7 12 -12 -17
-34 -53 -42 -29 -6 -34 -4 -43 19 -5 15 -21 31 -35 36 -18 7 -25 17 -25 35 0
14 -10 54 -21 88 -24 68 -28 161 -10 237 6 25 10 74 10 110 -1 36 -3 56 -6 45
-3 -11 -10 -24 -15 -30 -7 -7 -8 -1 -4 20 4 17 12 32 17 33 5 2 9 134 9 317
l0 313 -27 5 c-58 11 -121 -19 -95 -45 7 -7 12 -24 12 -39 0 -15 7 -43 15 -63
20 -47 33 -246 24 -361 -4 -49 -10 -183 -14 -297 -4 -115 -12 -208 -17 -208
-5 0 -24 6 -42 14 -29 12 -34 20 -44 71 -19 91 -11 339 9 290 14 -35 10 32 -8
157 -16 110 -16 123 1 243 12 87 14 131 7 138 -6 6 -7 16 -1 27 5 9 6 26 3 38
-10 39 -101 69 -119 40 -11 -18 -5 -93 12 -147 11 -34 17 -138 24 -401 5 -200
14 -376 20 -403 12 -48 12 -49 -20 -75 -24 -21 -33 -38 -38 -77 l-7 -50 -118
-3 c-107 -2 -145 -12 -99 -26 9 -3 128 -10 264 -16 136 -6 254 -13 262 -16 8
-3 18 -19 21 -35 8 -35 21 -45 40 -29 12 10 22 9 49 -4 28 -13 69 -16 218 -16
253 1 511 16 583 35 47 13 64 13 82 4 36 -19 51 -5 64 63 l13 63 12 -40 c6
-22 17 -119 23 -215 13 -195 18 -227 31 -214 13 13 14 55 5 255 -8 173 -2 269
15 239 4 -8 11 -51 14 -95 19 -220 60 -354 95 -311 8 10 9 21 0 42 -7 19 -10
92 -7 205 3 198 3 201 -73 240 -44 22 -49 38 -49 152 l0 87 38 0 c32 0 41 5
50 25 26 58 0 115 -53 115 l-25 0 0 123 c0 67 3 138 6 158 6 36 7 37 65 43 32
4 74 13 92 21 22 9 136 19 338 30 167 10 333 19 368 22 42 3 61 1 57 -5 -10
-16 52 -21 354 -26 152 -3 282 -7 290 -10 8 -3 22 -1 30 4 26 17 -8 64 -50 70
-24 3 -38 12 -45 28 -5 12 -13 22 -18 22 -4 0 -12 11 -17 25 -17 46 -83 21
-95 -36 -6 -28 -10 -30 -38 -25 -18 3 -106 8 -197 12 l-165 7 -25 30 c-17 19
-39 32 -63 36 -21 3 -38 11 -37 16 0 12 112 13 600 1 206 -5 373 -6 370 -3 -9
10 -314 37 -589 52 -299 16 -321 21 -321 73 0 15 9 61 20 102 27 104 27 108
-17 116 -20 4 -48 13 -62 20 -29 16 -285 18 -358 4z m262 -33 c149 -15 134 2
128 -139 -3 -68 -8 -126 -12 -129 -3 -4 -120 -9 -259 -12 l-253 -6 5 42 c3 23
8 69 11 102 9 88 11 91 68 115 59 26 184 51 207 42 8 -3 56 -10 105 -15z m-10
-367 c0 -57 -22 -70 -126 -70 -45 0 -82 -5 -93 -13 -22 -16 -204 -3 -222 15
-6 7 -16 27 -22 43 -5 17 -13 38 -17 47 -6 16 7 18 177 21 100 1 210 3 243 2
l60 0 0 -45z m-539 15 c-11 -8 -26 -15 -33 -15 -14 0 -16 -13 -13 -67 l2 -33
-76 0 c-42 0 -79 -1 -83 -2 -5 -2 -9 27 -11 65 l-3 67 118 0 c106 -1 116 -2
99 -15z m-186 -591 c0 -8 -4 -14 -10 -14 -5 0 -10 9 -10 21 0 11 5 17 10 14 6
-3 10 -13 10 -21z m-1235 -363 c7 -13 -30 -24 -55 -16 -28 9 -15 25 20 25 16
0 31 -4 35 -9z m389 -73 c19 -27 7 -43 -27 -34 -25 6 -44 47 -32 66 8 13 40
-4 59 -32z m333 -74 c-3 -3 -12 -4 -19 -1 -8 3 -5 6 6 6 11 1 17 -2 13 -5z
m256 -1 c-7 -2 -19 -2 -25 0 -7 3 -2 5 12 5 14 0 19 -2 13 -5z"/>
<path d="M9537 3573 c-25 -58 -30 -105 -14 -127 13 -18 16 -17 54 21 65 65 67
143 4 143 -23 0 -31 -7 -44 -37z"/>
<path d="M9420 3593 c-35 -13 -50 -37 -50 -77 0 -51 23 -86 55 -86 47 0 73
100 39 148 -16 23 -19 24 -44 15z"/>
<path d="M9696 3578 c-22 -35 -28 -69 -18 -113 12 -60 36 -58 57 4 9 28 24 55
33 60 16 9 16 12 2 38 -20 36 -54 41 -74 11z"/>
<path d="M2831 3647 c-17 -43 -18 -137 -2 -137 17 0 52 88 49 122 -4 41 -34
51 -47 15z"/>
<path d="M4950 3639 c0 -5 5 -7 10 -4 6 3 10 8 10 11 0 2 -4 4 -10 4 -5 0 -10
-5 -10 -11z"/>
<path d="M4606 3491 c-4 -6 -3 -51 3 -99 26 -217 42 -485 32 -532 -6 -27 -16
-131 -22 -232 -12 -183 -12 -183 -42 -215 -25 -27 -29 -37 -24 -67 6 -35 -10
-66 -34 -66 -5 0 -9 -9 -9 -20 0 -25 35 -40 70 -31 14 4 156 6 315 5 160 -1
298 3 307 7 10 6 19 5 23 -1 8 -13 265 -13 339 1 48 8 60 8 69 -4 10 -13 110
-14 737 -8 698 6 726 7 758 26 31 19 34 19 46 3 12 -17 14 -17 31 2 18 20 17
20 -14 20 -41 0 -50 22 -26 66 18 34 18 34 -7 57 l-25 23 -6 285 c-4 156 -10
353 -13 437 l-7 152 24 -2 c21 -3 24 2 27 31 7 69 -16 100 -87 121 -46 13 -65
-10 -57 -69 10 -71 25 -304 36 -556 5 -126 13 -272 16 -324 l7 -94 -49 8 c-79
11 -86 18 -79 73 4 26 13 70 20 99 9 35 10 66 4 97 -18 95 -31 404 -24 567 7
166 7 167 -16 183 -27 19 -100 21 -117 4 -17 -17 -15 -65 3 -72 47 -17 62
-171 67 -662 3 -267 2 -283 -16 -303 -17 -19 -18 -26 -8 -55 17 -46 17 -46
-33 -46 l-45 0 0 223 c0 122 -4 228 -9 236 -7 11 -13 11 -32 -3 -13 -9 -32
-16 -42 -16 -26 0 -31 -24 -11 -55 13 -19 18 -58 23 -155 4 -80 11 -134 19
-142 16 -16 15 -60 -1 -82 -12 -16 -25 -18 -100 -14 -48 2 -89 7 -93 10 -3 3
2 20 10 37 16 30 16 31 -13 57 -29 25 -30 30 -35 138 -3 61 -5 253 -5 426 1
245 4 322 15 349 31 76 3 144 -66 156 -76 13 -85 -21 -34 -132 23 -49 24 -63
24 -246 0 -106 -5 -231 -11 -277 -11 -84 -3 -202 23 -307 14 -57 5 -86 -31
-100 -26 -9 -30 -16 -33 -54 -3 -42 -5 -44 -35 -47 l-33 -3 -1 178 c0 208 -7
239 -61 268 -33 17 -39 18 -64 5 -14 -8 -33 -24 -40 -35 -30 -45 -49 -331 -21
-323 21 7 36 89 34 185 -2 85 0 93 22 114 22 21 25 21 36 5 8 -10 16 -63 19
-124 3 -59 9 -144 12 -189 l5 -83 -85 0 c-113 0 -131 8 -142 62 -12 56 -5 857
8 923 20 105 20 112 3 145 -16 30 -19 32 -57 27 -60 -8 -65 -18 -43 -79 19
-50 20 -82 20 -503 l0 -450 -23 -1 c-48 -4 -54 -11 -50 -67 3 -52 3 -52 -27
-52 -22 0 -29 4 -26 15 8 28 13 330 6 366 -8 44 -46 84 -79 84 -13 0 -32 7
-40 16 -20 19 -29 13 -49 -28 -26 -54 -51 -361 -31 -381 13 -13 34 7 43 42 5
20 12 88 16 151 4 63 9 123 11 133 9 29 41 21 47 -12 5 -25 20 -191 31 -342
l3 -45 -108 -13 c-60 -7 -113 -10 -119 -6 -6 4 -7 22 -4 45 5 30 2 44 -15 67
l-22 29 10 425 c5 246 13 435 19 451 6 14 20 29 31 33 28 9 26 26 -9 78 -37
55 -85 72 -123 45 -15 -11 -15 -18 -6 -48 6 -19 15 -60 19 -90 11 -83 -5 -878
-18 -893 -7 -8 -25 -11 -47 -9 l-35 4 0 493 c0 293 -4 504 -10 519 -11 30 -53
44 -75 26 -23 -19 -20 -115 4 -132 18 -13 19 -36 25 -461 l6 -447 -29 0 c-37
0 -57 -19 -65 -64 -4 -19 -13 -36 -20 -39 -7 -3 -82 -9 -165 -13 l-151 -7 6
30 c3 16 -2 55 -11 88 -13 42 -16 76 -11 119 3 34 11 218 16 409 8 293 13 353
26 377 15 25 15 30 1 58 -11 22 -12 32 -3 35 19 7 -7 40 -47 60 -45 22 -240
37 -251 18z m189 -93 c5 -24 9 -236 10 -473 1 -236 5 -445 9 -462 l8 -33 -56
0 -55 0 -7 35 c-3 20 -3 70 2 113 4 42 6 224 5 404 -3 338 4 417 38 446 26 21
38 13 46 -30z"/>
<path d="M1481 3458 c-74 -5 -141 -13 -150 -19 -11 -7 8 -8 65 -4 l81 6 6 -83
c3 -46 3 -85 0 -88 -2 -3 -65 -5 -140 -5 -154 0 -157 2 -168 84 -10 71 -15 81
-37 81 -20 0 -21 -4 -16 -110 5 -102 4 -110 -15 -123 -17 -11 -21 -30 -29
-128 -19 -226 5 -422 54 -453 24 -15 33 -1 20 29 -21 45 -7 524 15 546 8 8
347 24 743 35 113 3 215 7 228 10 31 6 28 32 -5 36 -24 3 -29 9 -39 56 -14 62
-17 67 -40 58 -13 -5 -15 -14 -9 -44 20 -103 20 -96 -6 -87 -21 6 -256 21
-386 24 -40 1 -42 3 -59 48 -10 25 -28 58 -41 73 l-23 28 23 5 c12 3 67 9 122
13 55 4 111 11 125 15 33 10 -150 8 -319 -3z"/>
<path d="M3060 3460 c0 -13 77 -49 103 -50 20 0 22 11 5 28 -9 9 -9 12 3 13 9
0 6 4 -6 9 -29 12 -105 12 -105 0z"/>
<path d="M3345 3440 c-8 -12 2 -30 17 -30 7 0 7 5 -1 14 -9 11 -9 15 1 19 9 4
9 6 1 6 -6 1 -15 -3 -18 -9z"/>
<path d="M3402 3428 c2 -15 10 -23 23 -23 13 0 21 8 23 23 3 18 -1 22 -23 22
-22 0 -26 -4 -23 -22z"/>
<path d="M1748 3433 c7 -3 16 -2 19 1 4 3 -2 6 -13 5 -11 0 -14 -3 -6 -6z"/>
<path d="M3250 3425 c-11 -13 -8 -15 15 -15 23 0 26 2 15 15 -7 8 -14 15 -15
15 -1 0 -8 -7 -15 -15z"/>
<path d="M1238 3413 c7 -3 16 -2 19 1 4 3 -2 6 -13 5 -11 0 -14 -3 -6 -6z"/>
<path d="M3769 3379 l-22 -32 7 -391 c7 -390 14 -500 29 -462 4 11 12 164 18
340 5 177 12 330 16 341 3 11 23 51 45 88 39 67 39 69 22 95 -15 24 -18 24
-24 8 -5 -16 -9 -15 -32 13 -15 17 -29 31 -32 31 -2 0 -15 -14 -27 -31z"/>
<path d="M3590 3381 c-14 -27 -13 -78 3 -91 6 -6 21 -17 32 -25 19 -13 20 -23
17 -347 -3 -335 4 -392 27 -223 20 147 41 419 41 533 0 112 0 114 -29 143 -34
34 -75 38 -91 10z"/>
<path d="M3321 3372 c-8 -16 -7 -25 8 -44 24 -29 44 -14 39 28 -4 35 -32 44
-47 16z"/>
<path d="M4227 3383 c-4 -3 -7 -16 -7 -28 0 -11 -5 -26 -11 -32 -15 -15 -4
-59 17 -67 8 -3 29 1 46 10 22 11 33 13 41 5 32 -32 50 0 41 70 l-7 49 -57 0
c-31 0 -60 -3 -63 -7z"/>
<path d="M4410 3361 c0 -16 7 -64 15 -107 8 -43 19 -168 25 -279 11 -207 32
-381 50 -415 13 -24 36 -26 44 -4 4 11 -1 18 -14 21 -14 4 -17 9 -11 17 6 7 6
52 1 116 -5 58 -9 199 -10 313 0 195 1 210 21 236 13 18 21 45 22 77 l2 49
-72 3 -73 3 0 -30z"/>
<path d="M1831 3366 c-16 -19 19 -62 42 -53 21 8 22 31 1 51 -19 20 -28 20
-43 2z"/>
<path d="M2352 3368 c-16 -16 -15 -53 3 -68 30 -25 49 27 22 63 -10 14 -15 15
-25 5z"/>
<path d="M2988 3355 c-28 -15 -44 -47 -33 -65 11 -17 39 -10 74 19 56 46 24
81 -41 46z"/>
<path d="M2457 3353 c-11 -10 -8 -61 4 -69 15 -9 28 6 35 44 6 27 4 32 -13 32
-11 0 -23 -3 -26 -7z"/>
<path d="M11180 3345 c-6 -8 -14 -50 -17 -95 l-6 -80 -127 0 c-140 0 -146 2
-152 60 -2 30 -7 35 -30 38 -26 3 -27 1 -30 -45 -2 -40 -6 -48 -23 -48 -15 0
-21 9 -26 37 -8 50 -36 83 -56 66 -11 -8 -13 -23 -9 -49 l6 -37 -65 -4 c-122
-8 -110 -51 18 -62 40 -4 167 -6 282 -4 116 1 216 -1 223 -6 8 -4 12 -33 12
-78 l0 -71 -462 8 c-255 5 -499 7 -543 6 -93 -3 -234 -33 -246 -53 -20 -31
-10 -38 53 -35 61 2 62 2 68 -28 4 -17 14 -42 22 -55 12 -18 18 -64 23 -170 8
-180 33 -497 41 -527 20 -71 34 21 34 217 0 158 -16 469 -26 493 -4 12 -1 17
13 17 20 0 38 17 61 58 11 20 10 22 -13 22 -45 0 -26 17 25 24 56 7 121 -1
132 -17 4 -6 12 -4 23 6 17 17 51 22 79 11 21 -8 20 -24 -1 -24 -15 0 -15 -2
-1 -17 9 -10 25 -37 37 -61 28 -55 42 -60 83 -29 18 13 41 27 50 30 10 4 18
19 20 39 3 30 7 33 38 36 l35 4 -25 13 -25 14 31 1 c17 0 37 -7 45 -16 11 -14
13 -14 21 0 21 38 143 8 152 -37 21 -98 36 -205 41 -277 3 -47 8 -104 11 -127
l5 -42 -123 6 c-110 5 -128 3 -171 -16 -27 -12 -50 -21 -51 -21 -2 0 -6 77
-10 172 -3 95 -11 177 -16 182 -7 7 -16 4 -28 -7 -15 -16 -17 -38 -15 -190 2
-182 26 -454 42 -470 12 -12 16 6 30 127 6 49 12 90 13 91 70 45 104 56 197
65 54 5 105 11 112 12 16 4 27 -34 28 -105 1 -58 -11 -97 -29 -97 -6 0 -10 29
-10 64 0 45 -5 69 -16 80 -19 20 -19 20 -38 0 -21 -20 -21 -105 -1 -144 14
-27 13 -31 -19 -79 -49 -72 -63 -141 -42 -211 21 -69 22 -220 2 -220 -7 0 -20
-7 -27 -16 -12 -14 -9 -20 20 -46 40 -36 50 -74 51 -184 0 -86 13 -113 46
-100 13 5 15 15 11 41 -3 19 -3 35 1 35 4 -1 36 -7 71 -14 51 -11 71 -22 105
-55 54 -53 85 -62 157 -42 54 14 59 14 110 -9 70 -30 147 -31 212 -2 l47 21 0
-39 c0 -56 27 -118 59 -135 15 -7 56 -19 91 -25 129 -25 140 -35 140 -127 0
-39 5 -58 19 -72 11 -11 21 -27 23 -37 6 -35 27 -25 39 18 8 32 8 51 0 74 -6
17 -11 45 -11 62 0 30 2 32 38 32 20 0 54 -3 74 -6 l37 -6 4 -167 c2 -122 8
-185 22 -236 22 -84 21 -81 40 -65 13 10 15 48 15 236 0 128 4 235 10 251 6
15 23 38 38 50 l27 23 -57 0 c-31 0 -79 -5 -107 -12 -58 -13 -137 -4 -289 33
-156 38 -165 51 -112 156 57 113 207 253 271 253 35 0 95 48 79 64 -7 7 -20 5
-45 -8 -26 -14 -38 -16 -48 -8 -10 8 -49 -3 -159 -47 -190 -77 -188 -76 -188
-111 0 -23 4 -30 20 -30 28 0 25 -15 -9 -39 -56 -40 -114 -61 -174 -61 -69 0
-97 12 -97 43 0 12 -4 28 -9 36 -10 15 -31 7 -31 -12 0 -13 -95 -57 -123 -57
-28 0 -73 54 -96 116 -30 79 -27 113 14 173 35 51 44 81 25 81 -20 0 -65 -28
-95 -60 -27 -28 -30 -38 -30 -93 0 -34 3 -77 7 -94 9 -42 -8 -44 -44 -5 -39
42 -51 70 -43 109 5 28 1 43 -21 74 -17 25 -29 57 -32 90 l-5 50 36 -3 c42 -2
67 16 67 49 0 30 -51 83 -79 83 -46 0 -54 75 -15 135 33 50 63 74 90 75 32 0
37 13 12 32 -20 15 -21 18 -5 18 11 0 48 29 83 64 105 105 205 151 263 121 27
-14 61 -12 61 4 0 3 -8 27 -17 53 l-17 48 34 35 c39 40 217 133 272 142 36 5
37 5 48 -36 6 -24 17 -41 25 -41 9 0 34 25 58 55 25 33 56 60 78 69 42 17 220
39 243 30 19 -7 21 -37 4 -64 -9 -15 -10 -22 -1 -31 20 -20 36 1 30 41 -7 53
-28 92 -57 107 -48 25 -223 -5 -305 -52 -28 -17 -68 -27 -134 -34 -162 -18
-325 -115 -350 -208 -11 -41 -34 -63 -65 -63 -14 0 -16 42 -20 333 -4 334 -16
572 -30 595 -10 16 -21 15 -36 -3z m-560 -405 c0 -5 -9 -10 -20 -10 -11 0 -20
5 -20 10 0 6 9 10 20 10 11 0 20 -4 20 -10z m554 -72 c3 -29 6 -146 6 -260 l0
-207 -59 -35 c-32 -20 -61 -36 -64 -36 -11 0 -17 95 -19 282 -2 208 2 224 45
230 12 2 26 13 32 24 14 28 35 54 45 54 4 0 10 -24 14 -52z m281 -308 c-3 -5
-13 -10 -21 -10 -8 0 -12 5 -9 10 3 6 13 10 21 10 8 0 12 -4 9 -10z m755
-1911 c0 -6 -4 -7 -10 -4 -5 3 -10 11 -10 16 0 6 5 7 10 4 6 -3 10 -11 10 -16z"/>
<path d="M8723 3339 c-68 -25 -47 -129 25 -129 l28 0 -3 -252 c-4 -273 13
-559 34 -565 20 -7 26 97 27 452 1 341 -8 460 -38 483 -18 15 -50 20 -73 11z"/>
<path d="M10810 3338 c0 -20 23 -25 152 -39 103 -10 168 -6 168 11 0 17 -75
31 -197 37 -107 5 -123 4 -123 -9z"/>
<path d="M4015 3258 c-27 -5 -53 -15 -57 -21 -12 -19 -9 -120 5 -147 7 -14 20
-24 28 -23 44 6 105 26 111 36 6 9 8 8 9 -3 2 -26 17 43 18 87 1 32 -5 47 -21
63 -24 22 -22 22 -93 8z m85 -102 c0 -12 -5 -16 -15 -12 -9 3 -15 0 -15 -9 0
-7 -5 -17 -10 -20 -20 -12 -40 17 -40 55 l0 39 40 -17 c26 -11 40 -23 40 -36z"/>
<path d="M2190 3251 c0 -13 55 -19 239 -26 123 -5 152 -4 149 6 -3 8 -15 16
-29 20 -38 11 -359 10 -359 0z"/>
<path d="M2628 3254 c-16 -15 -7 -24 45 -40 43 -14 103 -18 352 -21 299 -4
346 0 318 28 -14 14 -151 24 -483 34 -124 4 -228 3 -232 -1z"/>
<path d="M5016 3218 c-18 -26 -21 -55 -5 -60 7 -2 7 -12 0 -30 -13 -34 6 -61
40 -56 21 3 24 9 27 46 3 37 6 42 18 31 8 -6 14 -22 14 -35 0 -13 4 -24 9 -24
12 0 21 36 21 87 0 40 -2 43 -37 52 -55 16 -70 14 -87 -11z"/>
<path d="M5694 3227 c-3 -8 -4 -47 -2 -88 l3 -74 31 -3 c46 -4 75 25 84 84 8
53 0 74 -31 74 -10 0 -21 5 -24 10 -9 15 -55 12 -61 -3z"/>
<path d="M3397 3223 c-4 -3 -7 -15 -7 -25 0 -26 24 -17 28 10 3 21 -8 29 -21
15z"/>
<path d="M4280 3190 c-14 -26 -19 -111 -29 -495 -7 -254 -11 -306 -25 -337
-35 -73 -9 -88 157 -88 98 0 127 10 127 44 0 50 -74 86 -175 86 l-62 0 8 44
c11 58 29 444 29 618 0 135 -8 169 -30 128z"/>
<path d="M6630 3197 c-34 -12 -35 -14 -38 -69 -3 -49 0 -58 18 -68 30 -16 42
-3 38 41 -3 33 -1 38 14 33 21 -6 51 36 42 60 -7 19 -25 20 -74 3z"/>
<path d="M6133 3184 c-8 -21 4 -125 16 -137 13 -13 81 1 87 18 3 7 -2 27 -10
43 -15 30 -15 31 7 34 34 5 26 32 -13 45 -49 17 -80 16 -87 -3z"/>
<path d="M7280 3178 c-16 -18 -20 -33 -18 -72 2 -31 9 -53 19 -59 24 -15 63
-1 76 29 11 23 10 29 -5 40 -28 21 -2 39 38 26 42 -15 36 4 -10 36 -42 28 -74
28 -100 0z"/>
<path d="M8290 3180 c0 -25 40 -172 49 -183 4 -4 25 -4 46 1 37 7 40 11 48 52
5 24 18 51 29 60 16 12 19 23 15 42 -9 33 -50 48 -128 48 -52 0 -59 -2 -59
-20z m104 -32 c9 -34 7 -68 -4 -68 -11 0 -32 69 -24 82 9 15 22 8 28 -14z"/>
<path d="M1675 3074 c-22 -2 -134 -8 -250 -15 -115 -6 -213 -14 -217 -17 -8
-9 37 -120 59 -144 26 -29 53 -23 53 12 0 20 8 34 23 44 30 20 208 48 282 44
l60 -3 3 -135 c3 -165 -11 -310 -33 -326 -20 -15 -19 -43 1 -66 13 -13 19 -53
27 -164 11 -169 7 -185 -51 -202 -22 -7 -46 -19 -53 -28 -12 -15 -8 -22 35
-59 26 -24 44 -45 39 -48 -4 -2 -32 -8 -60 -12 -58 -8 -68 -15 -58 -46 8 -24
14 -23 190 1 87 12 658 40 823 40 71 0 122 -4 122 -10 0 -25 87 -32 285 -24
110 5 243 9 295 9 52 1 105 4 118 9 45 15 17 31 -64 36 -79 5 -79 5 -76 32 1
14 -2 29 -8 33 -15 9 -12 36 7 57 9 10 17 37 18 61 4 123 17 117 40 -18 10
-58 24 -113 30 -122 24 -33 35 -3 35 95 l0 97 25 -52 c35 -77 55 -71 54 15 -1
106 -14 211 -28 224 -22 23 -51 -25 -51 -86 0 -36 -3 -47 -10 -36 -5 8 -10 29
-10 46 0 18 -9 42 -19 55 l-19 24 -22 -38 c-44 -74 -49 -55 -57 212 -7 237
-12 268 -42 252 -47 -26 -52 -134 -20 -413 23 -199 21 -268 -6 -298 -12 -14
-16 -28 -12 -50 5 -22 3 -30 -8 -30 -8 0 -18 0 -22 0 -5 0 -10 69 -13 154 -3
97 -9 159 -16 166 -20 20 -52 -6 -60 -47 -9 -46 11 -202 33 -266 11 -31 14
-50 7 -57 -9 -9 -204 18 -245 35 -24 9 -39 49 -39 101 0 32 -4 44 -12 42 -7
-3 -14 -14 -16 -25 -2 -16 -10 -20 -40 -19 -35 1 -37 -1 -52 -46 -8 -26 -20
-52 -27 -59 -19 -19 -43 -3 -43 30 0 37 -17 49 -38 27 -14 -14 -14 -20 -4 -36
16 -26 2 -32 -64 -28 -44 3 -49 5 -50 28 -1 14 -9 54 -18 90 -9 36 -19 122
-23 192 -7 141 1 169 53 182 52 14 61 -8 69 -179 7 -164 14 -206 33 -213 21
-7 29 39 38 203 l9 160 -40 44 c-22 24 -55 50 -73 58 -29 12 -37 12 -75 -5
-23 -11 -53 -32 -67 -47 -24 -25 -25 -33 -23 -128 2 -116 24 -234 59 -321 13
-33 24 -61 24 -63 0 -2 -26 -3 -58 -3 -59 0 -82 11 -82 40 0 9 -6 22 -12 29
-10 9 -12 81 -10 309 2 163 -2 351 -8 416 -9 106 -9 121 6 137 9 10 14 25 11
33 -10 24 19 33 133 40 58 4 151 13 208 20 57 7 105 9 108 5 2 -4 0 -19 -6
-34 -23 -60 -3 -135 36 -135 5 0 8 -129 6 -320 -2 -219 0 -320 7 -320 6 0 11
9 11 20 0 12 7 31 16 45 20 30 33 170 35 372 1 173 -6 233 -27 233 -18 0 -18
14 -1 29 11 8 19 5 37 -14 20 -21 24 -22 38 -9 14 14 13 19 -2 46 -10 16 -14
33 -10 38 5 4 56 15 114 25 121 19 144 25 136 33 -4 3 -120 9 -259 13 -138 5
-319 13 -402 18 -134 9 -637 12 -740 5z m419 -96 c9 -63 29 -98 57 -98 17 0
19 -4 13 -17 -5 -10 -9 -175 -9 -366 0 -242 -3 -350 -11 -355 -19 -12 -33 -47
-40 -99 l-6 -50 -82 -7 c-121 -9 -234 -7 -241 4 -3 6 -1 25 5 43 10 29 8 38
-20 90 -17 31 -36 57 -41 57 -12 0 -12 43 0 56 15 14 33 385 26 509 l-7 111
36 28 c38 28 48 70 24 94 -6 6 -8 15 -4 19 3 4 66 12 139 19 73 6 137 12 143
13 6 0 14 -22 18 -51z m1037 -993 c-1 -15 -24 -12 -29 3 -3 9 2 13 12 10 10
-1 17 -7 17 -13z"/>
<path d="M1935 2856 c-29 -8 -41 -18 -43 -34 -2 -13 2 -22 9 -22 10 0 10 -3 1
-12 -18 -18 -15 -43 8 -63 21 -19 19 -21 35 30 5 17 35 21 35 5 0 -16 27 -11
34 6 10 27 7 59 -10 82 -17 25 -15 25 -69 8z"/>
<path d="M1900 2525 c-69 -22 -90 -36 -90 -61 0 -39 32 -47 95 -25 31 11 77
31 102 45 25 14 49 26 54 26 18 0 8 -36 -22 -80 l-31 -45 6 -120 c3 -66 9
-148 12 -183 6 -57 9 -63 28 -60 20 3 21 10 28 178 4 96 9 186 12 200 5 28
-11 108 -27 128 -13 16 -110 15 -167 -3z"/>
<path d="M1863 2400 c-28 -17 -33 -25 -33 -59 0 -87 44 -217 85 -251 27 -22
42 3 26 43 -33 81 -40 194 -16 241 26 49 -4 61 -62 26z"/>
<path d="M3201 3010 c-40 -5 -78 -13 -85 -20 -17 -17 -14 -109 4 -120 25 -16
80 -12 80 5 0 10 10 15 33 15 22 0 28 3 18 9 -9 6 -11 16 -6 32 13 43 25 50
72 43 27 -4 43 -2 43 4 0 6 3 17 6 26 7 18 -32 19 -165 6z"/>
<path d="M9040 3004 c-91 -16 -94 -30 -9 -40 56 -6 60 -8 54 -28 -16 -51 -16
-63 2 -84 10 -11 32 -23 48 -24 25 -2 31 1 33 20 4 25 12 28 31 10 11 -11 13
-2 8 53 l-6 66 84 7 c46 3 89 4 97 2 7 -2 25 -7 40 -10 38 -9 58 -33 58 -71 0
-45 41 -95 63 -77 8 7 18 25 22 40 l7 27 18 -22 c10 -13 21 -23 24 -23 3 0 6
23 6 50 l0 50 103 0 c123 0 150 11 92 36 -35 16 -83 18 -395 20 -195 1 -366 0
-380 -2z"/>
<path d="M2381 2944 c-66 -23 -92 -44 -89 -68 4 -31 42 -32 108 -2 32 14 69
26 82 26 14 0 55 -23 98 -55 74 -57 95 -63 95 -29 0 13 -10 22 -32 29 -25 7
-33 15 -33 31 0 37 -84 91 -100 64 -6 -9 -15 -8 -38 4 -37 19 -35 19 -91 0z"/>
<path d="M3947 2875 c-62 -17 -100 -42 -93 -62 3 -8 6 -17 6 -19 0 -11 73 -2
122 15 l56 19 56 -34 c31 -18 68 -37 81 -40 22 -5 25 -3 25 19 0 28 -35 60
-107 96 -48 24 -77 25 -146 6z"/>
<path d="M1492 2857 c-27 -29 -38 -96 -20 -120 13 -18 16 -18 56 -1 28 11 41
21 38 30 -3 7 -1 16 4 19 6 4 10 -1 10 -9 0 -9 9 -16 20 -16 20 0 20 0 -1 43
-41 81 -68 95 -107 54z"/>
<path d="M2920 2856 c-6 -8 -12 -42 -13 -76 -2 -67 13 -90 60 -90 18 0 23 6
23 28 l1 27 15 -27 c17 -32 26 -34 45 -12 11 14 10 21 -4 46 -9 16 -17 37 -17
47 0 22 -19 41 -41 41 -9 0 -19 7 -23 15 -7 19 -30 19 -46 1z m25 -106 c3 -5
2 -10 -4 -10 -5 0 -13 5 -16 10 -3 6 -2 10 4 10 5 0 13 -4 16 -10z"/>
<path d="M2460 2849 c-38 -15 -70 -50 -70 -75 0 -31 44 -81 76 -87 92 -17 134
83 64 153 -22 22 -33 24 -70 9z"/>
<path d="M9777 2844 c-4 -4 -7 -15 -7 -25 0 -10 -8 -23 -17 -29 -14 -8 -10
-10 22 -8 34 3 39 6 37 23 -4 24 -26 48 -35 39z"/>
<path d="M3318 2829 c-11 -6 -18 -22 -18 -39 0 -34 6 -37 31 -14 16 15 19 13
39 -25 30 -60 39 -56 55 25 4 22 1 36 -10 48 -18 18 -71 21 -97 5z"/>
<path d="M9895 2798 c10 -31 67 -119 89 -137 24 -20 43 0 29 31 -15 32 -80
106 -105 119 -18 10 -19 8 -13 -13z"/>
<path d="M9536 2802 c-2 -4 -10 -39 -17 -76 -12 -72 -9 -439 4 -452 4 -4 12
-3 17 2 11 11 46 495 37 518 -7 17 -32 22 -41 8z"/>
<path d="M9644 2786 c-19 -15 -19 -15 3 -37 24 -25 53 -20 53 9 0 17 -18 42
-30 42 -3 0 -15 -6 -26 -14z m41 -16 c-3 -5 -11 -10 -16 -10 -6 0 -7 5 -4 10
3 6 11 10 16 10 6 0 7 -4 4 -10z"/>
<path d="M5033 2746 c-35 -36 -46 -71 -63 -213 -11 -90 -5 -133 19 -133 17 0
32 65 38 160 6 95 26 161 44 143 5 -5 20 -74 33 -153 28 -167 33 -182 55 -178
14 3 16 18 13 113 -6 187 -40 296 -91 294 -9 0 -30 -15 -48 -33z"/>
<path d="M9120 2770 c-11 -7 -15 -28 -15 -82 0 -85 10 -128 29 -128 17 0 26
52 26 148 0 74 -6 84 -40 62z"/>
<path d="M7296 2751 c-36 -40 -81 -396 -51 -403 15 -4 33 80 45 216 15 154 17
166 35 166 20 0 19 3 20 -210 l0 -185 25 0 c21 0 26 6 32 40 11 63 9 276 -3
320 -20 72 -66 97 -103 56z"/>
<path d="M9258 2759 c-13 -7 -18 -22 -18 -50 0 -33 4 -41 26 -49 34 -13 72 -3
80 22 5 18 7 18 31 3 13 -9 27 -14 29 -12 7 7 -25 80 -39 89 -17 11 -89 9
-109 -3z m102 -39 c0 -5 -4 -10 -10 -10 -5 0 -10 5 -10 10 0 6 5 10 10 10 6 0
10 -4 10 -10z"/>
<path d="M10701 2752 c-15 -28 -14 -114 2 -136 12 -16 18 -17 75 -5 66 14 82
31 63 68 -6 11 -11 31 -11 45 0 31 -7 35 -69 43 -43 5 -50 3 -60 -15z"/>
<path d="M3330 2745 c-10 -12 -10 -21 -1 -41 14 -31 31 -23 31 16 0 35 -13 45
-30 25z"/>
<path d="M10265 2727 c-4 -19 -2 -52 5 -75 13 -49 27 -55 115 -50 l60 3 -4 45
c-2 25 -7 53 -13 63 -13 25 -68 47 -117 47 -38 0 -40 -2 -46 -33z m105 -17 c0
-15 -35 -29 -49 -20 -8 4 -10 13 -7 19 9 14 56 15 56 1z"/>
<path d="M9816 2719 c-61 -48 -86 -154 -44 -183 36 -25 64 -19 109 23 37 36
40 43 34 73 -11 48 -43 108 -59 108 -7 0 -25 -9 -40 -21z"/>
<path d="M3983 2699 c-18 -5 -37 -19 -43 -30 -13 -24 -25 -216 -16 -253 7 -28
42 -36 63 -15 9 9 20 9 43 -1 45 -19 53 -4 58 105 5 112 -2 159 -29 186 -21
21 -28 22 -76 8z"/>
<path d="M12250 2675 c23 -24 50 -33 50 -17 0 15 -36 42 -55 42 -17 0 -16 -3
5 -25z"/>
<path d="M6613 2654 c-30 -47 -54 -204 -37 -248 3 -9 12 -16 20 -16 10 0 14
13 14 44 0 24 9 88 20 141 23 114 23 105 10 105 -5 0 -17 -12 -27 -26z"/>
<path d="M12413 2598 c-102 -23 -113 -34 -113 -109 0 -55 20 -59 74 -15 64 52
130 78 203 80 82 1 108 -21 107 -92 -1 -55 -17 -89 -73 -157 -23 -27 -41 -53
-41 -57 0 -5 13 -8 29 -8 16 0 39 -8 52 -18 46 -38 18 -172 -57 -268 -24 -32
-44 -61 -44 -66 0 -20 28 -4 76 45 75 78 105 135 111 210 4 56 2 66 -26 107
l-30 44 26 45 c36 62 43 162 13 209 -45 71 -139 87 -307 50z"/>
<path d="M1458 2567 c-47 -14 -78 -32 -78 -48 0 -16 32 -39 55 -39 32 0 146
36 170 54 14 11 17 18 9 26 -17 17 -105 21 -156 7z"/>
<path d="M3655 2559 c-4 -6 -4 -13 -1 -16 8 -8 36 5 36 17 0 13 -27 13 -35 -1z"/>
<path d="M930 2531 c-30 -15 -63 -40 -74 -55 -17 -23 -19 -31 -9 -57 12 -30
11 -31 -12 -25 -33 9 -101 -52 -115 -103 -9 -35 -47 -98 -90 -151 -11 -14 -23
-47 -26 -75 -4 -32 -18 -68 -40 -100 -50 -75 -51 -94 -14 -172 31 -64 32 -70
22 -118 -26 -111 -34 -175 -28 -208 8 -42 47 -87 76 -87 30 0 36 27 11 54 -33
35 -27 67 19 109 47 42 52 73 14 87 -28 11 -27 14 24 78 32 40 33 45 19 60 -9
9 -31 21 -48 26 -18 6 -41 23 -52 38 l-21 28 22 47 c12 27 26 68 32 94 5 25
21 66 35 91 18 32 24 54 20 71 -8 30 8 43 25 22 19 -23 27 -18 34 24 8 54 65
136 94 135 16 0 24 8 32 32 15 44 96 134 121 134 11 0 30 -10 42 -23 17 -18
28 -22 52 -16 17 4 54 7 83 8 68 1 75 -15 37 -83 -15 -28 -51 -96 -79 -151
-58 -113 -130 -222 -204 -309 -65 -75 -81 -111 -60 -133 14 -13 19 -10 49 34
18 26 75 95 127 152 99 111 182 225 182 252 0 9 11 21 25 27 57 26 105 5 105
-46 0 -36 14 -56 34 -49 24 9 20 68 -7 108 -12 19 -39 42 -60 52 l-37 17 2 69
c3 78 -8 97 -69 126 -40 19 -82 15 -150 -15 l-43 -19 0 25 c0 33 -30 32 -100
-5z m-346 -707 c9 -23 7 -36 -3 -30 -12 8 -21 46 -11 46 4 0 11 -7 14 -16z"/>
<path d="M2906 2506 c-49 -18 -81 -49 -73 -70 9 -23 44 -20 115 9 76 31 80 31
94 0 8 -18 18 -25 32 -23 62 9 -10 87 -87 94 -23 2 -60 -2 -81 -10z"/>
<path d="M3303 2505 c-57 -24 -41 -38 35 -30 72 8 106 20 97 36 -9 14 -95 10
-132 -6z"/>
<path d="M1571 2456 c-17 -20 -11 -320 6 -337 7 -7 16 -10 19 -6 17 16 49 304
39 338 -8 23 -47 25 -64 5z"/>
<path d="M10273 2445 c-31 -22 -45 -52 -38 -75 8 -24 37 -26 71 -4 21 14 29
15 49 4 51 -28 67 -83 80 -292 6 -92 23 -143 41 -125 11 11 29 337 20 370 -3
14 -16 29 -27 32 -12 4 -40 27 -63 51 -48 52 -96 66 -133 39z"/>
<path d="M9242 2410 c-27 -17 -33 -26 -28 -43 3 -13 10 -77 16 -142 12 -131
25 -195 41 -195 17 0 26 43 32 162 4 65 12 128 18 140 11 20 12 21 25 4 7 -10
15 -52 19 -94 21 -252 29 -292 58 -264 8 9 13 62 16 173 l3 159 -37 45 c-38
47 -80 75 -112 75 -10 0 -33 -9 -51 -20z"/>
<path d="M9855 2414 c-43 -22 -81 -61 -101 -102 -13 -29 -14 -38 -4 -58 11
-19 11 -26 0 -39 -7 -9 -14 -57 -18 -123 l-5 -108 27 -17 c24 -16 27 -16 32
-2 6 14 0 191 -9 300 -1 23 3 30 18 33 23 5 37 22 31 38 -2 6 11 18 30 26 34
15 35 15 50 -8 13 -19 16 -57 15 -213 -1 -135 2 -196 11 -210 7 -11 10 -23 6
-26 -3 -3 -49 -12 -103 -20 -53 -7 -99 -16 -102 -19 -3 -3 0 -19 7 -36 l12
-30 117 5 c64 3 282 7 486 10 213 3 373 9 379 15 6 6 0 13 -17 19 -26 10 -304
33 -575 47 -114 6 -134 9 -143 25 -6 12 -7 86 -3 198 l7 180 -26 54 c-16 32
-37 58 -52 65 -33 15 -34 15 -70 -4z"/>
<path d="M12045 2400 c-3 -5 -15 -10 -26 -10 -19 0 -37 -25 -26 -36 8 -9 75
26 81 42 6 16 -19 20 -29 4z"/>
<path d="M2892 2387 c-21 -24 -23 -92 -8 -205 8 -62 18 -117 21 -122 9 -15 33
-12 42 4 6 11 -9 318 -16 334 -3 7 -30 0 -39 -11z"/>
<path d="M9124 2346 c-4 -10 -4 -81 0 -159 8 -159 20 -191 52 -142 17 26 17
32 -4 163 -22 136 -35 172 -48 138z"/>
<path d="M3917 2343 c-24 -6 -16 -26 14 -34 13 -4 20 -8 14 -8 -26 -4 33 -31
66 -31 58 0 97 54 47 64 -40 8 -122 13 -141 9z"/>
<path d="M11860 2321 c-147 -57 -630 -446 -630 -507 0 -20 30 -24 61 -9 46 24
139 123 159 169 18 44 85 110 100 101 14 -9 62 19 173 101 56 42 118 87 139
102 36 27 65 62 51 62 -5 -1 -28 -9 -53 -19z"/>
<path d="M10741 2293 c-16 -31 -33 -184 -26 -243 7 -65 33 -130 51 -130 17 0
25 71 27 245 2 137 2 140 -20 143 -13 2 -26 -4 -32 -15z"/>
<path d="M10297 2263 c-22 -43 -28 -92 -21 -156 6 -52 9 -58 28 -55 16 2 24
14 33 48 21 82 12 190 -16 190 -6 0 -17 -12 -24 -27z"/>
<path d="M12285 2270 c-8 -14 3 -30 21 -30 8 0 14 9 14 20 0 21 -24 28 -35 10z"/>
<path d="M3721 2219 c-90 -4 -169 -13 -174 -18 -7 -7 -7 -19 1 -36 11 -24 15
-25 104 -24 287 1 686 17 706 28 26 14 29 36 5 47 -26 11 -448 13 -642 3z
m605 -46 c-11 -11 -17 4 -9 23 7 18 8 18 11 1 2 -10 1 -21 -2 -24z"/>
<path d="M9521 2204 c-9 -20 -9 -30 0 -40 7 -8 9 -29 5 -51 -18 -112 -19 -146
-2 -155 9 -5 16 -19 16 -32 0 -12 11 -33 25 -46 14 -13 25 -29 25 -36 0 -12
50 -34 76 -34 20 0 44 29 44 54 0 32 -31 57 -80 63 -52 7 -60 22 -66 131 -10
172 -18 200 -43 146z"/>
<path d="M4413 2213 c-16 -6 -17 -35 -1 -51 18 -18 63 -14 89 7 l24 20 -37 15
c-38 16 -54 18 -75 9z"/>
<path d="M12090 2193 c-165 -72 -422 -209 -531 -284 -98 -66 -135 -130 -81
-137 22 -3 31 2 202 120 83 58 340 219 425 268 17 9 31 24 33 33 4 20 -2 20
-48 0z"/>
<path d="M4960 2172 c-43 -8 -56 -33 -70 -128 -12 -88 -13 -274 -1 -274 19 0
24 24 37 179 7 86 13 157 14 159 0 1 29 2 64 2 112 0 151 17 112 49 -18 15
-108 22 -156 13z"/>
<path d="M6663 2149 c-17 -17 -16 -44 2 -59 10 -8 33 -10 75 -5 l60 7 0 -51
c0 -38 -4 -51 -14 -51 -8 0 -18 5 -21 10 -3 6 -19 10 -36 10 -33 0 -39 -22
-14 -54 9 -12 15 -42 15 -78 0 -63 25 -138 45 -138 15 0 20 13 31 73 l6 38 26
-38 c32 -48 44 -56 60 -39 10 9 10 19 2 40 -5 15 -10 69 -10 120 0 150 -7 184
-44 203 -41 21 -167 30 -183 12z"/>
<path d="M7260 2151 c-11 -8 -12 -16 -4 -38 9 -27 11 -28 104 -33 l95 -5 8
-75 c21 -187 32 -245 47 -245 13 0 15 29 18 191 l2 192 -42 6 c-95 13 -214 17
-228 7z"/>
<path d="M1229 2128 c-31 -29 -269 -428 -269 -452 0 -3 16 4 36 16 75 44 287
363 282 422 -4 38 -19 42 -49 14z"/>
<path d="M5601 2136 c-45 -25 -50 -49 -51 -233 0 -94 4 -174 9 -177 13 -9 20
36 27 184 7 122 9 136 30 157 19 18 34 23 78 23 90 0 140 36 70 51 -51 11
-138 9 -163 -5z"/>
<path d="M6044 2137 c-3 -9 -1 -25 5 -36 7 -13 11 -86 10 -199 -1 -148 2 -184
15 -210 9 -18 16 -34 16 -37 -2 -17 20 -37 34 -32 18 7 22 52 6 62 -6 4 -10
67 -11 153 -1 172 -23 305 -52 310 -9 2 -20 -3 -23 -11z"/>
<path d="M6163 2133 c-46 -9 -21 -21 55 -28 42 -4 84 -5 92 -3 12 2 16 -17 21
-107 7 -129 24 -219 45 -236 8 -6 16 -10 19 -8 2 3 1 88 -2 191 l-6 186 -36 6
c-39 6 -153 6 -188 -1z"/>
<path d="M1387 2093 c-10 -10 -8 -53 2 -53 23 0 41 14 41 30 0 10 -7 21 -16
24 -19 7 -19 7 -27 -1z"/>
<path d="M3948 2090 c-40 -24 -5 -130 42 -130 20 0 70 53 70 75 0 41 -75 77
-112 55z"/>
<path d="M4616 2069 c-22 -17 -26 -27 -21 -48 8 -33 33 -61 55 -61 10 0 29 9
44 21 33 26 35 71 4 93 -30 21 -50 20 -82 -5z"/>
<path d="M5265 2055 c-30 -29 -32 -64 -7 -95 13 -16 24 -21 39 -16 32 10 83
67 83 93 0 46 -76 58 -115 18z"/>
<path d="M5907 2052 c-20 -22 -22 -55 -4 -70 7 -6 31 -10 53 -8 44 4 53 22 35
69 -8 21 -17 27 -39 27 -16 0 -36 -8 -45 -18z"/>
<path d="M6545 2046 c-20 -29 -15 -62 14 -97 16 -20 22 -22 45 -11 30 14 42
51 29 95 -7 26 -14 33 -40 35 -25 3 -35 -2 -48 -22z"/>
<path d="M10155 2060 c-4 -6 -3 -16 3 -22 6 -6 12 -6 17 2 4 6 3 16 -3 22 -6
6 -12 6 -17 -2z"/>
<path d="M7161 2036 c-17 -20 -10 -77 10 -89 24 -15 69 16 69 48 0 45 -53 73
-79 41z"/>
<path d="M10602 2039 c2 -7 10 -15 17 -17 8 -3 12 1 9 9 -2 7 -10 15 -17 17
-8 3 -12 -1 -9 -9z"/>
<path d="M5044 2025 c-7 -18 3 -35 22 -35 15 0 17 9 8 34 -8 20 -23 21 -30 1z"/>
<path d="M7827 2022 c-28 -30 -31 -74 -9 -102 18 -22 22 -23 45 -11 25 13 47
49 47 76 0 19 -36 55 -53 55 -8 0 -21 -8 -30 -18z"/>
<path d="M8472 2028 c-7 -7 -12 -26 -12 -44 0 -33 18 -48 45 -37 21 8 46 58
39 77 -7 19 -55 21 -72 4z"/>
<path d="M660 2014 c0 -11 7 -29 16 -40 14 -18 15 -18 8 6 -3 14 -10 32 -15
40 -7 12 -8 11 -9 -6z"/>
<path d="M5734 2019 c-3 -6 3 -20 14 -32 19 -19 22 -19 28 -4 13 35 -23 66
-42 36z"/>
<path d="M7328 2019 c-26 -15 -22 -44 9 -73 24 -22 27 -34 34 -125 8 -103 20
-141 44 -141 25 0 38 67 33 185 -4 103 -6 116 -29 139 -25 27 -61 33 -91 15z"/>
<path d="M10290 2012 c0 -28 27 -49 43 -33 8 8 9 16 1 29 -16 25 -44 28 -44 4z"/>
<path d="M4975 1990 c-9 -14 15 -202 27 -217 25 -31 31 -11 26 91 -3 65 -10
111 -18 120 -14 18 -26 20 -35 6z"/>
<path d="M1291 1942 c-52 -54 -177 -231 -197 -279 -8 -17 -18 -34 -24 -38 -5
-3 -10 -22 -10 -41 0 -54 26 -43 55 23 17 37 47 77 85 115 33 32 60 53 60 46
0 -6 -25 -56 -55 -110 -30 -54 -55 -105 -55 -113 0 -44 77 15 137 106 25 38
50 69 54 69 14 0 36 -41 49 -87 10 -39 33 -63 59 -63 16 0 13 59 -7 116 -18
50 -18 50 5 68 27 20 30 61 7 70 -9 4 -17 5 -18 4 -10 -25 -27 -44 -42 -46
-15 -2 -22 9 -35 49 -15 46 -15 57 -3 86 14 32 6 73 -13 73 -4 0 -27 -22 -52
-48z"/>
<path d="M1420 1962 c0 -26 27 -49 41 -35 17 17 6 48 -19 51 -16 3 -22 -2 -22
-16z"/>
<path d="M3884 1970 c-12 -5 -29 -19 -38 -32 -30 -43 -13 -193 22 -186 12 2
18 15 20 48 4 82 11 108 32 113 24 6 27 52 4 61 -9 3 -16 6 -17 5 -1 0 -12 -4
-23 -9z"/>
<path d="M5680 1954 c-26 -66 -20 -168 8 -150 16 10 42 95 42 138 0 31 -3 38
-20 38 -13 0 -24 -10 -30 -26z"/>
<path d="M6150 1969 c-12 -9 -13 -11 -1 -16 32 -13 48 -43 60 -115 13 -81 37
-130 52 -107 13 22 10 191 -4 219 -10 19 -21 26 -52 28 -22 1 -47 -3 -55 -9z"/>
<path d="M9150 1955 c-10 -12 -10 -19 -2 -27 16 -16 42 -2 42 22 0 24 -22 26
-40 5z"/>
<path d="M8345 1935 c-44 -23 -65 -53 -65 -94 0 -43 20 -86 40 -86 9 0 20 19
28 48 10 37 22 53 53 74 75 49 27 100 -56 58z"/>
<path d="M3495 1883 c-16 -33 -18 -65 -17 -250 1 -116 7 -273 14 -350 19 -230
18 -233 -49 -233 -43 0 -86 -17 -80 -33 2 -6 -13 -61 -34 -120 -22 -60 -39
-123 -39 -141 l0 -33 -76 -7 c-88 -7 -149 -23 -166 -43 -24 -30 9 -38 165 -42
181 -4 184 -2 193 100 3 35 9 68 14 72 4 5 20 1 35 -9 33 -21 105 -23 137 -2
15 10 30 12 43 7 30 -11 164 -10 271 2 83 10 102 9 151 -6 43 -14 76 -17 147
-12 l91 5 -2 -216 c-1 -120 -2 -230 -3 -246 -1 -36 25 -77 44 -70 26 10 36
101 36 319 l0 215 99 0 98 0 7 -37 c13 -80 7 -298 -10 -347 -19 -55 -13 -102
17 -140 33 -42 43 -28 49 65 5 70 7 80 16 60 22 -51 29 8 31 269 l2 265 23 -3
c64 -9 214 -55 269 -83 73 -36 194 -51 341 -42 75 5 85 8 70 19 -24 19 -11 17
61 -7 51 -17 95 -22 252 -26 121 -3 199 -1 215 5 22 10 20 11 -25 12 -49 2
-50 2 -15 11 19 4 103 11 186 15 145 7 152 6 181 -15 56 -42 216 -49 340 -15
39 11 58 11 80 3 15 -6 88 -11 161 -12 108 -2 134 1 142 13 6 10 5 20 -6 30
-12 12 -18 12 -34 2 -17 -10 -25 -9 -46 4 -22 15 -46 16 -187 11 -89 -3 -173
-9 -186 -13 l-24 -7 6 88 c3 49 11 93 16 98 6 6 17 -5 30 -31 28 -55 71 -68
71 -23 0 10 6 24 14 30 17 14 26 4 41 -48 12 -39 35 -57 60 -47 14 5 16 14 11
51 -4 24 -2 70 3 102 6 32 13 94 15 139 l5 80 56 58 c55 57 56 58 98 52 49 -8
83 -36 108 -91 16 -35 19 -67 19 -246 0 -179 2 -208 16 -213 9 -3 58 -6 109
-6 72 0 97 4 109 16 20 20 20 41 0 52 -14 8 -16 43 -15 308 1 164 4 347 7 405
6 101 6 107 -16 129 -17 17 -29 21 -53 16 -17 -3 -33 -9 -36 -12 -15 -14 7
-724 25 -803 8 -39 -4 -51 -53 -51 -39 0 -44 12 -25 75 12 42 12 74 3 194 -10
132 -13 148 -38 184 -48 69 -84 90 -170 97 -55 4 -79 2 -89 -7 -7 -7 -17 -13
-22 -13 -14 0 -48 -61 -57 -98 -3 -17 -12 -32 -19 -35 -7 -3 -17 -22 -23 -43
-7 -22 -19 -66 -29 -98 -26 -91 -36 -51 -37 152 -1 154 1 180 16 204 25 36 36
198 16 214 -8 6 -44 20 -82 31 -65 20 -68 20 -77 3 -6 -10 -10 -59 -10 -108 0
-74 3 -94 20 -115 24 -30 25 -38 5 -31 -19 8 -19 6 5 -41 22 -43 24 -81 13
-264 -7 -126 -16 -123 -28 8 -6 68 -12 88 -30 105 -12 12 -27 37 -34 56 -15
44 -49 80 -75 80 -12 0 -43 7 -71 16 -81 24 -163 -2 -225 -72 -43 -50 -60 -93
-60 -156 0 -34 -3 -49 -10 -42 -5 5 -11 82 -12 172 -3 136 -1 164 12 172 11 7
14 24 13 62 -6 150 -24 175 -118 163 l-55 -6 0 -65 c0 -63 26 -162 54 -208 10
-15 15 -85 19 -261 5 -240 14 -305 43 -305 7 0 16 12 20 28 3 15 7 32 8 37 2
6 8 -6 15 -27 13 -39 39 -57 53 -36 5 7 7 54 3 103 -4 66 -1 101 9 130 9 22
15 66 16 98 0 53 3 61 41 102 23 25 57 54 75 66 68 41 137 -2 193 -121 l35
-75 4 -175 4 -175 -378 2 c-348 3 -685 16 -720 30 -20 7 -16 633 4 633 7 0 35
-7 62 -16 68 -22 212 -17 237 9 26 26 8 33 -114 48 -98 11 -163 35 -163 59 0
11 46 -4 68 -22 18 -15 35 3 30 33 -2 16 -10 25 -23 25 -11 1 -25 2 -31 3 -7
1 -15 13 -19 29 -13 53 -32 72 -75 72 -65 0 -88 -14 -101 -62 -9 -33 -9 -56 0
-98 6 -30 13 -143 16 -250 2 -107 9 -249 14 -315 6 -67 7 -123 2 -128 -5 -5
-18 -6 -29 -3 -17 6 -21 18 -26 84 -14 183 -37 393 -45 415 -8 20 -15 24 -36
19 -16 -3 -46 4 -75 18 -45 21 -80 22 -80 3 0 -4 28 -26 62 -48 56 -36 63 -45
75 -90 33 -134 42 -380 14 -408 -21 -21 -93 -11 -196 28 -55 21 -106 43 -112
48 -17 13 -16 73 2 177 21 116 20 152 -2 148 -44 -8 -100 -215 -76 -279 11
-27 10 -29 -13 -29 -25 0 -67 -54 -95 -123 -18 -45 -26 -49 -96 -42 -46 5 -69
2 -92 -10 -34 -17 -39 -11 -15 23 20 28 12 53 -27 81 -44 33 -78 25 -105 -24
-37 -66 -34 -65 -157 -61 -61 2 -213 7 -337 10 -124 4 -249 9 -277 12 l-53 5
0 60 0 59 70 -6 c61 -6 70 -5 76 11 4 10 2 26 -4 36 -9 14 -5 36 18 105 33 96
38 150 16 180 -14 19 -15 19 -39 -4 l-24 -22 -7 267 c-6 277 -13 373 -26 373
-4 0 -16 -17 -25 -37z m3690 -253 c3 -5 1 -10 -4 -10 -6 0 -11 5 -11 10 0 6 2
10 4 10 3 0 8 -4 11 -10z m-625 -20 c0 -5 -4 -10 -10 -10 -5 0 -10 5 -10 10 0
6 5 10 10 10 6 0 10 -4 10 -10z m-590 -54 c0 -27 -18 -46 -42 -46 -23 0 -23 7
2 48 22 35 40 35 40 -2z m-183 -762 c-3 -3 -12 -4 -19 -1 -8 3 -5 6 6 6 11 1
17 -2 13 -5z"/>
<path d="M9077 1876 c-55 -15 -62 -20 -52 -37 6 -9 62 -11 227 -7 205 5 257
13 235 34 -24 25 -329 32 -410 10z"/>
<path d="M10756 1841 c-7 -11 3 -41 14 -41 13 0 32 29 25 40 -8 12 -32 13 -39
1z"/>
<path d="M11700 1811 c-119 -32 -300 -144 -343 -211 -18 -29 -19 -33 -4 -47
15 -15 19 -15 56 2 22 10 48 26 57 36 13 14 25 17 60 12 39 -5 51 -1 146 56
56 34 114 64 128 68 14 3 32 11 40 18 8 7 38 16 65 20 28 4 57 9 65 12 27 9
-20 22 -87 22 -49 1 -63 4 -63 16 0 20 -36 18 -120 -4z"/>
<path d="M1600 1777 c0 -22 35 -40 90 -47 l45 -5 -3 -130 c-2 -71 1 -161 8
-199 13 -80 11 -82 -63 -92 -26 -4 -50 -11 -53 -15 -11 -18 8 -48 36 -58 23
-7 30 -16 30 -36 0 -45 30 -49 270 -36 118 6 276 13 351 17 140 6 173 14 152
35 -17 17 -176 31 -278 25 -217 -14 -434 -18 -451 -8 -16 9 -14 12 16 26 19 8
42 20 50 25 8 5 23 12 33 15 19 6 23 36 6 53 -9 9 -16 9 -30 0 -35 -22 -35
-19 1 300 14 118 8 133 -58 133 -26 0 -71 3 -99 6 -45 6 -53 4 -53 -9z"/>
<path d="M8921 1685 c1 -55 4 -111 8 -125 12 -40 24 67 16 137 -13 100 -24 94
-24 -12z"/>
<path d="M12590 1770 c0 -5 7 -10 15 -10 8 0 15 5 15 10 0 6 -7 10 -15 10 -8
0 -15 -4 -15 -10z"/>
<path d="M4582 1748 c-21 -21 -6 -224 19 -254 6 -7 5 -36 -3 -81 -8 -52 -9
-103 -2 -192 9 -103 13 -125 32 -143 12 -12 25 -19 28 -15 11 11 24 396 14
422 -5 13 -15 25 -22 28 -31 11 8 17 167 25 173 9 252 27 243 54 -4 10 -41 12
-160 9 -185 -4 -200 -1 -191 39 9 45 -5 79 -40 100 -36 23 -68 25 -85 8z"/>
<path d="M1556 1735 c-3 -9 -9 -73 -12 -143 -4 -70 -11 -135 -16 -144 -15 -31
-37 -20 -49 25 -14 46 -37 80 -50 71 -14 -8 -10 -86 6 -114 29 -51 23 -73 -69
-243 -47 -88 -56 -110 -46 -122 22 -27 47 -16 78 33 16 26 60 101 97 167 37
66 76 130 87 142 19 20 20 35 20 162 -1 131 -9 181 -31 181 -5 0 -12 -7 -15
-15z"/>
<path d="M12635 1740 c-12 -19 -55 -162 -55 -181 0 -59 55 5 86 101 12 36 14
58 7 68 -12 21 -29 26 -38 12z"/>
<path d="M7806 1720 c-41 -13 -44 -22 -29 -93 7 -34 13 -76 13 -94 0 -35 14
-52 24 -28 3 8 10 15 16 15 18 0 11 -23 -17 -53 -27 -27 -27 -29 -9 -42 10 -8
23 -16 28 -17 6 -2 6 -39 -2 -98 -6 -52 -10 -149 -8 -214 l2 -120 -42 -14
c-24 -8 -46 -11 -49 -8 -3 3 -12 70 -19 148 -22 255 -41 309 -116 346 -43 21
-51 22 -89 11 -32 -10 -50 -25 -81 -67 -69 -92 -90 -143 -100 -239 -10 -103
-4 -166 23 -209 25 -41 24 -44 -10 -44 -39 0 -47 -15 -26 -47 16 -25 20 -25
84 -20 37 3 91 14 119 26 58 21 125 68 118 80 -3 4 -40 2 -83 -5 -43 -7 -93
-13 -111 -13 l-34 -1 4 153 c3 138 5 156 28 202 20 39 33 53 63 64 53 20 65 5
87 -106 10 -49 36 -136 58 -193 l39 -104 54 -23 c30 -12 65 -22 79 -22 43 -1
132 27 154 48 29 28 36 26 36 -6 0 -40 -11 -73 -23 -73 -5 0 -53 -20 -106 -44
-116 -53 -163 -62 -391 -76 -208 -12 -260 -18 -260 -30 0 -15 42 -37 83 -44
20 -4 37 -11 37 -15 0 -5 17 -5 38 -1 20 4 95 11 166 14 70 4 136 11 146 16 9
5 49 16 89 24 72 15 152 52 191 88 12 11 23 18 26 15 7 -7 4 -414 -4 -472 l-7
-50 -85 -8 c-47 -4 -184 -6 -305 -5 l-220 3 -12 50 c-17 68 -43 135 -53 135
-4 0 -10 9 -13 19 -5 22 -82 81 -105 81 -8 0 -31 -13 -52 -30 -43 -34 -55 -69
-66 -197 l-7 -83 -72 0 -73 0 -5 58 c-15 152 -46 199 -121 188 -23 -4 -61 -16
-85 -28 -52 -25 -80 -78 -81 -149 0 -26 -7 -70 -17 -98 -9 -28 -13 -54 -10
-58 4 -3 45 1 91 10 47 10 113 17 148 17 60 0 66 -2 98 -35 36 -37 42 -38 125
-8 77 27 143 33 198 19 83 -22 223 -29 331 -17 94 11 132 24 121 41 -9 15 30
22 140 27 107 5 112 5 164 -23 51 -26 62 -28 215 -32 199 -5 435 10 446 29 6
9 82 15 316 21 l307 8 42 -39 c53 -49 77 -57 118 -38 26 11 51 13 126 6 52 -5
108 -16 124 -24 17 -8 40 -15 53 -15 13 0 26 -4 29 -10 11 -17 25 -11 35 15 5
14 21 28 37 32 50 14 528 6 673 -11 249 -30 847 -47 935 -27 30 7 30 7 5 13
-46 12 -193 27 -430 43 -157 11 -245 21 -266 31 -20 10 -41 34 -59 67 -15 29
-38 66 -50 82 -12 17 -31 50 -42 75 -22 51 -46 75 -64 65 -6 -4 -15 -1 -20 6
-8 12 -11 12 -19 -1 -16 -24 -8 -55 13 -52 15 3 17 0 9 -15 -11 -22 -7 -37 29
-90 16 -23 29 -45 29 -48 0 -4 7 -22 16 -41 9 -19 13 -38 9 -42 -9 -9 -75 -7
-275 8 -203 15 -464 8 -579 -16 l-84 -17 -24 27 c-22 25 -23 35 -23 156 0 151
-3 156 -87 165 -168 17 -159 17 -197 -7 -20 -13 -36 -30 -36 -39 0 -8 -5 -20
-11 -26 -7 -7 -10 -47 -7 -109 l3 -99 -367 3 c-341 3 -368 2 -394 -15 -25 -16
-51 -18 -219 -18 -165 0 -194 2 -218 17 -41 28 -50 80 -45 276 3 148 6 176 20
186 17 13 217 40 226 31 7 -7 6 -96 -3 -185 -9 -98 7 -216 34 -243 20 -20 20
-20 25 4 3 13 10 107 16 208 6 102 13 187 16 190 11 11 608 16 626 6 14 -7 23
-4 40 12 12 13 19 26 15 29 -10 10 -250 23 -433 23 -162 1 -244 8 -244 22 0 5
7 9 15 9 10 0 15 10 15 30 0 68 -98 112 -120 54 -6 -14 -10 -40 -10 -58 l0
-33 -95 -7 c-52 -3 -101 -9 -109 -12 -21 -8 -34 23 -42 98 l-6 65 303 5 c179
3 314 1 329 -4 44 -17 328 -33 360 -21 24 9 32 8 43 -6 14 -15 127 -235 127
-246 0 -3 -8 -5 -19 -5 -24 0 -44 -24 -39 -47 3 -18 27 -24 170 -39 82 -9 188
4 188 22 0 20 -93 62 -153 70 -49 7 -87 38 -87 73 -1 30 -48 151 -71 181 -13
16 -34 43 -47 60 -28 36 -35 37 -61 9 -11 -12 -28 -19 -42 -17 -19 2 -26 12
-35 53 -6 28 -21 79 -33 115 -12 35 -27 105 -32 155 -15 147 -23 161 -47 88
-6 -18 -29 -56 -51 -86 -23 -30 -41 -65 -41 -78 0 -31 42 -120 84 -178 l32
-46 -292 0 -291 0 -6 110 c-6 134 -25 199 -78 269 -42 56 -59 66 -122 66 -59
0 -100 -23 -135 -75 -68 -103 -87 -236 -43 -296 l24 -32 -24 -18 c-33 -25 -68
-32 -86 -17 -12 10 -14 26 -10 76 4 35 13 76 20 91 19 38 9 520 -12 545 -15
17 -40 19 -85 6z m393 -387 c27 -54 41 -107 51 -198 4 -44 11 -88 15 -97 8
-20 8 -19 -134 -40 -67 -10 -94 -11 -97 -3 -3 6 -3 76 -2 155 l3 144 50 38
c65 49 89 49 114 1z m1371 -899 c6 -14 10 -71 10 -127 l0 -103 -41 4 c-27 3
-44 0 -50 -9 -6 -11 -11 -10 -26 3 -10 9 -29 18 -43 20 -21 2 -26 10 -32 48
-3 25 -7 71 -7 102 -1 55 0 57 32 67 49 15 69 19 110 20 32 1 39 -3 47 -25z
m-2410 -138 c-7 -7 -10 1 -9 25 0 32 1 33 10 10 6 -16 6 -28 -1 -35z m2197 22
c-3 -8 -6 -5 -6 6 -1 11 2 17 5 13 3 -3 4 -12 1 -19z"/>
<path d="M4954 1695 c-8 -21 2 -45 20 -45 19 0 29 29 15 46 -15 18 -28 18 -35
-1z"/>
<path d="M1890 1686 c0 -18 60 -70 110 -96 34 -17 41 -18 46 -6 10 26 -13 52
-74 84 -66 35 -82 39 -82 18z"/>
<path d="M4734 1685 c-9 -22 22 -53 37 -38 15 15 7 47 -14 51 -9 2 -20 -4 -23
-13z"/>
<path d="M4852 1683 c4 -22 43 -25 43 -3 0 8 -11 16 -23 18 -19 3 -23 0 -20
-15z"/>
<path d="M4140 1675 c-17 -20 -2 -50 25 -50 26 0 29 18 7 45 -17 20 -19 21
-32 5z"/>
<path d="M4340 1675 c-10 -13 -10 -19 5 -35 23 -25 32 -25 46 2 10 18 8 24 -7
35 -23 17 -29 16 -44 -2z"/>
<path d="M6213 1674 c-7 -18 6 -45 24 -51 14 -5 25 25 18 48 -8 23 -33 25 -42
3z"/>
<path d="M5494 1665 c-9 -23 3 -45 26 -45 20 0 25 15 14 44 -8 20 -33 21 -40
1z"/>
<path d="M5594 1665 c-7 -18 3 -35 21 -35 15 0 28 27 19 41 -8 14 -34 11 -40
-6z"/>
<path d="M6772 1653 c3 -29 32 -43 50 -25 15 15 -9 52 -33 52 -16 0 -20 -5
-17 -27z"/>
<path d="M7541 1662 c-7 -13 -6 -23 1 -30 28 -28 63 3 38 33 -16 20 -27 19
-39 -3z"/>
<path d="M4244 1655 c-7 -18 3 -35 21 -35 15 0 24 19 18 38 -6 17 -32 15 -39
-3z"/>
<path d="M5730 1660 c0 -5 5 -10 10 -10 6 0 10 5 10 10 0 6 -4 10 -10 10 -5 0
-10 -4 -10 -10z"/>
<path d="M6860 1660 c0 -5 7 -10 15 -10 8 0 15 5 15 10 0 6 -7 10 -15 10 -8 0
-15 -4 -15 -10z"/>
<path d="M6924 1655 c-7 -17 12 -45 31 -45 18 0 27 30 14 46 -15 18 -38 18
-45 -1z"/>
<path d="M7338 1664 c-15 -14 -8 -34 17 -50 20 -13 28 -14 40 -4 12 10 18 10
31 0 13 -11 19 -10 37 8 16 17 19 24 9 34 -13 13 -123 24 -134 12z"/>
<path d="M8067 1657 c-3 -8 -2 -20 3 -27 11 -18 42 -4 38 17 -4 22 -34 29 -41
10z"/>
<path d="M10602 1655 c-67 -15 -126 -46 -136 -71 -3 -9 1 -25 9 -36 10 -15 12
-35 8 -64 -7 -54 12 -87 102 -173 70 -68 73 -82 20 -117 -22 -14 -42 -15 -172
-6 -179 13 -247 7 -278 -24 -12 -13 -13 -19 -4 -31 11 -12 47 -13 239 -7 162
5 232 4 247 -5 18 -9 27 -7 54 16 l32 27 84 -88 c46 -49 104 -119 129 -157 24
-37 53 -71 64 -74 10 -3 22 -15 25 -26 7 -20 30 -26 40 -9 4 6 -10 36 -29 67
-37 58 -36 84 2 64 11 -6 31 -28 43 -48 13 -21 28 -41 33 -45 6 -4 59 -8 118
-8 103 0 107 1 110 23 2 18 11 11 55 -48 57 -77 98 -127 88 -107 -3 6 -1 12 5
12 6 0 13 -8 16 -17 3 -10 10 -27 14 -38 5 -11 12 -39 15 -63 8 -53 35 -67
114 -58 68 8 93 21 89 48 -5 34 -27 32 -43 -4 -14 -32 -14 -33 -15 -6 0 25 -3
27 -52 30 -44 2 -53 6 -56 23 -2 11 -11 26 -20 32 -9 7 -23 37 -32 66 -18 58
-73 148 -115 187 l-27 25 -49 -28 c-29 -16 -55 -24 -62 -20 -7 4 -41 10 -77
13 l-65 5 -40 80 c-22 44 -63 114 -91 155 -28 41 -61 93 -73 116 -24 42 -55
69 -71 59 -16 -10 -12 -47 11 -111 44 -124 44 -125 -10 -64 -36 40 -56 55 -77
55 -26 2 -29 6 -32 42 -2 22 6 109 17 193 12 84 21 170 21 192 l0 38 -57 -1
c-32 0 -86 -7 -121 -14z m98 -68 c0 -46 -31 -252 -40 -261 -13 -13 -20 -5 -64
68 -39 64 -42 80 -26 138 10 33 16 39 58 52 60 19 72 19 72 3z m280 -598 c0
-5 -4 -9 -10 -9 -5 0 -10 7 -10 16 0 8 5 12 10 9 6 -3 10 -10 10 -16z"/>
<path d="M6684 1645 c-4 -10 1 -25 14 -38 20 -20 22 -20 28 -2 8 19 -5 46 -24
53 -7 2 -15 -4 -18 -13z"/>
<path d="M8160 1645 c0 -8 7 -15 15 -15 8 0 15 7 15 15 0 8 -7 15 -15 15 -8 0
-15 -7 -15 -15z"/>
<path d="M11190 1645 c0 -9 5 -15 11 -13 6 2 11 8 11 13 0 5 -5 11 -11 13 -6
2 -11 -4 -11 -13z"/>
<path d="M935 1619 c-9 -29 21 -62 35 -39 14 22 8 54 -12 58 -10 2 -19 -6 -23
-19z"/>
<path d="M2378 1632 c-87 -8 -105 -18 -84 -48 12 -16 29 -20 106 -23 50 -1
103 2 118 8 15 6 63 15 107 20 44 6 95 13 113 17 40 8 42 -6 3 -27 -20 -12
-37 -38 -61 -95 -39 -94 -49 -154 -27 -172 25 -21 45 -3 62 56 9 32 37 97 62
145 39 76 44 91 32 102 -16 17 -304 27 -431 17z"/>
<path d="M2870 1631 c0 -58 98 -99 205 -86 52 7 96 27 84 39 -3 3 -55 12 -115
20 -60 8 -122 19 -137 25 -34 13 -37 13 -37 2z"/>
<path d="M7977 1633 c-12 -11 -8 -40 7 -52 12 -10 17 -8 25 8 18 32 -8 68 -32
44z"/>
<path d="M2142 1622 c-38 -11 -30 -27 15 -30 45 -3 88 13 78 29 -7 10 -57 11
-93 1z"/>
<path d="M3278 1589 c-10 -5 -18 -16 -18 -24 0 -23 34 -35 95 -35 31 0 65 5
76 10 22 12 25 45 5 53 -16 6 -36 -11 -36 -30 0 -7 -4 -13 -10 -13 -5 0 -10
11 -10 25 0 23 -4 25 -42 25 -24 0 -51 -5 -60 -11z"/>
<path d="M9646 1591 c-11 -18 28 -119 86 -226 76 -137 95 -165 115 -165 46 0
-47 234 -137 349 -40 50 -54 59 -64 42z"/>
<path d="M3724 1582 c-19 -12 -25 -47 -25 -141 -1 -82 -3 -91 -19 -91 -30 0
-35 -22 -10 -42 28 -23 63 -23 85 -1 15 14 17 34 13 135 -4 119 -17 158 -44
140z"/>
<path d="M3973 1374 c4 -120 11 -239 17 -263 7 -30 8 -47 1 -54 -6 -6 -76 -12
-158 -13 -157 -3 -208 -11 -208 -35 0 -11 29 -14 165 -15 529 -2 580 -3 620
-15 40 -12 42 -12 73 19 l32 32 -65 1 c-36 0 -117 6 -180 12 l-115 12 -3 65
c-2 36 -7 69 -12 74 -5 5 -1 21 11 38 12 16 26 56 32 88 9 44 16 60 28 60 9 0
36 7 59 15 l43 15 38 -39 c34 -36 99 -176 99 -213 0 -7 5 -30 11 -50 7 -28 15
-38 30 -38 34 0 44 40 31 127 -19 128 -29 150 -93 216 -59 60 -59 60 -106 53
-71 -10 -130 -43 -161 -90 -15 -22 -41 -84 -59 -136 l-32 -95 -1 80 c0 44 -7
101 -15 127 -8 26 -17 74 -21 106 l-6 59 188 7 c190 6 241 13 246 31 5 17 -65
25 -281 32 l-214 6 6 -219z"/>
<path d="M6103 1582 c-69 -8 -82 -15 -66 -40 9 -15 28 -17 143 -16 106 2 135
5 148 18 10 10 13 19 7 25 -13 13 -156 20 -232 13z"/>
<path d="M6724 1555 c-19 -15 -19 -15 5 -35 34 -29 123 -28 153 2 20 20 20 22
3 35 -26 18 -136 17 -161 -2z"/>
<path d="M7312 1558 c-20 -20 -14 -48 14 -58 14 -6 58 -10 97 -9 130 1 190 42
97 66 -61 15 -193 16 -208 1z"/>
<path d="M1920 1483 c-74 -81 -90 -110 -69 -124 24 -15 36 -10 79 35 58 61 80
96 80 129 0 43 -23 33 -90 -40z"/>
<path d="M8020 1543 c-8 -2 -22 -7 -30 -10 -12 -3 -10 -8 9 -24 16 -13 39 -19
76 -19 97 0 231 34 203 51 -14 9 -232 11 -258 2z"/>
<path d="M1100 1485 c-10 -12 -10 -18 0 -30 16 -20 36 -19 44 1 6 16 -9 44
-24 44 -4 0 -13 -7 -20 -15z"/>
<path d="M12560 1454 c0 -8 5 -12 10 -9 6 3 10 10 10 16 0 5 -4 9 -10 9 -5 0
-10 -7 -10 -16z"/>
<path d="M5528 1444 c-16 -8 -28 -23 -28 -34 0 -27 37 -36 61 -14 12 11 33 17
50 16 25 -2 29 1 29 23 0 23 -4 25 -42 25 -24 -1 -55 -8 -70 -16z"/>
<path d="M4836 1406 c-32 -33 -49 -76 -28 -76 29 1 91 85 75 101 -7 7 -22 -1
-47 -25z"/>
<path d="M5680 1430 c0 -13 42 -40 52 -34 5 3 4 12 -2 19 -13 16 -50 27 -50
15z"/>
<path d="M12577 1423 c-4 -3 -7 -11 -7 -17 0 -6 5 -5 12 2 6 6 9 14 7 17 -3 3
-9 2 -12 -2z"/>
<path d="M684 1405 c-16 -13 -17 -16 -4 -25 25 -17 40 -11 40 15 0 29 -8 31
-36 10z"/>
<path d="M5750 1366 c0 -88 32 -451 41 -468 6 -11 16 -17 22 -15 19 6 28 84
24 212 -3 114 -9 144 -50 264 -17 48 -37 52 -37 7z"/>
<path d="M5440 1348 c-23 -25 -22 -22 -50 -160 -32 -158 -35 -220 -15 -251 20
-31 50 -35 60 -9 3 9 13 82 21 162 8 80 22 168 31 196 24 78 -1 111 -47 62z"/>
<path d="M620 1352 c0 -17 42 -62 72 -78 36 -19 60 -5 38 21 -17 21 -110 68
-110 57z"/>
<path d="M11922 1344 c-32 -22 -27 -34 16 -34 45 0 67 13 59 34 -8 20 -46 21
-75 0z"/>
<path d="M2543 1278 c-45 -49 -123 -235 -123 -292 0 -30 13 -46 36 -46 5 0 90
178 130 272 13 31 21 64 18 72 -9 23 -37 20 -61 -6z"/>
<path d="M1547 1208 c-14 -18 -59 -102 -101 -185 -85 -170 -99 -183 -154 -143
-19 14 -40 20 -62 18 l-33 -3 27 -32 c15 -18 33 -33 39 -33 6 0 18 -7 27 -15
25 -23 158 -35 388 -35 194 0 202 1 202 20 0 10 -9 24 -20 30 -22 12 -190 36
-323 45 -56 5 -93 12 -102 22 -20 20 -19 33 3 33 33 0 143 167 160 245 16 72
-10 88 -51 33z"/>
<path d="M2780 1223 c-77 -4 -103 -15 -98 -42 3 -14 27 -16 173 -19 497 -8
522 -7 538 7 24 19 21 38 -5 45 -28 8 -504 15 -608 9z"/>
<path d="M9215 1184 c-32 -9 -45 -25 -45 -52 0 -24 0 -25 63 -17 34 4 145 9
247 10 176 2 185 3 188 22 2 16 -4 22 -29 27 -43 8 -399 17 -424 10z"/>
<path d="M12383 1183 c-7 -2 -13 -14 -13 -25 0 -14 5 -18 16 -14 9 3 17 6 19
6 3 0 9 9 15 20 9 17 8 20 -7 19 -10 0 -24 -3 -30 -6z"/>
<path d="M1100 1134 c0 -54 -6 -67 -79 -159 -76 -95 -99 -140 -85 -163 19 -30
49 -26 76 10 51 67 148 243 153 277 4 20 8 46 11 59 4 20 1 22 -36 22 l-40 0
0 -46z"/>
<path d="M9960 1159 c1 -84 61 -216 133 -296 57 -61 77 -67 77 -21 0 50 -126
266 -189 322 -21 19 -21 19 -21 -5z"/>
<path d="M12597 1144 c-16 -16 -7 -44 14 -44 15 0 20 5 17 22 -3 22 -19 33
-31 22z"/>
<path d="M1180 1043 c0 -30 34 -55 82 -60 78 -7 94 37 20 56 -89 25 -102 25
-102 4z"/>
<path d="M650 951 c0 -10 7 -21 15 -25 25 -9 17 -26 -12 -26 l-28 0 38 -37 37
-38 21 22 c45 44 14 123 -47 123 -17 0 -24 -6 -24 -19z"/>
<path d="M2209 923 c-83 -69 -138 -158 -141 -226 -1 -40 25 -79 47 -70 15 5
101 169 130 245 11 31 14 52 8 63 -9 15 -13 13 -44 -12z"/>
<path d="M1108 903 c-14 -16 -35 -47 -47 -71 -26 -50 -37 -55 -158 -71 -95
-12 -123 -19 -123 -30 1 -22 45 -51 78 -51 22 0 32 -18 32 -60 0 -31 22 -55
44 -47 8 3 16 28 21 62 7 62 24 69 38 15 12 -47 3 -73 -37 -101 -58 -42 -326
-308 -326 -325 0 -14 -25 -15 -228 -12 -183 2 -232 0 -245 -11 -10 -7 -17 -17
-17 -21 0 -9 163 -25 466 -46 184 -12 253 -13 290 -5 27 6 171 16 319 21 455
18 781 39 868 57 66 14 41 28 -53 31 l-90 3 0 28 c0 16 14 73 31 127 33 104
50 234 31 234 -16 0 -49 -51 -88 -136 -60 -129 -80 -223 -52 -240 28 -17 -41
-23 -297 -24 -148 0 -301 -5 -340 -10 -111 -16 -531 -25 -539 -12 -3 6 21 31
56 58 35 27 104 82 153 124 50 41 105 82 124 90 30 12 35 12 47 -4 12 -17 24
-17 241 -3 125 8 243 21 261 27 35 13 44 46 16 57 -16 6 -390 -13 -471 -24
l-43 -5 0 35 c0 26 6 39 25 51 14 9 25 23 25 30 0 8 -11 21 -25 30 -14 9 -25
22 -25 30 0 7 19 42 42 77 29 46 42 75 42 103 1 49 -13 54 -46 19z"/>
<path d="M10307 883 c-4 -4 -4 -21 -1 -40 5 -25 2 -34 -11 -39 -13 -5 -15 -14
-10 -43 9 -48 27 -80 72 -128 21 -23 46 -52 55 -65 13 -19 20 -21 35 -12 49
30 37 111 -34 233 -36 61 -91 110 -106 94z"/>
<path d="M2630 849 c-199 -10 -224 -16 -228 -52 -2 -18 2 -29 14 -34 22 -8
336 25 348 38 6 5 17 2 27 -7 16 -14 33 -15 131 -8 l113 9 3 29 c3 27 2 29
-27 23 -18 -4 -31 -2 -31 3 0 11 -104 11 -350 -1z"/>
<path d="M646 788 c-3 -13 -9 -90 -11 -173 -5 -127 -3 -158 12 -200 14 -37 23
-50 38 -50 16 0 19 6 17 30 -2 17 -5 116 -5 220 -2 185 -3 190 -23 193 -15 2
-23 -4 -28 -20z"/>
<path d="M10558 784 c-8 -18 -8 -28 -1 -35 29 -29 301 -63 453 -57 79 3 85 4
88 26 3 21 0 22 -75 23 -135 1 -228 13 -246 31 -17 16 -41 21 -155 32 -49 5
-54 3 -64 -20z"/>
<path d="M11925 790 c-9 -10 -19 -38 -22 -62 -4 -35 0 -49 21 -77 24 -33 26
-42 26 -145 0 -172 38 -345 73 -333 13 4 18 297 5 297 -4 0 -12 19 -19 43 -6
23 -17 54 -25 70 -9 16 -10 27 -4 27 6 0 15 11 21 24 9 19 8 31 -5 57 -18 36
-14 48 9 29 22 -18 27 -8 15 26 -24 63 -62 80 -95 44z"/>
<path d="M9417 776 c-4 -10 -2 -27 4 -38 11 -20 15 -21 213 -13 232 9 298 15
303 31 7 20 -39 25 -278 31 -216 5 -236 4 -242 -11z"/>
<path d="M10052 764 c-28 -20 -28 -34 1 -34 25 0 47 17 47 37 0 18 -21 16 -48
-3z"/>
<path d="M10140 755 c0 -27 21 -33 39 -12 8 10 7 17 -1 25 -20 20 -38 14 -38
-13z"/>
<path d="M11300 756 c0 -25 64 -133 123 -207 61 -75 77 -102 82 -139 4 -25 12
-51 17 -57 15 -19 35 -16 41 6 4 16 19 19 116 25 119 8 131 14 131 67 0 18 -4
20 -22 14 -13 -4 -74 -10 -137 -12 -103 -5 -113 -4 -108 11 4 10 -2 25 -14 37
-11 11 -18 27 -15 34 3 8 -3 20 -12 27 -10 7 -40 42 -67 78 -68 91 -96 120
-117 120 -10 0 -18 -2 -18 -4z"/>
<path d="M4750 745 c0 -9 75 -42 135 -60 33 -10 101 -19 150 -21 50 -1 114 -7
144 -13 81 -17 111 -14 111 7 0 28 -36 40 -203 67 -158 26 -242 31 -252 16 -3
-6 -18 -6 -38 0 -36 10 -47 11 -47 4z"/>
<path d="M20 695 c-12 -25 -20 -58 -18 -77 3 -29 7 -33 35 -36 24 -2 39 3 59
23 l25 25 -25 31 c-14 17 -29 41 -32 55 -9 35 -19 30 -44 -21z"/>
<path d="M103 724 c-8 -20 8 -48 31 -52 18 -4 21 19 6 49 -13 23 -28 25 -37 3z"/>
<path d="M6645 693 c-22 -2 -49 -13 -61 -24 -28 -26 -113 -39 -256 -39 -65 0
-118 -4 -118 -8 0 -14 33 -40 73 -57 68 -28 424 -15 522 19 22 8 92 17 155 19
126 5 203 26 221 59 6 11 8 23 4 26 -7 8 -476 12 -540 5z m215 -52 c0 -12 -39
-25 -48 -16 -7 7 17 25 36 25 6 0 12 -4 12 -9z m-335 -51 c3 -5 2 -10 -4 -10
-5 0 -13 5 -16 10 -3 6 -2 10 4 10 5 0 13 -4 16 -10z"/>
<path d="M5300 684 c0 -19 24 -44 52 -53 106 -35 505 -64 563 -41 57 22 19 30
-330 75 -195 24 -285 31 -285 19z"/>
<path d="M12678 659 c-26 -10 -26 -12 -33 -137 -12 -194 8 -358 43 -370 15 -5
20 23 26 148 5 115 25 195 62 249 30 45 30 66 -1 96 -25 26 -52 30 -97 14z"/>
<path d="M6036 629 c-59 -9 -86 -22 -73 -35 11 -11 187 -5 209 7 49 26 -35 44
-136 28z"/>
<path d="M447 623 c-5 -9 10 -257 18 -310 5 -29 30 -51 44 -37 3 3 9 60 12
127 7 135 12 153 40 162 23 8 26 50 3 59 -22 9 -112 7 -117 -1z"/>
<path d="M752 598 c2 -13 10 -23 18 -23 8 0 16 10 18 23 3 17 -2 22 -18 22
-16 0 -21 -5 -18 -22z"/>
<path d="M76 565 c-41 -17 -58 -71 -51 -161 11 -119 26 -163 56 -164 6 0 33
329 27 334 -1 2 -16 -2 -32 -9z"/>
<path d="M3050 573 c-19 -3 -41 -9 -47 -15 -15 -12 -17 -201 -4 -281 8 -46 7
-49 -17 -58 -14 -6 -39 -7 -55 -3 -44 9 -30 -15 29 -49 l49 -29 155 11 c85 6
207 13 270 16 63 3 175 10 248 16 90 7 137 7 145 0 7 -5 49 -14 93 -18 62 -7
84 -6 93 4 7 8 36 13 71 13 47 0 64 4 80 20 15 15 20 16 20 6 0 -21 15 -28 71
-32 59 -4 67 -8 80 -41 9 -25 12 -25 72 -20 34 4 141 13 237 22 96 8 198 21
225 28 34 8 126 11 293 10 145 -2 241 1 237 6 -9 15 -64 29 -160 40 -129 16
-228 14 -431 -8 -325 -35 -346 -35 -376 -12 -22 18 -31 19 -51 10 -19 -9 -34
-9 -58 0 -18 6 -70 14 -115 18 -68 5 -88 3 -108 -11 -31 -20 -36 -20 -36 -1 0
24 -61 28 -344 22 -149 -4 -309 -3 -356 1 -77 6 -85 9 -83 27 19 186 14 285
-12 285 -8 0 -15 7 -15 15 0 12 -15 15 -82 13 -46 0 -99 -3 -118 -5z m103
-194 c4 -51 14 -105 22 -122 8 -17 13 -33 10 -36 -3 -3 -36 -7 -72 -9 l-66 -5
6 33 c4 18 7 77 7 131 l0 99 44 0 43 0 6 -91z"/>
<path d="M1650 550 c-25 -25 -27 -60 -2 -60 34 1 144 28 154 38 6 6 8 18 5 26
-10 26 -131 22 -157 -4z"/>
<path d="M1877 553 c-4 -3 -7 -15 -7 -25 0 -28 34 -19 38 10 3 21 -16 31 -31
15z"/>
<path d="M5232 543 c-19 -8 -49 -72 -56 -124 -8 -57 9 -142 34 -164 16 -15 32
-17 90 -13 93 7 114 24 108 90 -6 58 -60 170 -92 191 -28 19 -66 28 -84 20z"/>
<path d="M5699 515 c-47 -25 -63 -77 -64 -198 0 -107 0 -108 -25 -113 -78 -18
-100 -26 -100 -38 0 -34 24 -37 222 -27 178 8 371 2 409 -13 9 -4 27 3 44 16
l29 23 -29 7 c-17 4 43 6 133 4 159 -4 193 2 135 25 -16 6 -89 20 -163 31
-181 27 -290 22 -356 -17 -56 -33 -59 -30 -67 68 -7 93 -41 184 -81 219 -35
31 -50 33 -87 13z m115 -294 c24 -27 7 -33 -53 -20 -52 11 -65 24 -33 32 39
10 70 6 86 -12z"/>
<path d="M2284 513 c-41 -4 -85 -36 -70 -51 4 -4 121 -7 259 -7 228 0 252 2
255 17 6 33 -36 41 -222 43 -100 2 -200 1 -222 -2z"/>
<path d="M2753 475 c-3 -9 -3 -18 0 -22 10 -10 37 6 37 22 0 20 -29 20 -37 0z"/>
<path d="M9805 446 c-33 -50 -18 -58 113 -56 64 1 223 -3 352 -8 129 -6 239
-7 243 -2 5 4 4 17 -2 27 -11 21 -93 29 -491 48 -63 3 -134 8 -157 11 -36 5
-43 3 -58 -20z"/>
<path d="M10890 455 c0 -8 -9 -15 -20 -15 -30 0 -78 -27 -90 -50 -8 -15 -6
-21 9 -29 41 -22 583 -42 595 -22 17 26 -64 48 -221 61 -125 10 -209 28 -249
54 -21 15 -24 15 -24 1z"/>
<path d="M12097 464 c-2 -3 -2 -67 1 -143 2 -76 2 -155 -2 -176 l-7 -37 -82 7
c-117 9 -119 12 -115 183 3 117 1 136 -14 145 -12 8 -21 7 -32 -2 -13 -11 -16
-38 -16 -152 l0 -138 -42 -12 c-32 -9 -57 -9 -97 -1 -57 12 -71 10 -71 -14 0
-8 -14 -21 -32 -28 l-32 -14 64 -6 c76 -7 566 -26 660 -26 74 0 103 11 82 32
-10 10 -16 10 -33 0 -16 -10 -24 -10 -35 -2 -7 7 -37 17 -66 24 l-53 11 -3
168 c-1 92 -4 167 -5 167 -1 0 -16 4 -34 9 -17 5 -33 7 -36 5z"/>
<path d="M6557 413 c-35 -18 -32 -47 5 -51 36 -4 75 33 57 54 -14 17 -25 16
-62 -3z"/>
<path d="M6195 409 c-60 -3 -122 -11 -137 -17 -38 -16 -51 -43 -32 -70 16 -23
45 -27 103 -16 36 7 42 23 9 25 -46 2 61 19 205 32 127 12 183 26 166 40 -10
9 -212 13 -314 6z"/>
<path d="M11421 386 c-18 -21 -9 -51 14 -51 24 0 32 36 12 53 -11 10 -17 9
-26 -2z"/>
<path d="M7560 294 c0 -8 5 -12 10 -9 6 4 8 11 5 16 -9 14 -15 11 -15 -7z"/>
<path d="M2200 221 c0 -23 126 -39 160 -21 18 10 20 14 9 21 -18 11 -169 12
-169 0z"/>
<path d="M2631 222 c-33 -10 -38 -30 -9 -37 13 -3 77 -2 143 2 111 8 118 9 95
23 -28 15 -189 24 -229 12z"/>
<path d="M30 201 c0 -10 7 -24 15 -31 12 -10 16 -9 21 4 3 9 4 23 0 31 -8 21
-36 19 -36 -4z"/>
<path d="M2475 211 c-6 -11 9 -23 19 -14 9 9 7 23 -3 23 -6 0 -12 -4 -16 -9z"/>
<path d="M6506 204 c-13 -33 -7 -45 14 -34 23 12 27 50 6 50 -8 0 -17 -7 -20
-16z"/>
<path d="M5434 185 c-4 -9 0 -23 9 -32 21 -21 49 -9 45 19 -4 28 -45 38 -54
13z"/>
<path d="M4930 151 c-77 -10 -19 -21 115 -21 114 0 158 9 119 24 -19 7 -171 5
-234 -3z"/>
<path d="M12499 71 c-13 -11 -20 -23 -16 -28 5 -4 44 -8 88 -8 56 0 79 -3 79
-12 0 -20 18 -24 34 -7 25 25 19 32 -34 43 -63 14 -60 14 -54 -4 9 -22 -1 -19
-32 10 -32 30 -35 30 -65 6z"/>
</g>
</svg>
