<?xml version="1.0" standalone="no"?>
<!DOCTYPE svg PUBLIC "-//W3C//DTD SVG 20010904//EN"
 "http://www.w3.org/TR/2001/REC-SVG-20010904/DTD/svg10.dtd">
<svg version="1.0" xmlns="http://www.w3.org/2000/svg"
 width="1280.000000pt" height="1280.000000pt" viewBox="0 0 1280.000000 1280.000000"
 preserveAspectRatio="xMidYMid meet">
<metadata>
Created by potrace 1.15, written by Peter Selinger 2001-2017
</metadata>
<g transform="translate(0.000000,1280.000000) scale(0.100000,-0.100000)"
fill="#1c1c1c" stroke="none">
<path d="M6304 12670 c-322 -50 -629 -360 -894 -905 -272 -558 -491 -1323
-636 -2220 -48 -299 -39 -268 -72 -251 -15 7 -124 50 -242 94 -746 280 -1379
449 -1980 529 -197 26 -691 26 -840 -1 -142 -25 -277 -68 -385 -124 -177 -92
-312 -263 -350 -447 -72 -346 127 -824 583 -1399 330 -415 918 -992 1460
-1431 67 -54 122 -101 122 -105 0 -4 -28 -29 -62 -56 -118 -92 -363 -298 -503
-423 -701 -625 -1182 -1195 -1429 -1691 -129 -260 -176 -430 -176 -634 0 -208
48 -322 203 -483 111 -115 181 -168 291 -218 281 -130 755 -153 1316 -64 518
81 1147 258 1813 508 121 46 221 81 223 78 2 -2 22 -107 44 -233 202 -1179
512 -2078 888 -2580 88 -118 267 -301 367 -377 446 -337 903 -153 1300 527
155 265 317 662 440 1081 127 432 253 1024 321 1510 9 66 18 121 19 123 1 1
87 -31 191 -72 778 -306 1530 -514 2139 -593 177 -22 667 -26 785 -5 412 73
639 242 717 533 23 87 22 267 -1 379 -51 243 -187 531 -394 835 -310 456 -849
1027 -1477 1564 -94 80 -189 161 -213 179 -23 19 -42 37 -42 40 0 4 22 23 47
42 85 63 401 328 541 453 444 395 802 772 1062 1117 466 619 623 1125 454
1468 -26 53 -61 99 -127 168 -181 190 -343 272 -643 325 -113 21 -161 23 -394
23 -286 0 -411 -11 -727 -64 -505 -85 -1158 -270 -1763 -499 -85 -32 -156 -58
-157 -57 -1 1 -14 73 -28 161 -192 1160 -509 2098 -891 2636 -87 123 -360 394
-457 454 -141 86 -309 126 -443 105z m340 -381 c112 -42 204 -106 274 -193
335 -415 628 -1264 811 -2351 35 -209 81 -512 81 -538 0 -12 -15 -25 -42 -37
-24 -10 -164 -71 -313 -135 -387 -168 -549 -242 -816 -372 l-236 -115 -179 90
c-244 122 -452 219 -824 383 -173 77 -315 141 -317 142 -6 7 82 539 127 767
154 771 353 1391 578 1795 92 167 171 275 282 386 88 89 118 112 190 148 47
23 105 46 130 51 67 14 189 4 254 -21z m4521 -2673 c165 -28 333 -95 396 -158
15 -16 39 -52 52 -81 145 -307 -50 -787 -567 -1394 -225 -263 -691 -712 -1071
-1029 -141 -118 -464 -374 -472 -374 -3 0 -44 31 -92 69 -241 191 -660 491
-941 673 l-159 103 -1 50 c-2 296 -63 988 -120 1355 -10 68 -17 126 -16 128
10 9 617 232 792 290 617 206 1139 330 1589 377 172 17 482 13 610 -9z m-8795
-6 c500 -38 1149 -192 1870 -443 235 -83 449 -162 458 -172 3 -3 -4 -67 -16
-143 -44 -276 -78 -625 -107 -1110 -8 -140 -15 -258 -15 -263 0 -4 -89 -68
-197 -140 -236 -157 -370 -252 -767 -541 -164 -120 -303 -217 -307 -216 -4 2
-99 76 -211 164 -864 686 -1426 1293 -1684 1819 -93 190 -125 295 -131 439 -7
128 6 196 51 281 132 253 502 367 1056 325z m2753 -794 c203 -77 854 -378 926
-428 21 -15 13 -20 -151 -101 -95 -47 -267 -142 -383 -212 -434 -263 -577
-347 -581 -342 -12 11 52 715 86 962 11 77 20 141 20 142 0 7 22 1 83 -21z
m2744 -92 c34 -220 68 -595 79 -887 l7 -178 -139 94 c-183 124 -592 365 -839
494 l-148 77 274 136 c339 167 731 349 744 346 5 -1 15 -38 22 -82z m-1203
-673 c89 -49 258 -141 376 -206 321 -175 929 -546 935 -570 11 -47 25 -422 25
-700 0 -165 -7 -471 -16 -680 -16 -362 -18 -381 -38 -398 -45 -39 -282 -191
-511 -329 -228 -137 -488 -282 -873 -487 l-173 -92 -97 51 c-473 252 -974 538
-1262 723 -102 65 -115 77 -121 107 -43 213 -51 1338 -13 1708 l7 59 241 151
c269 168 260 162 586 350 214 123 742 401 764 402 5 0 81 -40 170 -89z m1884
-1108 c254 -172 730 -519 732 -533 0 -7 -166 -137 -306 -238 -89 -64 -578
-405 -611 -425 -4 -3 -7 214 -5 481 2 268 -1 567 -5 665 -4 97 -4 177 0 177 5
0 93 -57 195 -127z m-4035 -350 c-3 -230 0 -526 5 -658 5 -132 8 -242 6 -244
-4 -5 -467 309 -654 444 -85 61 -183 131 -217 156 -34 24 -62 46 -62 49 1 15
905 670 925 670 1 0 0 -188 -3 -417z m-1028 -502 c231 -187 601 -446 923 -645
78 -49 144 -92 147 -96 2 -4 9 -105 15 -226 19 -414 64 -898 110 -1196 11 -70
20 -129 20 -131 0 -12 -457 -183 -770 -289 -781 -263 -1389 -388 -1882 -388
-274 0 -454 34 -608 114 -74 38 -117 87 -151 173 -21 51 -24 74 -23 203 0 137
2 151 33 245 97 293 307 620 640 995 220 248 651 662 986 947 240 203 457 373
468 366 6 -4 47 -36 92 -72z m6296 -66 c582 -463 991 -846 1304 -1220 503
-602 678 -1073 518 -1393 -32 -63 -136 -165 -208 -204 -170 -91 -446 -131
-760 -109 -486 34 -1074 174 -1775 423 -229 81 -680 256 -680 263 0 3 9 60 20
127 45 281 84 704 102 1094 l12 261 45 29 c318 196 843 566 1160 816 46 36 78
55 86 50 7 -4 87 -65 176 -137z m-4685 -1047 c71 -47 203 -129 294 -180 91
-52 235 -135 320 -185 85 -50 199 -113 253 -139 53 -27 97 -52 97 -56 0 -21
-940 -463 -1020 -480 -10 -2 -17 17 -27 77 -34 216 -65 581 -78 919 -6 156 -6
159 13 145 11 -8 77 -53 148 -101z m2843 -98 c-18 -276 -64 -704 -100 -916
l-11 -62 -96 38 c-232 91 -792 350 -900 417 l-33 20 183 91 c261 129 741 402
918 521 24 17 45 29 46 28 1 -1 -3 -63 -7 -137z m-1328 -720 c269 -152 673
-348 1014 -490 83 -35 154 -66 158 -70 9 -8 -5 -114 -59 -450 -208 -1291 -556
-2222 -958 -2561 -198 -167 -399 -200 -604 -98 -110 54 -184 128 -292 290
-259 391 -490 1049 -659 1879 -74 366 -158 888 -144 900 4 4 71 33 148 65 440
183 902 400 1145 539 63 36 118 65 121 66 3 0 62 -32 130 -70z"/>
<path d="M6232 7020 c-218 -57 -387 -221 -453 -440 -27 -89 -32 -252 -10 -340
64 -253 218 -428 450 -507 66 -23 93 -27 201 -27 111 0 134 3 205 28 277 96
446 331 446 621 0 191 -66 340 -216 490 -66 66 -108 99 -157 123 -147 71 -318
90 -466 52z"/>
</g>
</svg>
