<?xml version="1.0" standalone="no"?>
<!DOCTYPE svg PUBLIC "-//W3C//DTD SVG 20010904//EN"
 "http://www.w3.org/TR/2001/REC-SVG-20010904/DTD/svg10.dtd">
<svg version="1.0" xmlns="http://www.w3.org/2000/svg"
 width="1280.000000pt" height="1276.000000pt" viewBox="0 0 1280.000000 1276.000000"
 preserveAspectRatio="xMidYMid meet">
<metadata>
Created by potrace 1.15, written by Peter Selinger 2001-2017
</metadata>
<g transform="translate(0.000000,1276.000000) scale(0.100000,-0.100000)"
fill="#ff7e57" stroke="none">
<path d="M6095 12754 c-655 -42 -1166 -139 -1744 -331 -444 -147 -985 -405
-1366 -651 -91 -58 -93 -58 95 -37 191 22 650 30 840 16 641 -48 1163 -190
1735 -471 249 -123 479 -261 885 -532 191 -127 360 -232 430 -266 108 -53 119
-57 190 -57 73 0 77 1 154 50 44 28 127 95 184 149 187 180 303 388 358 646
25 118 26 372 1 490 -64 304 -227 611 -469 883 l-43 48 -115 15 c-247 32 -448
45 -755 48 -176 2 -347 2 -380 0z"/>
<path d="M7630 12635 c0 -3 22 -38 48 -78 208 -310 348 -642 393 -932 18 -113
15 -322 -5 -434 -58 -326 -246 -648 -586 -1003 -61 -65 -110 -121 -108 -126 2
-6 858 -808 944 -884 21 -18 23 -17 300 204 1091 868 1493 1147 2067 1435 103
52 187 100 187 107 0 22 -213 221 -410 382 -811 665 -1775 1123 -2797 1329
-18 4 -33 4 -33 0z"/>
<path d="M3110 11619 c-159 -15 -255 -30 -365 -56 -107 -25 -113 -28 -210
-102 -1320 -999 -2211 -2492 -2460 -4120 -29 -194 -38 -283 -25 -256 5 11 24
59 43 106 207 523 788 945 1767 1283 536 186 1045 312 2333 581 1168 243 1541
338 1917 487 315 125 532 269 623 415 32 51 67 152 67 194 0 121 -278 400
-595 597 -605 374 -1369 670 -2073 801 -376 71 -751 96 -1022 70z"/>
<path d="M10870 10627 c-751 -483 -1593 -1102 -2163 -1591 -83 -71 -126 -114
-122 -124 10 -28 820 -1041 833 -1041 7 -1 70 28 141 63 409 206 826 336 1199
377 142 15 423 7 552 -16 531 -95 970 -413 1349 -980 61 -92 91 -130 87 -110
-3 17 -13 77 -21 135 -89 612 -291 1250 -580 1835 -205 416 -414 752 -684
1100 -152 196 -387 465 -406 465 -5 -1 -89 -51 -185 -113z"/>
<path d="M7155 9859 c-14 -22 -215 -176 -320 -244 -399 -261 -908 -465 -1610
-645 -315 -81 -585 -140 -1306 -285 -1046 -211 -1440 -305 -1894 -452 -972
-315 -1594 -752 -1947 -1368 -61 -106 -63 -112 -70 -200 -10 -141 -9 -434 2
-636 61 -1088 378 -2104 947 -3027 183 -297 536 -769 565 -756 7 3 101 114
208 247 1837 2275 3838 4331 6063 6227 152 129 276 240 277 245 0 7 -897 903
-907 905 -1 0 -5 -5 -8 -11z"/>
<path d="M8124 8517 c-1868 -1413 -3679 -3206 -5930 -5872 -417 -495 -504
-599 -504 -606 0 -4 78 -85 172 -181 994 -998 2273 -1639 3648 -1827 277 -38
246 -39 363 18 317 156 594 420 823 784 200 317 417 846 554 1352 99 363 186
742 290 1255 11 52 60 295 109 540 211 1043 307 1438 476 1955 36 109 143 393
187 495 233 534 515 930 853 1195 28 22 52 40 54 42 6 4 -830 1028 -842 1030
-7 2 -120 -79 -253 -180z"/>
<path d="M10580 8093 c-19 -2 -83 -13 -142 -23 -283 -53 -506 -170 -647 -340
-61 -73 -65 -106 -25 -208 44 -111 82 -175 373 -632 216 -338 352 -562 476
-780 700 -1233 956 -2343 779 -3380 -25 -145 -80 -377 -108 -457 -8 -24 -12
-43 -8 -42 9 0 179 214 274 344 668 913 1073 1937 1203 3040 40 347 55 771 36
1069 l-12 189 -41 81 c-308 614 -942 1039 -1688 1132 -102 13 -377 17 -470 7z"/>
<path d="M9255 7311 c-362 -131 -648 -562 -880 -1326 -124 -410 -216 -798
-415 -1760 -243 -1174 -342 -1596 -491 -2095 -214 -719 -467 -1273 -756 -1658
-102 -136 -264 -308 -378 -400 l-80 -65 305 6 c954 18 1859 245 2725 682 576
291 1051 627 1537 1086 144 137 147 141 198 245 95 194 158 419 196 694 22
153 25 572 6 760 -58 575 -219 1194 -472 1820 -324 800 -764 1531 -1138 1891
-108 105 -111 107 -180 123 -89 20 -115 20 -177 -3z"/>
</g>
</svg>
